<svg width="17" height="18" viewBox="0 0 17 18" fill="none" xmlns="http://www.w3.org/2000/svg">
<path d="M11.0097 3.734C11.5471 3.734 12.0069 3.90573 12.3892 4.24919C12.7722 4.59323 12.9637 5.00661 12.9637 5.48933L12.9637 16.0213C12.9637 16.5041 12.7722 16.9174 12.3892 17.2615C12.0069 17.6049 11.5471 17.7767 11.0097 17.7767H2.21695C1.67961 17.7767 1.21946 17.6049 0.836485 17.2615C0.454163 16.9174 0.263 16.5041 0.263 16.0213L0.263002 5.48933C0.263002 5.00661 0.454164 4.59323 0.836486 4.24919C1.21946 3.90573 1.67962 3.734 2.21695 3.734L11.0097 3.734ZM11.0097 5.48933L2.21695 5.48933L2.21695 16.0213L11.0097 16.0213L11.0097 5.48933ZM14.9176 0.223328C15.455 0.223328 15.9151 0.395059 16.2981 0.738519C16.6804 1.08256 16.8716 1.49595 16.8716 1.97866L16.8716 13.3883C16.8716 13.637 16.7778 13.8456 16.5902 14.0141C16.4033 14.182 16.1714 14.266 15.8946 14.266C15.6178 14.266 15.3856 14.182 15.198 14.0141C15.0111 13.8456 14.9176 13.637 14.9176 13.3883L14.9176 1.97866L5.14788 1.97866C4.87107 1.97866 4.63887 1.89441 4.45129 1.72589C4.26437 1.55797 4.1709 1.34967 4.1709 1.10099C4.1709 0.852322 4.26437 0.644022 4.45129 0.476095C4.63887 0.307583 4.87107 0.223328 5.14788 0.223328L14.9176 0.223328Z" fill="url(#paint0_linear_184_2)"/>
<defs>
<linearGradient id="paint0_linear_184_2" x1="16.8716" y1="17.7767" x2="-0.0942175" y2="17.4243" gradientUnits="userSpaceOnUse">
<stop stop-color="#0071FF"/>
<stop offset="1" stop-color="#54F0D1"/>
</linearGradient>
</defs>
</svg>
