<svg xmlns="http://www.w3.org/2000/svg" width="18.667" height="15.996" viewBox="0 0 18.667 15.996">
  <path id="Icon_ionic-md-eye-off" data-name="Icon ionic-md-eye-off" d="M11.585,7.866a4.231,4.231,0,0,1,4.245,4.212,4.051,4.051,0,0,1-.3,1.541L18,16.076a9.959,9.959,0,0,0,2.912-4A10.053,10.053,0,0,0,8.2,6.35l1.833,1.82A4.2,4.2,0,0,1,11.585,7.866ZM3.1,5.571l1.937,1.92.392.387a9.911,9.911,0,0,0-3.178,4.2A10.067,10.067,0,0,0,15.3,17.684l.358.354L18.146,20.5l1.079-1.071L4.175,4.5ZM7.79,10.224l1.316,1.3a2.386,2.386,0,0,0-.067.546A2.533,2.533,0,0,0,11.585,14.6a2.394,2.394,0,0,0,.55-.067l1.316,1.3A4.223,4.223,0,0,1,7.34,12.069,4.161,4.161,0,0,1,7.79,10.224Zm3.657-.654,2.674,2.654.017-.133a2.533,2.533,0,0,0-2.545-2.524Z" transform="translate(-2.25 -4.5)" fill="#223f70"/>
</svg>
