<svg xmlns="http://www.w3.org/2000/svg" width="18.854" height="12.12" viewBox="0 0 18.854 12.12">
  <g id="Icon_ionic-ios-eye" data-name="Icon ionic-ios-eye" transform="translate(-2.252 -7.875)">
    <path id="Path_49587" data-name="Path 49587" d="M11.669,7.875c-3.383,0-6.051,2.129-9.241,5.61a.665.665,0,0,0,0,.9c2.731,3.017,5.138,5.614,9.245,5.614,4.057,0,7.1-3.27,9.262-5.639a.66.66,0,0,0,.021-.871C18.747,10.812,15.7,7.875,11.669,7.875Zm.185,9.843a3.787,3.787,0,1,1,3.606-3.606A3.789,3.789,0,0,1,11.854,17.718Z" fill="#223f70"/>
    <path id="Path_49588" data-name="Path 49588" d="M16.194,14.215a1.977,1.977,0,0,1,.13-.711c-.042,0-.084,0-.13,0a2.693,2.693,0,1,0,2.693,2.693c0-.055,0-.109,0-.164a1.866,1.866,0,0,1-.766.164A1.954,1.954,0,0,1,16.194,14.215Z" transform="translate(-4.517 -2.258)" fill="#223f70"/>
  </g>
</svg>
