<svg width="70" height="71" viewBox="0 0 70 71" fill="none" xmlns="http://www.w3.org/2000/svg">
<path d="M2.77759 20.1526C2.77759 15.2414 6.75537 11.2637 11.6665 11.2637H58.3331C63.2443 11.2637 67.222 15.2414 67.222 20.1526" stroke="white" stroke-width="5" stroke-linecap="round" stroke-linejoin="round"/>
<path d="M67.222 22.5969H49.4443C46.9909 22.5969 44.9998 24.588 44.9998 27.0414V28.2636C44.9998 30.7169 43.0087 32.708 40.5554 32.708H29.4443C26.9909 32.708 24.9998 30.7169 24.9998 28.2636V27.0414C24.9998 24.588 23.0087 22.5969 20.5554 22.5969H2.77759" stroke="white" stroke-width="5" stroke-linecap="round" stroke-linejoin="round"/>
<path d="M58.3334 54.0413C63.2426 54.0413 67.2223 50.0616 67.2223 45.1524V11.8191C67.2223 6.90987 63.2426 2.93018 58.3334 2.93018H11.6667C6.75752 2.93018 2.77783 6.90987 2.77783 11.8191V45.1524C2.77783 50.0616 6.75752 54.0413 11.6667 54.0413" stroke="white" stroke-width="5" stroke-linecap="round" stroke-linejoin="round"/>
<path d="M35.0001 68.0697C41.6735 68.0697 47.0834 62.6598 47.0834 55.9864C47.0834 49.313 41.6735 43.9031 35.0001 43.9031C28.3266 43.9031 22.9167 49.313 22.9167 55.9864C22.9167 62.6598 28.3266 68.0697 35.0001 68.0697Z" stroke="#57CC55" stroke-width="4" stroke-linecap="round" stroke-linejoin="round"/>
<path d="M31 56.4994C31.9863 57.5241 32.7566 58.7071 33.4 60C34.8937 57.0561 36.76 54.7219 39 53" stroke="#57CC55" stroke-width="3" stroke-linecap="round" stroke-linejoin="round"/>
</svg>
