<svg width="128" height="112" viewBox="0 0 128 112" fill="none" xmlns="http://www.w3.org/2000/svg">
<g clip-path="url(#clip0_1349_2)">
<path opacity="0.23" d="M64 112C99.3462 112 128 110.34 128 108.293C128 106.246 99.3462 104.587 64 104.587C28.6538 104.587 0 106.246 0 108.293C0 110.34 28.6538 112 64 112Z" fill="#F5F5F5" fill-opacity="0.2"/>
<path d="M23.9541 28.1801H23.8947C22.4093 27.607 21.5214 27.0504 21.0593 26.3791C20.6975 26.4471 20.3233 26.3966 19.9931 26.235C19.6063 26.0472 19.2854 25.7483 19.0722 25.3771C18.9601 25.4625 18.8281 25.5183 18.6884 25.5395C18.5488 25.5607 18.406 25.5465 18.2734 25.4983C17.8666 25.3473 17.5194 25.0707 17.2831 24.7091C17.1353 24.8184 16.9515 24.8686 16.7682 24.8499C15.7779 24.7714 14.4576 22.8329 14.3619 20.7699C14.3609 20.7264 14.3768 20.6842 14.4062 20.6519C14.4357 20.6196 14.4765 20.5997 14.5203 20.5964C14.542 20.5955 14.5636 20.5989 14.584 20.6063C14.6043 20.6138 14.623 20.6251 14.639 20.6397C14.6549 20.6543 14.6678 20.6719 14.6769 20.6914C14.686 20.7109 14.6911 20.7321 14.6919 20.7536C14.7844 22.7183 16.0486 24.4636 16.7979 24.5225C16.8524 24.5286 16.9076 24.5239 16.9603 24.5087C17.013 24.4935 17.0621 24.4682 17.1049 24.4341C16.8467 23.9672 16.6846 23.4542 16.6279 22.9247C16.5713 22.3951 16.6212 21.8597 16.7748 21.3495C17.0586 20.3672 17.3095 19.9808 17.6132 20.0397C18.1809 20.1805 18.105 22.3319 17.8046 23.7366C17.7591 23.99 17.665 24.2323 17.5274 24.4505C17.722 24.7741 18.0157 25.0277 18.3658 25.1741C18.4591 25.2094 18.5606 25.2173 18.6583 25.197C18.756 25.1767 18.8458 25.1289 18.917 25.0595C18.6596 24.4275 18.5869 23.5631 18.9566 22.4596C19.4187 21.0123 19.6168 20.973 19.7191 20.9468C19.7576 20.9387 19.7976 20.9412 19.8348 20.9539C19.872 20.9666 19.905 20.989 19.9304 21.0188C20.2374 21.3626 19.871 23.6155 19.4881 24.7288C19.4432 24.8628 19.3811 24.9904 19.3032 25.1086C19.4803 25.4628 19.7688 25.7501 20.1251 25.9272C20.3588 26.04 20.6187 26.0886 20.8777 26.068C20.848 26.0058 20.8216 25.9436 20.7952 25.8781C20.5344 25.1741 20.6632 24.3653 21.188 23.3961C21.5346 22.7576 21.8185 22.4563 22.0825 22.4563C22.1526 22.4572 22.221 22.4781 22.2795 22.5164C22.338 22.5547 22.3842 22.6088 22.4126 22.6724C22.6998 23.1996 22.4918 24.9384 21.9241 25.8028C21.7911 26.001 21.6063 26.1595 21.3893 26.2612C21.8317 26.8375 22.6734 27.3451 24.03 27.8625C24.0504 27.8697 24.069 27.881 24.0849 27.8955C24.1008 27.9101 24.1136 27.9276 24.1225 27.9472C24.1314 27.9667 24.1363 27.9878 24.1369 28.0093C24.1374 28.0307 24.1336 28.0521 24.1257 28.072C24.1129 28.1061 24.0892 28.1351 24.0582 28.1547C24.0272 28.1742 23.9907 28.1831 23.9541 28.1801ZM22.0792 22.787C22.0792 22.787 21.8911 22.787 21.4752 23.5565C20.9965 24.4341 20.8744 25.1577 21.1022 25.7668C21.1298 25.8422 21.1629 25.9155 21.2012 25.9862C21.38 25.9129 21.532 25.7872 21.6369 25.626C22.099 24.9253 22.3202 23.4845 22.1485 22.9213C22.1254 22.8067 22.0792 22.787 22.0792 22.787ZM19.7092 21.4085C19.5305 21.7813 19.3826 22.1678 19.2669 22.5644C19.0137 23.2516 18.9701 23.9975 19.1415 24.7091L19.1712 24.624C19.5178 23.5861 19.7026 22.5017 19.7191 21.4085H19.7092ZM17.5373 20.377C17.4812 20.4261 17.3194 20.6324 17.0917 21.4314C16.8223 22.3281 16.9073 23.2928 17.3293 24.1296C17.397 23.9832 17.4469 23.8293 17.4779 23.6711C17.831 22.0634 17.732 20.6095 17.5472 20.377H17.5373Z" fill="#44494B"/>
<path d="M36.504 45.3449C35.9763 45.3499 35.4567 45.2154 34.9988 44.9552C34.9611 44.9327 34.9338 44.8965 34.9227 44.8542C34.9116 44.812 34.9176 44.7671 34.9394 44.7292C34.9503 44.7108 34.9648 44.6947 34.982 44.6818C34.9993 44.669 35.0189 44.6597 35.0398 44.6545C35.0607 44.6494 35.0825 44.6484 35.1038 44.6516C35.1251 44.6549 35.1455 44.6624 35.1639 44.6736C36.3423 45.3579 37.8639 44.8799 38.1775 44.3789C38.2002 44.3475 38.2162 44.3119 38.2247 44.2742C38.2332 44.2365 38.234 44.1975 38.227 44.1595C37.6244 44.1938 37.0278 44.0254 36.5337 43.6814C35.692 43.1608 35.626 43.0036 35.6326 42.8792C35.6342 42.8434 35.6455 42.8088 35.6652 42.7788C35.6849 42.7488 35.7124 42.7247 35.7448 42.7089C36.0749 42.5452 37.5636 43.223 38.1841 43.629C38.2585 43.678 38.3272 43.7352 38.3888 43.7993C38.6326 43.7444 38.8524 43.6136 39.0159 43.426C39.108 43.3187 39.1746 43.1923 39.2107 43.056H39.1447C38.6165 43.1084 38.0884 42.8824 37.524 42.3651C37.1345 42.0114 36.9859 41.7659 37.0354 41.5727C37.0504 41.5184 37.0808 41.4695 37.1229 41.4318C37.165 41.394 37.2171 41.3691 37.2731 41.3598C37.7286 41.2452 38.8575 41.7233 39.3163 42.2243C39.4186 42.3332 39.4913 42.4662 39.5276 42.6107C39.96 42.4109 40.4155 41.9558 40.9535 41.2125C40.966 41.1948 40.982 41.1797 41.0004 41.1681C41.0188 41.1565 41.0393 41.1487 41.0608 41.1451C41.0823 41.1414 41.1043 41.142 41.1255 41.1468C41.1468 41.1517 41.1669 41.1606 41.1846 41.1732C41.2199 41.1988 41.2438 41.237 41.2512 41.2798C41.2586 41.3226 41.2489 41.3666 41.2242 41.4024C40.6003 42.2669 40.0788 42.758 39.5573 42.9578C39.5303 43.1998 39.4302 43.4281 39.2701 43.6127C39.0799 43.8319 38.8301 43.9922 38.5505 44.0744C38.5662 44.1525 38.5661 44.233 38.5503 44.3111C38.5344 44.3892 38.5031 44.4635 38.4581 44.5295C38.1808 44.9978 37.382 45.3449 36.504 45.3449ZM36.2102 43.0724C36.3225 43.1542 36.4809 43.2623 36.7087 43.3998C37.0636 43.6373 37.4714 43.7857 37.897 43.832C37.3657 43.516 36.7998 43.2611 36.2102 43.0724ZM37.3622 41.6807C37.4571 41.8578 37.5887 42.013 37.7484 42.1359C38.2369 42.5845 38.6826 42.7908 39.1117 42.7384H39.2173C39.1938 42.6367 39.1437 42.5429 39.0721 42.4666C38.6099 41.9492 37.5933 41.6283 37.3622 41.6807Z" fill="#44494B"/>
<path d="M40.8742 44.8963L35.7315 45.8229L31.0608 20.5375L21.1385 22.3253L4.96436 50.8132L6.7006 60.2142L27.4464 56.4781L28.8657 64.1665L38.7881 62.3721L37.3687 54.6837L42.5114 53.757L40.8742 44.8963ZM14.8471 49.6017L23.4293 34.6799L25.8224 47.6272L14.8471 49.6017Z" fill="#4CE3D6"/>
<path d="M82.2965 18.8216C82.1403 17.2321 81.7855 15.668 81.2402 14.1653C80.6792 12.7259 79.9001 11.3799 78.9296 10.1737C77.7808 8.77049 76.354 7.61592 74.7375 6.78138C72.9771 5.82305 70.6423 5.15615 67.7332 4.78067C61.6926 3.99917 56.9856 5.06228 53.6122 7.97001C50.2387 10.8777 48.0161 16.4443 46.9445 24.6698C46.5166 27.7439 46.406 30.8533 46.6144 33.9497C46.8344 36.7875 47.3604 39.072 48.1922 40.8031C49.2507 43.1376 50.9205 45.148 53.0279 46.6251C55.1118 48.0768 57.9726 49.0362 61.6101 49.5034C68.0753 50.3395 72.8693 49.1072 75.9919 45.8065C79.1144 42.5059 81.183 36.9283 82.1974 29.074C82.6484 25.6731 82.6816 22.2304 82.2965 18.8216Z" fill="#44D8DA"/>
<path d="M64.5842 46.1405C63.7887 46.1143 62.9338 46.0423 62.0723 45.9309C59.0487 45.5413 56.7117 44.7816 55.1207 43.6748C53.5341 42.5634 52.2795 41.0474 51.4898 39.287L51.4733 39.251C50.8395 37.9412 50.4236 36.0584 50.2421 33.6844C50.0498 30.8328 50.1515 27.9692 50.5458 25.138C51.7242 16.0612 54.1569 12.2727 55.9888 10.6944C58.1278 8.8541 61.016 8.02239 64.812 8.15337C65.591 8.17956 66.4162 8.24833 67.2645 8.35638C69.7005 8.68383 71.6315 9.20775 72.9981 9.94778C74.1789 10.551 75.2243 11.3853 76.0712 12.4004C76.8121 13.3171 77.4076 14.3407 77.8371 15.4358C78.2756 16.6569 78.5595 17.9273 78.6821 19.2178C79.0342 22.3448 79.002 25.5027 78.5864 28.6221C77.6721 35.6753 75.9028 40.6328 73.3315 43.3572C71.4236 45.3743 68.5617 46.3042 64.5809 46.1536L64.5842 46.1405Z" fill="#44494B"/>
<path d="M71.044 18.9165L71.0869 17.6755L70.3178 17.4266C70.2851 17.0069 70.2166 16.5906 70.1132 16.1823L70.7733 15.7042L70.331 14.5385L69.5256 14.604C69.3362 14.2294 69.1154 13.8712 68.8654 13.5333L69.2814 12.8424L68.4231 11.9353L67.7036 12.3021C67.3816 12.0275 67.0371 11.7799 66.6737 11.562L66.7892 10.7696L65.6471 10.2555L65.1256 10.8646C64.7217 10.7347 64.3077 10.6384 63.8878 10.5764L63.693 9.80038L62.4387 9.75781L62.1911 10.5175C61.7682 10.5511 61.3486 10.619 60.9368 10.7205L60.4516 10.0656L59.2765 10.5011L59.3425 11.3001C58.9649 11.4881 58.6039 11.7072 58.2631 11.955L57.57 11.5391L56.6523 12.3872L57.022 13.1043C56.7444 13.4235 56.4959 13.7665 56.2793 14.1292L55.4805 14.0081L54.959 15.141L55.5763 15.6584C55.4423 16.0593 55.3451 16.4714 55.2858 16.8896L54.5002 17.0861L54.4573 18.3238L55.2264 18.5727C55.2586 18.9936 55.3271 19.411 55.431 19.8203L54.7709 20.2951L55.2132 21.4608L56.0186 21.3953C56.2061 21.771 56.427 22.1293 56.6787 22.466L56.2595 23.1569L57.1178 24.064L57.8373 23.7005C58.1594 23.9741 58.5039 24.2205 58.8672 24.4373L58.7484 25.2297L59.8905 25.7438L60.4153 25.138C60.8203 25.2671 61.2354 25.3624 61.6564 25.4229L61.8512 26.2022L63.1022 26.2448L63.3497 25.4818C63.774 25.4498 64.1948 25.3819 64.6074 25.2788L65.086 25.9337L66.2611 25.4982L66.1984 24.7025C66.5746 24.512 66.9355 24.2931 67.2777 24.0476L67.9709 24.4602L68.8886 23.6121L68.5222 22.895C68.7987 22.5769 69.0461 22.235 69.2615 21.8734L70.0603 21.9912L70.5819 20.8583L69.9679 20.3409C70.0993 19.9406 70.1954 19.5297 70.2551 19.113L71.044 18.9165ZM62.5939 22.9343C61.6162 22.8988 60.671 22.5769 59.8776 22.009C59.0843 21.4412 58.4782 20.6529 58.1361 19.7437C57.7939 18.8345 57.7309 17.8451 57.9551 16.9005C58.1792 15.9558 58.6805 15.0981 59.3955 14.4358C60.1106 13.7735 61.0074 13.3361 61.9728 13.179C62.9383 13.0218 63.9289 13.1519 64.8199 13.5528C65.7108 13.9537 66.4621 14.6074 66.9788 15.4315C67.4956 16.2556 67.7547 17.213 67.7234 18.183C67.7025 18.8296 67.5531 19.4657 67.2837 20.0548C67.0144 20.6439 66.6303 21.1744 66.1537 21.6159C65.6771 22.0574 65.1173 22.4011 64.5063 22.6273C63.8954 22.8536 63.2455 22.9579 62.5939 22.9343Z" fill="#407BFF"/>
<path opacity="0.3" d="M76.2526 41.7003L76.345 40.862L75.8367 40.659C75.8359 40.3737 75.8116 40.089 75.7641 39.8077L76.2229 39.5162L75.9885 38.7074H75.4406C75.3322 38.4444 75.2008 38.1913 75.0478 37.951L75.3581 37.5057L74.8299 36.8508L74.3249 37.0604C74.1202 36.8595 73.8995 36.6756 73.6647 36.5103L73.7868 35.9798L73.0442 35.5738L72.6547 35.9634C72.3894 35.8551 72.1156 35.7686 71.836 35.7047L71.7436 35.171L70.9019 35.076L70.694 35.5803C70.4072 35.5817 70.1212 35.608 69.839 35.6589L69.5453 35.1939L68.73 35.433V35.9765C68.4647 36.0852 68.2096 36.2167 67.9675 36.3695L67.5186 36.042L66.8584 36.5659L67.0696 37.0669C66.8684 37.2701 66.684 37.4891 66.5184 37.7218L65.9837 37.6039L65.5777 38.3407L65.9672 38.7238C65.8565 38.9876 65.7692 39.2604 65.7064 39.5392L65.1651 39.6276L65.0759 40.4626L65.581 40.6721C65.5812 40.9554 65.6066 41.2381 65.6569 41.5169L65.1915 41.8084L65.4291 42.6172H65.9804C66.0905 42.8789 66.2231 43.1309 66.3765 43.3703L66.0464 43.8156L66.5745 44.4705L67.0861 44.2577C67.2893 44.4592 67.5102 44.6422 67.7463 44.8045L67.6308 45.3448L68.3735 45.7475L68.7597 45.3644C69.0253 45.4702 69.299 45.5545 69.5783 45.6166L69.674 46.1536L70.5157 46.2453L70.7204 45.7443C71.0123 45.7439 71.3038 45.7198 71.5918 45.6722L71.8856 46.1339L72.6976 45.8982V45.3546C72.9629 45.244 73.219 45.1126 73.4634 44.9617L73.9057 45.2891L74.5659 44.7619L74.3513 44.2609C74.5547 44.0579 74.7412 43.8388 74.9091 43.606L75.4406 43.7239L75.8499 42.9872L75.4604 42.6073C75.5665 42.3437 75.6515 42.0722 75.7145 41.7953L76.2526 41.7003ZM72.0044 41.3729C71.8647 41.6264 71.6524 41.8331 71.3942 41.9669C71.1361 42.1007 70.8438 42.1555 70.5542 42.1244C70.2646 42.0933 69.9909 41.9777 69.7676 41.7923C69.5443 41.6068 69.3814 41.3598 69.2996 41.0825C69.2178 40.8052 69.2208 40.5101 69.3081 40.2345C69.3955 39.9589 69.5633 39.7152 69.7903 39.5342C70.0173 39.3532 70.2933 39.243 70.5834 39.2177C70.8736 39.1923 71.1648 39.2529 71.4201 39.3918C71.7616 39.5785 72.0147 39.8916 72.1242 40.2628C72.2337 40.634 72.1906 41.0331 72.0044 41.3729Z" fill="#407BFF"/>
<path d="M80.93 27.5481L79.9397 26.8736C79.8423 26.5229 79.7096 26.1828 79.5436 25.8585L79.7945 24.8761L78.3685 23.3601L77.3783 23.5434C77.0642 23.3579 76.7325 23.2033 76.388 23.0817L75.7774 22.0601L73.688 21.9913L73.008 22.9737C72.654 23.0689 72.311 23.2006 71.9847 23.3666L70.9945 23.1145L69.4662 24.5323L69.651 25.5147C69.4613 25.8249 69.3053 26.1542 69.1856 26.497L68.159 27.1028L68.0864 29.1755L69.0767 29.8501C69.1726 30.2033 69.3054 30.5457 69.4728 30.8717L69.2219 31.854L70.6479 33.3701L71.6381 33.19C71.9524 33.3753 72.2841 33.5299 72.6284 33.6517L73.2357 34.6701L75.3285 34.7421L76.0051 33.7598C76.362 33.6637 76.7082 33.5321 77.0383 33.3668L78.0286 33.6157L79.5568 32.2011L79.3753 31.2188C79.5629 30.9075 79.7188 30.5784 79.8407 30.2365L80.8673 29.6307L80.93 27.5481ZM74.4174 30.6982C73.9529 30.6823 73.5035 30.5302 73.126 30.261C72.7486 29.9918 72.4602 29.6176 72.2971 29.1858C72.1341 28.7539 72.1038 28.2838 72.2102 27.8349C72.3165 27.386 72.5546 26.9784 72.8944 26.6638C73.2342 26.3491 73.6604 26.1415 74.1192 26.0672C74.578 25.9928 75.0487 26.0551 75.4717 26.2462C75.8948 26.4372 76.2513 26.7484 76.4961 27.1405C76.7408 27.5325 76.8629 27.9877 76.8469 28.4486C76.8245 29.0662 76.5562 29.6498 76.1008 30.0714C75.6454 30.4931 75.0401 30.7185 74.4174 30.6982Z" fill="white"/>
<path d="M88.096 11.0022L88.2677 10.5929C88.3844 10.5276 88.4949 10.452 88.5978 10.3669H88.9807L89.4296 9.71202L89.2843 9.36165C89.3399 9.24495 89.3841 9.12324 89.4164 8.99818L89.7465 8.69693L89.6078 7.92743L89.1919 7.75716C89.1267 7.64104 89.0505 7.53139 88.9642 7.42971V7.04987L88.3205 6.60455L87.964 6.7519C87.8337 6.70637 87.6986 6.67561 87.5613 6.66021L87.2576 6.33276L86.4852 6.47029L86.3103 6.88287C86.1878 6.94587 86.0717 7.02044 85.9637 7.10554H85.5841L85.1352 7.76043L85.2804 8.1108C85.2361 8.24052 85.2051 8.37437 85.188 8.51029L84.8579 8.81481L84.9965 9.58104L85.4124 9.75131C85.4754 9.86801 85.5507 9.97777 85.6369 10.0788V10.4553L86.2971 10.9006L86.6503 10.7566C86.7824 10.7992 86.9183 10.8288 87.0563 10.845L87.3599 11.1724L88.096 11.0022ZM86.4456 8.8803C86.4144 8.70945 86.435 8.53325 86.5047 8.37401C86.5745 8.21476 86.6903 8.07963 86.8376 7.98571C86.9848 7.89179 87.1568 7.8433 87.3318 7.84638C87.5068 7.84947 87.6769 7.90398 87.8207 8.00303C87.9645 8.10208 88.0754 8.24121 88.1394 8.40282C88.2034 8.56442 88.2177 8.74123 88.1803 8.91087C88.143 9.08052 88.0558 9.23537 87.9298 9.35583C87.8037 9.47629 87.6445 9.55695 87.4722 9.58759C87.2416 9.62772 87.0044 9.57592 86.8122 9.44347C86.62 9.31101 86.4882 9.10862 86.4456 8.8803Z" fill="#407BFF"/>
<path d="M79.0549 8.83116L78.8008 8.61831C79.3455 7.94815 80.0186 7.39169 80.7813 6.98108L80.9364 7.26923C80.2111 7.66099 79.5715 8.19193 79.0549 8.83116Z" fill="#407BFF"/>
<path d="M81.689 6.96807L81.5603 6.66682C82.7792 6.14134 84.1121 5.9296 85.4355 6.05122L85.4025 6.37866C84.1343 6.26008 82.8566 6.46289 81.689 6.96807Z" fill="#407BFF"/>
<path d="M81.0653 9.23401L80.7947 9.05064C81.5899 7.98534 82.7473 7.24198 84.0526 6.95825L84.1153 7.2857C82.8955 7.54996 81.8126 8.24171 81.0653 9.23401Z" fill="#407BFF"/>
<path d="M59.161 40.7606C59.116 40.7593 59.0733 40.7404 59.0421 40.7082L58.3523 40.0009C58.0005 39.9693 57.6525 39.9057 57.3125 39.811L56.2331 40.2825C56.2093 40.2954 56.1826 40.3022 56.1555 40.3022C56.1284 40.3022 56.1018 40.2954 56.078 40.2825L54.2691 39.0939C54.2458 39.0786 54.2268 39.0576 54.2141 39.033C54.2014 39.0083 54.1953 38.9808 54.1965 38.9531V37.7874C53.9757 37.5134 53.7812 37.2196 53.6155 36.9098L52.688 36.5562C52.662 36.5462 52.639 36.5298 52.6211 36.5086C52.6032 36.4875 52.591 36.4621 52.5857 36.435L52.1566 34.3262C52.1509 34.2993 52.1522 34.2714 52.1602 34.2451C52.1683 34.2187 52.1829 34.1948 52.2028 34.1756L52.9158 33.4913C52.9499 33.1427 53.0139 32.7976 53.1072 32.4598L52.6319 31.389C52.6189 31.3654 52.6121 31.339 52.6121 31.3121C52.6121 31.2852 52.6189 31.2587 52.6319 31.2351L53.8301 29.4407C53.845 29.4171 53.866 29.3979 53.891 29.3852C53.916 29.3726 53.944 29.3668 53.972 29.3687L55.1471 29.3851C55.4225 29.165 55.7187 28.972 56.0318 28.8088L56.3916 27.8886C56.4011 27.8631 56.4169 27.8404 56.4377 27.8226C56.4585 27.8049 56.4835 27.7927 56.5104 27.7871L58.6361 27.3614C58.6633 27.3555 58.6915 27.3566 58.7181 27.3646C58.7447 27.3726 58.7688 27.3873 58.788 27.4073L59.4778 28.1146C59.8306 28.1465 60.1797 28.2101 60.5209 28.3045L61.597 27.833C61.6214 27.8201 61.6486 27.8133 61.6762 27.8133C61.7038 27.8133 61.731 27.8201 61.7554 27.833L63.561 29.0216C63.5839 29.0375 63.6027 29.0586 63.6159 29.083C63.6291 29.1075 63.6363 29.1347 63.6369 29.1624L63.6171 30.3281C63.8389 30.602 64.0345 30.8958 64.2013 31.2057L65.1256 31.5626C65.1513 31.572 65.1742 31.5878 65.1921 31.6084C65.21 31.629 65.2223 31.6538 65.2279 31.6805L65.6603 33.7892C65.6654 33.8162 65.6639 33.8439 65.6558 33.8702C65.6478 33.8964 65.6335 33.9203 65.6141 33.9399L64.8978 34.6275C64.8648 34.9752 64.8008 35.3193 64.7064 35.6557L65.1817 36.7264C65.1947 36.7506 65.2015 36.7776 65.2015 36.805C65.2015 36.8324 65.1947 36.8594 65.1817 36.8836L64 38.6616C63.9845 38.6839 63.9638 38.7021 63.9396 38.7146C63.9155 38.7272 63.8886 38.7337 63.8614 38.7337L62.683 38.7173C62.4066 38.9344 62.1117 39.1273 61.8016 39.2936L61.4418 40.2137C61.432 40.2397 61.4156 40.2627 61.3942 40.2804C61.3728 40.2982 61.3472 40.3102 61.3197 40.3153L59.194 40.7606H59.161ZM57.3026 39.4508C57.3178 39.4478 57.3335 39.4478 57.3488 39.4508C57.7053 39.5538 58.0713 39.6207 58.4414 39.6505C58.481 39.6552 58.5181 39.6724 58.547 39.6996L59.2072 40.3873L61.1547 39.9976L61.5046 39.1004C61.5208 39.0642 61.5486 39.0342 61.5838 39.0153C61.9135 38.8462 62.2244 38.6431 62.5113 38.4095C62.5416 38.3841 62.5806 38.3712 62.6202 38.3735L63.7656 38.3899L64.8615 36.7526L64.3994 35.7113C64.3863 35.6754 64.3863 35.636 64.3994 35.6C64.5015 35.246 64.5689 34.883 64.6007 34.5162C64.6041 34.4765 64.6217 34.4393 64.6503 34.4114L65.3434 33.7565L64.9506 31.8245L64.0495 31.4775C64.0108 31.4635 63.9789 31.4354 63.9604 31.3989C63.7891 31.0722 63.5845 30.7639 63.3497 30.4787C63.3262 30.4488 63.3134 30.4119 63.3134 30.374V29.2344L61.663 28.1473L60.6166 28.6057C60.5793 28.619 60.5384 28.619 60.5011 28.6057C60.1434 28.5033 59.7763 28.4364 59.4052 28.406C59.3656 28.4014 59.3285 28.3841 59.2996 28.3569L58.6394 27.6692L56.6919 28.0622L56.3453 28.9725C56.3315 29.01 56.3046 29.0414 56.2694 29.0609C55.9384 29.2296 55.6264 29.4327 55.3386 29.6667C55.3243 29.6794 55.3076 29.6892 55.2895 29.6954C55.2713 29.7016 55.2521 29.7041 55.233 29.7027L54.0876 29.6863L52.9884 31.3236L53.4505 32.3648C53.4611 32.3868 53.4665 32.4109 53.4665 32.4352C53.4665 32.4596 53.4611 32.4836 53.4505 32.5056C53.3527 32.8513 53.2886 33.2055 53.2591 33.5633C53.256 33.603 53.2384 33.6403 53.2095 33.6681L52.5164 34.323L52.9125 36.2549L53.8103 36.602C53.8504 36.6185 53.8832 36.6487 53.9027 36.6871C54.0729 37.0116 54.2764 37.3177 54.5101 37.6007C54.5346 37.6301 54.5475 37.6674 54.5464 37.7055V38.845L56.1968 39.9321L57.2465 39.4737C57.2637 39.4628 57.2827 39.4551 57.3026 39.4508ZM58.9233 38.3899C58.1288 38.3892 57.3493 38.1749 56.6678 37.7699C55.9862 37.3648 55.428 36.7841 55.0525 36.0896C54.677 35.395 54.4983 34.6124 54.5353 33.8251C54.5723 33.0378 54.8237 32.2752 55.2627 31.6183C55.6826 30.988 56.2602 30.4767 56.939 30.1343C57.6178 29.7919 58.3745 29.6301 59.1352 29.6647C59.896 29.6994 60.6346 29.9293 61.2789 30.332C61.9232 30.7347 62.4511 31.2964 62.811 31.9622C63.1709 32.6279 63.3505 33.3749 63.3321 34.1302C63.3138 34.8854 63.0982 35.6229 62.7063 36.2707C62.3145 36.9185 61.76 37.4543 61.0969 37.8258C60.4338 38.1972 59.6848 38.3916 58.9233 38.3899ZM55.5399 31.7984C55.0956 32.4634 54.8601 33.2441 54.863 34.0419C54.866 34.8397 55.1074 35.6187 55.5566 36.2805C56.0058 36.9422 56.6428 37.4569 57.3869 37.7596C58.131 38.0623 58.9488 38.1393 59.7371 37.9809C60.5253 37.8225 61.2484 37.4358 61.8151 36.8697C62.3818 36.3036 62.7666 35.5836 62.9208 34.8006C63.075 34.0176 62.9917 33.2068 62.6815 32.4707C62.3712 31.7347 61.8479 31.1064 61.1778 30.6654C60.7333 30.3703 60.2344 30.1654 59.7097 30.0626C59.185 29.9599 58.645 29.9612 58.1209 30.0665C57.5967 30.1718 57.0988 30.3791 56.6558 30.6764C56.2128 30.9736 55.8336 31.3549 55.5399 31.7984Z" fill="white"/>
<path d="M122.039 47.8498L116.856 47.1556L120.283 21.6769L110.288 20.3409L86.0429 42.4829L84.7688 51.956L105.66 54.7524L104.617 62.503L114.612 63.839L115.655 56.0916L120.837 56.7858L122.039 47.8498ZM95.8233 44.3395L108.617 32.7708L106.861 45.8163L95.8233 44.3395Z" fill="#49DFD7"/>
<path d="M111.575 63.5967H111.532C111.489 63.5887 111.451 63.5643 111.427 63.5287C111.402 63.4931 111.392 63.4493 111.4 63.4068L119.124 21.5132C119.133 21.4711 119.158 21.434 119.193 21.4096C119.229 21.3853 119.273 21.3754 119.315 21.3822C119.358 21.3902 119.396 21.4146 119.421 21.4502C119.446 21.4858 119.455 21.5296 119.448 21.5721L111.737 63.4624C111.73 63.5003 111.711 63.5347 111.681 63.5593C111.651 63.584 111.614 63.5972 111.575 63.5967Z" fill="#44494B"/>
<path d="M118.408 22.2172C118.405 22.2884 118.374 22.3557 118.321 22.4042C118.269 22.4527 118.199 22.4785 118.127 22.4759C118.055 22.4733 117.988 22.4425 117.939 22.3903C117.89 22.3381 117.864 22.2688 117.866 22.1976C117.869 22.1264 117.9 22.0591 117.953 22.0106C118.005 21.9621 118.075 21.9363 118.147 21.9389C118.219 21.9415 118.287 21.9723 118.335 22.0245C118.384 22.0767 118.41 22.146 118.408 22.2172Z" fill="#44494B"/>
<path d="M117.308 27.882C117.306 27.9351 117.289 27.9863 117.257 28.0294C117.226 28.0724 117.182 28.1052 117.132 28.1237C117.082 28.1422 117.028 28.1455 116.975 28.1333C116.923 28.121 116.876 28.0937 116.84 28.0548C116.803 28.0159 116.779 27.9672 116.771 27.9148C116.762 27.8624 116.77 27.8086 116.792 27.7603C116.814 27.7121 116.85 27.6714 116.896 27.6435C116.941 27.6156 116.994 27.6018 117.048 27.6037C117.083 27.605 117.118 27.6132 117.151 27.6278C117.183 27.6425 117.212 27.6634 117.236 27.6892C117.26 27.7151 117.279 27.7454 117.292 27.7785C117.304 27.8116 117.31 27.8467 117.308 27.882Z" fill="#44494B"/>
<path d="M116.209 33.5567C116.208 33.592 116.2 33.6267 116.185 33.6588C116.17 33.6908 116.149 33.7197 116.123 33.7438C116.097 33.7678 116.066 33.7865 116.033 33.7988C116 33.8111 115.964 33.8167 115.929 33.8154C115.893 33.8146 115.858 33.8067 115.826 33.7924C115.794 33.7781 115.765 33.7575 115.74 33.7319C115.716 33.7064 115.697 33.6762 115.685 33.6434C115.672 33.6105 115.667 33.5754 115.668 33.5403C115.669 33.5048 115.677 33.4698 115.691 33.4373C115.706 33.4048 115.727 33.3755 115.753 33.3512C115.779 33.3268 115.81 33.3078 115.843 33.2953C115.877 33.2828 115.913 33.2771 115.948 33.2784C116.02 33.2818 116.087 33.3128 116.136 33.3648C116.185 33.4168 116.211 33.4857 116.209 33.5567Z" fill="#44494B"/>
<path d="M114.044 39.4508C114.036 39.5165 114.005 39.5772 113.955 39.6213C113.906 39.6654 113.841 39.6897 113.775 39.6897C113.708 39.6897 113.644 39.6654 113.594 39.6213C113.545 39.5772 113.513 39.5165 113.506 39.4508C113.502 39.4133 113.505 39.3753 113.517 39.3393C113.529 39.3034 113.548 39.2703 113.573 39.2421C113.599 39.214 113.63 39.1915 113.664 39.1761C113.699 39.1607 113.737 39.1527 113.775 39.1527C113.813 39.1527 113.851 39.1607 113.885 39.1761C113.92 39.1915 113.951 39.214 113.976 39.2421C114.002 39.2703 114.021 39.3034 114.033 39.3393C114.044 39.3753 114.048 39.4133 114.044 39.4508Z" fill="#44494B"/>
<path d="M114.008 44.8765C114.007 44.9119 113.999 44.9468 113.984 44.9791C113.97 45.0114 113.949 45.0405 113.922 45.0646C113.896 45.0887 113.866 45.1074 113.832 45.1195C113.798 45.1316 113.763 45.137 113.727 45.1352C113.674 45.1332 113.622 45.1156 113.579 45.0845C113.535 45.0534 113.502 45.0102 113.484 44.9604C113.465 44.9107 113.462 44.8565 113.474 44.8049C113.486 44.7532 113.514 44.7064 113.553 44.6702C113.592 44.6341 113.641 44.6103 113.694 44.6018C113.747 44.5934 113.801 44.6006 113.85 44.6227C113.898 44.6448 113.939 44.6807 113.968 44.7259C113.996 44.771 114.01 44.8235 114.008 44.8765Z" fill="#44494B"/>
<path d="M112.908 50.5413C112.907 50.5946 112.89 50.6462 112.859 50.6896C112.828 50.7331 112.785 50.7665 112.734 50.7855C112.684 50.8044 112.63 50.8082 112.577 50.7963C112.525 50.7844 112.477 50.7574 112.441 50.7186C112.404 50.6798 112.38 50.6311 112.371 50.5785C112.362 50.526 112.369 50.4721 112.391 50.4236C112.414 50.3752 112.45 50.3343 112.495 50.3063C112.541 50.2783 112.594 50.2644 112.648 50.2663C112.719 50.2689 112.786 50.2992 112.835 50.3507C112.884 50.4022 112.91 50.4707 112.908 50.5413Z" fill="#44494B"/>
<path d="M111.809 56.2063C111.807 56.2778 111.776 56.3454 111.723 56.3944C111.671 56.4435 111.601 56.47 111.529 56.4682C111.493 56.4669 111.458 56.4587 111.426 56.4441C111.394 56.4294 111.364 56.4085 111.34 56.3827C111.316 56.3568 111.297 56.3265 111.285 56.2934C111.272 56.2603 111.267 56.2251 111.268 56.1899C111.269 56.1546 111.277 56.1199 111.292 56.0878C111.306 56.0556 111.327 56.0266 111.353 56.0024C111.379 55.9782 111.409 55.9594 111.443 55.9469C111.476 55.9344 111.511 55.9285 111.547 55.9296C111.582 55.9306 111.617 55.9386 111.65 55.9531C111.682 55.9676 111.712 55.9883 111.736 56.014C111.76 56.0397 111.779 56.0699 111.792 56.1029C111.804 56.1359 111.81 56.171 111.809 56.2063Z" fill="#44494B"/>
<path d="M110.707 61.8743C110.705 61.9274 110.687 61.9787 110.656 62.0217C110.624 62.0647 110.581 62.0975 110.53 62.116C110.48 62.1345 110.426 62.1378 110.374 62.1256C110.322 62.1133 110.274 62.086 110.238 62.0471C110.202 62.0082 110.178 61.9595 110.169 61.9071C110.16 61.8547 110.168 61.8009 110.19 61.7527C110.212 61.7044 110.248 61.6637 110.294 61.6358C110.34 61.608 110.392 61.5941 110.446 61.596C110.482 61.5968 110.517 61.6047 110.549 61.6193C110.582 61.6338 110.611 61.6546 110.635 61.6806C110.66 61.7065 110.679 61.737 110.691 61.7703C110.703 61.8036 110.708 61.839 110.707 61.8743Z" fill="#44494B"/>
<path d="M113.773 39.5981C113.736 39.5982 113.7 39.5855 113.671 39.5622C113.642 39.539 113.622 39.5065 113.615 39.4704C113.61 39.4494 113.609 39.4275 113.613 39.4062C113.617 39.3849 113.625 39.3645 113.636 39.3463C113.648 39.328 113.663 39.3122 113.681 39.2998C113.699 39.2874 113.719 39.2786 113.74 39.274L114.559 39.1004C114.58 39.0956 114.602 39.0952 114.624 39.099C114.646 39.1029 114.666 39.111 114.685 39.1229C114.703 39.1348 114.719 39.1502 114.732 39.1683C114.744 39.1864 114.753 39.2067 114.757 39.2281C114.761 39.2492 114.761 39.2709 114.757 39.292C114.753 39.3131 114.745 39.3332 114.733 39.3512C114.721 39.3691 114.705 39.3846 114.688 39.3966C114.67 39.4086 114.649 39.417 114.628 39.4213L113.81 39.5949L113.773 39.5981Z" fill="#44494B"/>
<path d="M116.51 36.5823C116.12 37.5841 115.79 38.6075 115.519 39.6472C115.272 40.8031 115.259 43.3899 115.259 43.3899" fill="#44494B"/>
<path d="M115.259 43.5536C115.215 43.552 115.173 43.5337 115.143 43.5027C115.112 43.4716 115.094 43.4301 115.094 43.3866C115.094 43.2818 115.113 40.767 115.361 39.6144C115.63 38.5657 115.96 37.5335 116.351 36.5233C116.358 36.5018 116.369 36.4818 116.383 36.4647C116.398 36.4476 116.416 36.4336 116.437 36.4238C116.457 36.4139 116.479 36.4083 116.502 36.4074C116.525 36.4064 116.547 36.4101 116.569 36.4183C116.59 36.4264 116.609 36.4388 116.625 36.4546C116.641 36.4705 116.654 36.4895 116.662 36.5104C116.671 36.5313 116.675 36.5537 116.674 36.5762C116.673 36.5988 116.668 36.6209 116.658 36.6412C116.269 37.6354 115.938 38.6511 115.668 39.6832C115.427 40.8096 115.41 43.3637 115.407 43.3899C115.407 43.4306 115.392 43.47 115.365 43.5002C115.337 43.5305 115.299 43.5495 115.259 43.5536Z" fill="#44494B"/>
<path d="M54.9062 71.8157C55.3651 64.4809 54.5234 51.144 68.4232 52.9122C83.3199 54.8016 79.0585 72.0842 79.0585 72.0842L54.9062 71.8157Z" fill="#44494B"/>
<path d="M64.4983 67.4083C67.849 67.4083 70.5653 64.7137 70.5653 61.3898C70.5653 58.0659 67.849 55.3713 64.4983 55.3713C61.1477 55.3713 58.4314 58.0659 58.4314 61.3898C58.4314 64.7137 61.1477 67.4083 64.4983 67.4083Z" fill="white"/>
<path d="M65.2973 55.3811C62.4223 54.8965 59.3558 56.9954 59.0488 59.1238L70.44 60.1651C70.0373 57.7387 67.5749 55.7675 65.2973 55.3811Z" fill="#44494B"/>
<path d="M69.1427 61.2392C69.0601 62.8142 68.1953 64.0487 67.2117 63.9963C66.228 63.9439 65.4952 62.6308 65.5613 61.0492C65.6273 59.4677 66.5086 58.2398 67.4922 58.2921C68.4759 58.3445 69.2219 59.6674 69.1427 61.2392Z" fill="#44494B"/>
<path d="M64.4983 67.7357C63.2331 67.7357 61.9963 67.3635 60.9443 66.6662C59.8924 65.9689 59.0724 64.9778 58.5883 63.8182C58.1041 62.6587 57.9774 61.3827 58.2242 60.1517C58.4711 58.9207 59.0803 57.79 59.975 56.9025C60.8696 56.015 62.0095 55.4106 63.2504 55.1658C64.4913 54.9209 65.7775 55.0466 66.9464 55.5269C68.1153 56.0072 69.1144 56.8206 69.8173 57.8641C70.5202 58.9077 70.8954 60.1346 70.8954 61.3897C70.8936 63.0723 70.2191 64.6854 69.0198 65.8751C67.8205 67.0648 66.1944 67.7339 64.4983 67.7357ZM64.4983 55.6987C63.3637 55.6987 62.2545 56.0325 61.3111 56.6578C60.3677 57.2832 59.6324 58.172 59.1982 59.2119C58.764 60.2518 58.6504 61.3961 58.8717 62.5C59.0931 63.604 59.6395 64.618 60.4418 65.4139C61.2441 66.2098 62.2663 66.7518 63.3791 66.9714C64.492 67.191 65.6455 67.0783 66.6938 66.6476C67.742 66.2168 68.638 65.4874 69.2684 64.5515C69.8987 63.6156 70.2352 62.5153 70.2352 61.3897C70.2335 59.8809 69.6285 58.4344 68.553 57.3675C67.4775 56.3006 66.0193 55.7005 64.4983 55.6987Z" fill="#407BFF"/>
<path opacity="0.3" d="M77.3651 71.6324H77.3255C77.3043 71.6278 77.2842 71.619 77.2665 71.6065C77.2488 71.5941 77.2338 71.5782 77.2224 71.5599C77.211 71.5416 77.2034 71.5211 77.2001 71.4998C77.1969 71.4785 77.198 71.4568 77.2033 71.4359C77.2033 71.3934 78.2662 66.9532 77.1736 62.4639C77.1631 62.4205 77.1704 62.3747 77.194 62.3366C77.2175 62.2985 77.2553 62.2713 77.2991 62.2609C77.3428 62.2505 77.389 62.2577 77.4274 62.281C77.4658 62.3044 77.4932 62.3419 77.5037 62.3853C78.6161 66.9696 77.5433 71.4687 77.5334 71.5113C77.5236 71.5475 77.5016 71.5794 77.4709 71.6014C77.4403 71.6235 77.4029 71.6344 77.3651 71.6324Z" fill="white"/>
<path opacity="0.3" d="M76.4441 60.0015C76.4125 60.0011 76.3815 59.992 76.3547 59.9753C76.3279 59.9585 76.3063 59.9347 76.2923 59.9065C75.8821 59.007 75.3562 58.1639 74.7277 57.3983C74.7003 57.3648 74.6874 57.3219 74.6917 57.279C74.6961 57.236 74.7173 57.1965 74.7508 57.1691C74.7676 57.1551 74.7871 57.1446 74.808 57.1382C74.829 57.1318 74.851 57.1296 74.8728 57.1318C74.8946 57.1339 74.9158 57.1403 74.9351 57.1507C74.9544 57.161 74.9714 57.1751 74.9852 57.192C75.6291 57.9798 76.1693 58.8458 76.5927 59.769C76.6021 59.7883 76.6075 59.8093 76.6086 59.8307C76.6097 59.8521 76.6064 59.8735 76.599 59.8936C76.5917 59.9138 76.5803 59.9323 76.5656 59.948C76.5509 59.9637 76.5331 59.9763 76.5134 59.9851C76.4917 59.9951 76.4681 60.0007 76.4441 60.0015Z" fill="white"/>
<path d="M23.9706 106.224H23.8485C23.4108 106.212 22.9959 106.028 22.695 105.712C22.3942 105.396 22.232 104.975 22.2443 104.541C22.2566 104.107 22.4422 103.695 22.7604 103.396C23.0786 103.098 23.5032 102.937 23.9409 102.949H23.9706C24.9246 102.949 27.2187 101.8 32.0181 94.2949C32.1455 94.0956 32.3148 93.926 32.5145 93.7976C32.7142 93.6693 32.9394 93.5853 33.1749 93.5514C33.4103 93.5175 33.6504 93.5345 33.8786 93.6012C34.1068 93.668 34.3178 93.7828 34.497 93.938C38.2661 97.1522 42.3768 99.9498 46.7563 102.281C46.959 102.373 47.141 102.504 47.2912 102.667C47.4414 102.83 47.5568 103.022 47.6305 103.23C47.7042 103.438 47.7346 103.659 47.7199 103.88C47.7052 104.1 47.6457 104.315 47.5449 104.512C47.4442 104.709 47.3043 104.884 47.1337 105.026C46.9631 105.168 46.7654 105.274 46.5523 105.338C46.3392 105.403 46.1153 105.423 45.894 105.399C45.6726 105.375 45.4585 105.307 45.2644 105.199C41.194 103.053 37.3465 100.515 33.7774 97.6218C29.7537 103.63 26.7698 106.224 23.9706 106.224Z" fill="#44494B"/>
<path d="M34.1835 93.6433H34.0416C33.7822 93.606 33.5483 93.4682 33.3911 93.2602C33.234 93.0521 33.1664 92.7907 33.2032 92.5333C33.4375 90.896 33.1471 84.7957 31.0642 80.0477C30.9718 79.8379 30.9562 79.6026 31.0201 79.3826C31.084 79.1626 31.2234 78.9716 31.4141 78.8427C35.9363 75.7876 45.5681 75.4209 45.9774 75.4078C46.1075 75.4035 46.2371 75.4246 46.3589 75.47C46.4807 75.5154 46.5923 75.5842 46.6873 75.6723C46.7823 75.7605 46.8589 75.8664 46.9127 75.9839C46.9664 76.1015 46.9964 76.2284 47.0007 76.3574C47.005 76.4864 46.9837 76.615 46.9379 76.7358C46.8922 76.8566 46.8229 76.9673 46.734 77.0616C46.6451 77.1558 46.5384 77.2318 46.4199 77.2851C46.3014 77.3385 46.1735 77.3682 46.0434 77.3725C45.9543 77.3725 37.5339 77.6999 33.2098 80.0575C35.0516 84.7859 35.4709 90.6766 35.1639 92.8083C35.1283 93.0409 35.0098 93.2531 34.8299 93.4063C34.65 93.5595 34.4206 93.6436 34.1835 93.6433Z" fill="#44494B"/>
<path d="M35.8471 92.3728C35.1869 90.8305 32.2162 91.0041 30.4766 92.327C29.5458 93.031 28.2849 95.1561 28.166 95.9289C28.1264 96.1125 28.1323 96.3029 28.1833 96.4837C28.2343 96.6646 28.3288 96.8304 28.4587 96.967C28.5886 97.1036 28.75 97.2068 28.929 97.2678C29.108 97.3289 29.2993 97.3458 29.4864 97.3172C30.6252 97.219 32.1865 95.5785 32.1865 95.5785C31.1467 96.5903 32.4901 97.3041 34.497 95.8405C35.5929 95.0251 36.5832 94.0984 35.8471 92.3728Z" fill="#407BFF"/>
<path d="M92.6217 72.248C92.6065 72.2514 92.5907 72.2514 92.5755 72.248C92.5544 72.2424 92.5347 72.2326 92.5176 72.2192C92.5005 72.2058 92.4862 72.1892 92.4757 72.1702C92.4653 72.1512 92.4587 72.1304 92.4566 72.1089C92.4544 72.0873 92.4567 72.0656 92.4633 72.045C92.9023 70.5256 93.3809 69.5989 94.0113 69.0979C93.9125 68.7458 93.9311 68.3713 94.0642 68.0305C94.2171 67.632 94.4888 67.2893 94.8432 67.0481C94.747 66.9451 94.6788 66.8196 94.6447 66.6833C94.6106 66.5471 94.6119 66.4044 94.6484 66.2688C94.7679 65.8586 95.0152 65.4964 95.3548 65.2341C95.2323 65.0982 95.1652 64.9219 95.1666 64.7396C95.1666 63.7573 96.9854 62.2772 99.0484 61.9956C99.0922 61.9895 99.1366 62.001 99.1719 62.0274C99.2072 62.0538 99.2304 62.093 99.2366 62.1364C99.2427 62.1798 99.2312 62.2239 99.2046 62.2589C99.178 62.2939 99.1384 62.317 99.0946 62.3231C97.1339 62.5883 95.4901 63.9963 95.4967 64.7396C95.496 64.8504 95.5386 64.9572 95.6156 65.0376C96.0596 64.7389 96.5591 64.5309 97.0851 64.4258C97.611 64.3206 98.1527 64.3205 98.6787 64.4253C99.6921 64.6185 100.105 64.8313 100.058 65.1358C99.9661 65.7089 97.8106 65.83 96.3648 65.6597C96.1059 65.6364 95.8538 65.5642 95.6222 65.4469C95.3109 65.6667 95.0794 65.9802 94.962 66.3408C94.9337 66.4363 94.9339 66.5378 94.9626 66.6331C94.9913 66.7284 95.0473 66.8135 95.1237 66.8779C95.7377 66.5504 96.5992 66.4325 97.738 66.6814C99.2333 67.0088 99.2894 67.1889 99.3257 67.297C99.3373 67.3352 99.3383 67.3758 99.3284 67.4144C99.3185 67.4531 99.2982 67.4883 99.2696 67.5164C98.956 67.8438 96.6619 67.6899 95.5099 67.4083C95.3708 67.3769 95.2365 67.3273 95.1105 67.261C94.7695 67.4665 94.5071 67.7787 94.3645 68.1483C94.2692 68.3875 94.2429 68.6483 94.2886 68.9015C94.3474 68.8666 94.408 68.8349 94.4702 68.8065C95.1534 68.4791 95.9786 68.538 96.9986 68.9702C97.6588 69.2551 97.9889 69.5105 98.0219 69.7692C98.0233 69.8356 98.0066 69.9011 97.9734 69.9587C97.9403 70.0164 97.892 70.0641 97.8337 70.0967C97.3287 70.4241 95.566 70.3783 94.6484 69.8936C94.4374 69.7799 94.2616 69.6112 94.1401 69.4057C93.602 69.8969 93.1663 70.7712 92.7702 72.1432C92.7582 72.173 92.7378 72.1987 92.7115 72.2173C92.6852 72.2358 92.654 72.2465 92.6217 72.248ZM94.4107 69.1929C94.5027 69.3623 94.6427 69.5012 94.8135 69.5924C95.5594 69.9853 97.025 70.0737 97.5729 69.8543C97.6852 69.8085 97.7017 69.7725 97.7017 69.7725C97.7017 69.7725 97.6852 69.5891 96.8765 69.2453C95.9522 68.8524 95.226 68.7967 94.622 69.075C94.5491 69.1098 94.4786 69.1492 94.4107 69.1929ZM95.5132 67.0416L95.5957 67.0645C96.6707 67.3102 97.7769 67.393 98.8768 67.3101C98.4866 67.1665 98.0846 67.0569 97.6753 66.9826C96.9644 66.7916 96.2125 66.8121 95.5132 67.0416ZM95.9291 65.2013C96.0815 65.2555 96.24 65.2907 96.4012 65.3061C98.0516 65.4993 99.5006 65.2734 99.702 65.0671C99.6459 65.018 99.4247 64.8771 98.6061 64.7232C97.685 64.541 96.7284 64.7118 95.9291 65.2013Z" fill="#44494B"/>
<path d="M49.6512 105.677C49.869 105.608 49.7964 105.399 49.5521 105.399H45.0828C36.5732 104.505 30.6284 105.703 34.3749 105.985C38.1213 106.266 34.1108 106.208 31.3744 107.236C28.638 108.264 51.7241 108.523 53.8201 107.236C55.7478 106.05 46.6342 106.636 49.6512 105.677Z" fill="#44494B"/>
<path d="M81.6496 106.984L42.7657 105.703L41.1516 68.3022L87.0696 69.3206L81.6496 106.984Z" fill="#0A7FFA"/>
<path d="M54.9061 106.266C54.8646 106.267 54.8245 106.251 54.7939 106.223C54.7633 106.195 54.7444 106.157 54.7411 106.116L51.6251 68.551C51.6223 68.5078 51.6366 68.4651 51.665 68.4321C51.6933 68.3991 51.7334 68.3784 51.7769 68.3742C51.8203 68.3723 51.8629 68.3867 51.896 68.4147C51.929 68.4426 51.9502 68.482 51.9552 68.5248L55.0877 106.09C55.0895 106.111 55.087 106.133 55.0803 106.153C55.0737 106.174 55.063 106.193 55.0488 106.209C55.0347 106.226 55.0175 106.239 54.9981 106.249C54.9787 106.259 54.9575 106.265 54.9358 106.266H54.9061Z" fill="#44494B"/>
<path d="M81.6497 106.984L92.1001 105.405L95.3911 70.6271L87.0696 69.3206L81.6497 106.984Z" fill="#407BFF"/>
<path opacity="0.2" d="M81.6497 106.984L92.1001 105.405L95.3911 70.6271L87.0696 69.3206L81.6497 106.984Z" fill="black"/>
<path d="M46.0864 98.4961L45.1292 76.2723C45.1056 75.7233 45.1957 75.1753 45.3941 74.6622C45.5925 74.1491 45.8948 73.6819 46.2825 73.2894C46.6701 72.8968 47.1348 72.5873 47.6479 72.3801C48.1609 72.1728 48.7113 72.0721 49.2651 72.0842L78.3323 72.7391C78.9047 72.7519 79.4678 72.885 79.9845 73.1295C80.5013 73.374 80.9599 73.7244 81.3301 74.1576C81.7004 74.5908 81.9738 75.0969 82.1324 75.6426C82.2911 76.1883 82.3313 76.7611 82.2504 77.3234L79.0288 99.7011C78.8894 100.681 78.3902 101.576 77.627 102.213C76.8637 102.851 75.8901 103.186 74.8928 103.156L50.0078 102.337C48.9862 102.306 48.0144 101.893 47.2871 101.18C46.5598 100.468 46.1309 99.509 46.0864 98.4961Z" fill="#45494B"/>
<path d="M49.2287 78.9049L53.7244 79.0457L53.6881 80.195L50.8725 80.1066L50.8461 80.9646L53.457 81.0464L53.4207 82.1466L50.8098 82.0615L50.7768 83.1257L53.6716 83.2174L53.632 84.4355L49.0537 84.2914L49.2287 78.9049Z" fill="white"/>
<path d="M54.5596 84.465L54.7312 79.0785L57.5303 79.1669C57.9317 79.1649 58.3311 79.2223 58.7153 79.3372C58.9877 79.4277 59.2207 79.6079 59.3755 79.848C59.4902 80.0228 59.5674 80.2192 59.6023 80.425C59.6372 80.6307 59.6289 80.8413 59.5782 81.0438C59.5274 81.2462 59.4351 81.4361 59.3071 81.6016C59.1791 81.7672 59.0181 81.9048 58.8342 82.0059C58.6465 82.1017 58.4449 82.168 58.2367 82.2023C58.3902 82.2514 58.5358 82.3219 58.6691 82.4119C58.7654 82.5006 58.8517 82.5994 58.9266 82.7066C59.0116 82.8085 59.0868 82.9182 59.151 83.0341L59.9135 84.6222L58.0189 84.56L57.1738 82.8867C57.1068 82.7269 57.008 82.5822 56.8834 82.461C56.7649 82.376 56.6235 82.3281 56.4774 82.3235H56.3288L56.2595 84.5076L54.5596 84.465ZM56.3486 81.315L57.055 81.3379C57.205 81.3288 57.354 81.308 57.5006 81.2757C57.6111 81.259 57.7113 81.2017 57.7812 81.1152C57.8526 81.0279 57.8932 80.9198 57.8967 80.8074C57.903 80.7325 57.8923 80.6572 57.8655 80.587C57.8386 80.5167 57.7963 80.4533 57.7416 80.4014C57.5574 80.2833 57.3399 80.2271 57.121 80.2409L56.3816 80.218L56.3486 81.315Z" fill="white"/>
<path d="M60.4614 84.6386L60.6331 79.2521L63.4289 79.3405C63.8302 79.3382 64.2297 79.3955 64.6139 79.5108C64.8868 79.6003 65.1201 79.7808 65.2741 80.0216C65.4416 80.284 65.5202 80.5926 65.4985 80.9024C65.4995 81.1637 65.4291 81.4204 65.2948 81.6453C65.1606 81.8701 64.9675 82.0547 64.736 82.1795C64.5485 82.275 64.3468 82.3402 64.1386 82.3726C64.2907 82.4238 64.4351 82.4954 64.5677 82.5855C64.6663 82.6716 64.7539 82.7695 64.8284 82.8769C64.9128 82.9793 64.9879 83.0889 65.0529 83.2044L65.8154 84.7892L63.9207 84.7303L63.0757 83.057C63.0082 82.8975 62.9094 82.7528 62.7852 82.6313C62.6673 82.543 62.5237 82.4948 62.3759 82.4938H62.2307L62.1581 84.6812L60.4614 84.6386ZM62.2472 81.4885L62.9569 81.5082C63.1069 81.5025 63.2561 81.4828 63.4025 81.4493C63.5122 81.433 63.6115 81.3756 63.6797 81.2888C63.7537 81.203 63.7946 81.0939 63.7953 80.981C63.8024 80.9063 63.7925 80.8311 63.7662 80.7607C63.7399 80.6904 63.6979 80.6269 63.6434 80.575C63.4593 80.454 63.2397 80.3975 63.0196 80.4145L62.2835 80.3916L62.2472 81.4885Z" fill="white"/>
<path d="M66.0862 82.1368C66.0607 81.7609 66.1194 81.3841 66.2582 81.0334C66.397 80.6828 66.6123 80.367 66.8888 80.1087C67.1653 79.8504 67.496 79.6561 67.8571 79.5396C68.2183 79.4232 68.601 79.3876 68.9777 79.4354C69.3578 79.4229 69.7367 79.4863 70.0916 79.6219C70.4466 79.7574 70.7705 79.9624 71.044 80.2245C71.2882 80.5034 71.4726 80.8287 71.5861 81.1805C71.6996 81.5323 71.7398 81.9034 71.7042 82.2711C71.7069 82.806 71.5801 83.3338 71.3345 83.8101C71.1119 84.1998 70.7791 84.5162 70.3773 84.7204C69.9036 84.945 69.3794 85.0443 68.8556 85.0085C68.3333 85.0129 67.8167 84.901 67.3438 84.6811C66.9412 84.4644 66.6126 84.1339 66.3997 83.7315C66.1501 83.2384 66.0417 82.6868 66.0862 82.1368ZM67.763 82.1958C67.7135 82.6085 67.8078 83.0256 68.0304 83.3778C68.1344 83.4931 68.2608 83.5864 68.402 83.6521C68.5432 83.7179 68.6963 83.7547 68.8522 83.7605C69.008 83.7664 69.1635 83.741 69.3092 83.6859C69.455 83.6308 69.5881 83.5472 69.7006 83.4401C69.9453 83.0725 70.0612 82.6352 70.0307 82.1958C70.075 81.8011 69.978 81.4035 69.7567 81.0726C69.6566 80.9582 69.5329 80.8665 69.3939 80.8038C69.255 80.7411 69.104 80.7088 68.9513 80.7091C68.7972 80.6982 68.6427 80.7219 68.4992 80.7786C68.3557 80.8353 68.227 80.9235 68.1228 81.0366C67.8728 81.3708 67.7458 81.7799 67.763 82.1958Z" fill="white"/>
<path d="M72.5525 85.0348L72.7241 79.645L75.5199 79.7334C75.9212 79.7328 76.3204 79.7901 76.7049 79.9037C76.9766 79.9956 77.2091 80.1755 77.3651 80.4145C77.5318 80.6773 77.6104 80.9856 77.5896 81.2954C77.5911 81.5572 77.521 81.8146 77.3868 82.0401C77.2525 82.2656 77.059 82.4507 76.8271 82.5757C76.6384 82.6683 76.4371 82.7334 76.2296 82.7689C76.3823 82.8187 76.5269 82.8904 76.6587 82.9817C76.7574 83.0678 76.845 83.1657 76.9195 83.2731C77.0045 83.375 77.0797 83.4847 77.144 83.6006L77.9065 85.1887L76.0118 85.1298L75.1668 83.4532C75.0995 83.2945 75.0008 83.1508 74.8763 83.0308C74.7579 82.9429 74.6148 82.8937 74.467 82.89H74.3217L74.2491 85.0774L72.5525 85.0348ZM74.3382 81.8815L75.0479 81.9044C75.198 81.8987 75.3472 81.879 75.4935 81.8455C75.6028 81.828 75.7017 81.7708 75.7708 81.685C75.8487 81.5938 75.8899 81.4771 75.8863 81.3576C75.8935 81.2834 75.8835 81.2086 75.8572 81.1388C75.8309 81.069 75.7889 81.0061 75.7345 80.9548C75.5504 80.8338 75.3308 80.7773 75.1106 80.7944L74.3746 80.7714L74.3382 81.8815Z" fill="white"/>
<path d="M75.2229 94.1869C75.161 94.1881 75.0995 94.1762 75.0426 94.1519C74.9856 94.1276 74.9346 94.0916 74.8928 94.0461L72.0673 90.978L69.0173 93.7416C68.9328 93.8184 68.821 93.8588 68.7065 93.8539C68.592 93.849 68.4842 93.7992 68.4067 93.7154L65.5811 90.6472L62.5312 93.4109C62.4467 93.4877 62.3349 93.5281 62.2204 93.5232C62.1059 93.5183 61.998 93.4685 61.9205 93.3847L59.0917 90.3165L56.045 93.0802C56.0006 93.1201 55.9484 93.1506 55.8916 93.1697C55.8348 93.1889 55.7747 93.1963 55.7149 93.1915C55.6003 93.1847 55.4926 93.1343 55.4146 93.0507L52.589 89.9858L49.5424 92.7462C49.4573 92.8232 49.345 92.8637 49.2299 92.8587C49.1149 92.8538 49.0065 92.8039 48.9284 92.72C48.8899 92.6785 48.86 92.6298 48.8406 92.5767C48.8212 92.5237 48.8127 92.4673 48.8154 92.4109C48.8182 92.3546 48.8323 92.2993 48.8567 92.2484C48.8812 92.1974 48.9157 92.1518 48.9581 92.1142L52.325 89.0591C52.41 88.9821 52.5224 88.9417 52.6374 88.9466C52.7524 88.9515 52.8609 89.0014 52.9389 89.0853L55.7644 92.1535L58.8111 89.3899C58.8976 89.3145 59.0097 89.2747 59.1247 89.2785C59.2396 89.2846 59.3474 89.3352 59.4251 89.4193L62.2506 92.4875L65.3006 89.7238C65.3422 89.6854 65.3911 89.6556 65.4445 89.6361C65.4979 89.6165 65.5546 89.6078 65.6114 89.6102C65.6683 89.6126 65.724 89.6262 65.7755 89.6503C65.827 89.6743 65.8731 89.7082 65.9112 89.75L68.7368 92.8182L71.7867 90.0546C71.8712 89.9778 71.983 89.9374 72.0975 89.9423C72.212 89.9472 72.3199 89.997 72.3974 90.0808L75.553 93.4797C75.6094 93.5422 75.6462 93.6196 75.659 93.7026C75.6717 93.7855 75.6599 93.8703 75.6249 93.9467C75.5899 94.0231 75.5333 94.0877 75.4619 94.1327C75.3905 94.1777 75.3075 94.2011 75.2229 94.2V94.1869Z" fill="white"/>
<path d="M22.9871 107.779L20.9207 106.8L19.0789 97.9067L20.079 96.813L22.9871 107.779Z" fill="#407BFF"/>
<path d="M22.9871 107.779L25.7268 106.191L23.3766 98.8595L20.0791 96.813L22.9871 107.779Z" fill="#407BFF"/>
<path opacity="0.2" d="M22.9871 107.779L25.7268 106.191L23.3766 98.8595L20.0791 96.813L22.9871 107.779Z" fill="black"/>
<path d="M67.9609 109.397H67.7332C67.2954 109.385 66.8803 109.201 66.5792 108.886C66.278 108.571 66.1155 108.15 66.1273 107.715C66.1391 107.281 66.3243 106.869 66.6422 106.571C66.9601 106.272 67.3846 106.111 67.8223 106.122C70.3639 106.204 75.7443 104.655 78.8207 101.695C79.0064 101.514 79.2327 101.38 79.4809 101.302C84.6929 99.7502 86.6305 102.884 86.7097 103.018L83.871 104.685C83.881 104.706 83.8931 104.725 83.9073 104.744C83.8776 104.701 83.1382 103.761 80.788 104.338C76.9293 107.828 71.0076 109.397 67.9609 109.397Z" fill="#44494B"/>
<path d="M67.7596 111.571L61.7488 111.195L61.2734 100.202L69.3539 100.5L67.7596 111.571Z" fill="#407BFF"/>
<path d="M67.7598 111.571L69.1659 110.186L70.0373 103.329L69.3541 100.5L67.7598 111.571Z" fill="#407BFF"/>
<path opacity="0.2" d="M67.7598 111.571L69.1659 110.186L70.0373 103.329L69.3541 100.5L67.7598 111.571Z" fill="black"/>
<path d="M102.59 107.409C102.374 107.409 102.165 107.339 101.993 107.209C98.5597 104.623 93.9221 100.029 92.1429 95.5982C92.1162 95.5341 92.0974 95.467 92.0868 95.3984C91.2187 90.2771 90.3902 79.5009 90.3539 79.0457C90.3441 78.9167 90.3601 78.7871 90.4008 78.6642C90.4416 78.5413 90.5063 78.4276 90.5914 78.3295C90.7632 78.1315 91.0072 78.0092 91.2698 77.9897C91.5325 77.9702 91.7922 78.0549 91.9918 78.2253C92.1914 78.3957 92.3147 78.6378 92.3344 78.8984C92.3344 79.0064 93.1827 89.8875 94.0277 94.9662C95.8035 99.2754 100.629 103.699 103.197 105.644C103.363 105.769 103.485 105.942 103.545 106.138C103.606 106.335 103.604 106.546 103.537 106.741C103.471 106.936 103.344 107.106 103.175 107.226C103.007 107.345 102.804 107.41 102.597 107.409H102.59Z" fill="#44494B"/>
<path d="M107.168 107.904C106.403 107.904 105.535 107.56 104.587 106.882C104.374 106.729 104.232 106.499 104.19 106.241C104.149 105.984 104.212 105.721 104.366 105.51C104.52 105.299 104.752 105.157 105.012 105.116C105.271 105.075 105.536 105.138 105.749 105.291C106.568 105.877 107.013 105.946 107.168 105.946C107.431 105.946 107.683 106.049 107.869 106.233C108.054 106.418 108.159 106.667 108.159 106.928C108.159 107.188 108.054 107.438 107.869 107.623C107.683 107.807 107.431 107.91 107.168 107.91V107.904Z" fill="#44494B"/>
<path d="M104.864 106.853C105.924 103.732 110.268 104.348 111.767 104.813C113.047 105.181 114.274 105.709 115.421 106.384C116.229 106.908 116.242 107.789 115.163 108.29C113.843 108.906 110.489 108.359 110.489 108.359C112.219 109.109 110.489 110.323 107.449 109.132C106.462 108.745 104.491 107.999 104.864 106.853Z" fill="#407BFF"/>
<path d="M94.3216 80.3817C93.9288 83.034 91.7139 84.9889 89.9116 84.7269C88.1094 84.465 88.0368 82.1073 88.4296 79.4419C88.8224 76.7765 89.5353 74.8577 91.3376 75.1196C93.1399 75.3816 94.7144 77.7392 94.3216 80.3817Z" fill="#44494B"/>
<path d="M50.7538 69.8019C50.9033 69.8019 51.0245 69.6817 51.0245 69.5334C51.0245 69.3851 50.9033 69.2649 50.7538 69.2649C50.6043 69.2649 50.4832 69.3851 50.4832 69.5334C50.4832 69.6817 50.6043 69.8019 50.7538 69.8019Z" fill="#44494B"/>
<path d="M53.5067 71.4686C53.5067 71.5217 53.4908 71.5736 53.4611 71.6178C53.4313 71.6619 53.389 71.6963 53.3396 71.7166C53.2901 71.737 53.2357 71.7423 53.1832 71.7319C53.1307 71.7216 53.0825 71.696 53.0446 71.6584C53.0068 71.6209 52.981 71.5731 52.9705 71.521C52.9601 71.4689 52.9654 71.4149 52.9859 71.3658C53.0064 71.3168 53.0411 71.2748 53.0856 71.2453C53.1301 71.2158 53.1825 71.2001 53.236 71.2001C53.3078 71.2001 53.3766 71.2284 53.4274 71.2787C53.4782 71.3291 53.5067 71.3974 53.5067 71.4686Z" fill="#44494B"/>
<path d="M53.807 103.198C53.8112 103.236 53.8074 103.274 53.7958 103.31C53.7842 103.346 53.7651 103.379 53.7397 103.407C53.7143 103.435 53.6832 103.458 53.6484 103.473C53.6137 103.488 53.5761 103.496 53.538 103.496C53.4999 103.496 53.4623 103.488 53.4276 103.473C53.3928 103.458 53.3617 103.435 53.3363 103.407C53.3109 103.379 53.2918 103.346 53.2802 103.31C53.2686 103.274 53.2648 103.236 53.269 103.198C53.2648 103.161 53.2686 103.123 53.2802 103.087C53.2918 103.051 53.3109 103.018 53.3363 102.99C53.3617 102.961 53.3928 102.939 53.4276 102.924C53.4623 102.908 53.4999 102.9 53.538 102.9C53.5761 102.9 53.6137 102.908 53.6484 102.924C53.6832 102.939 53.7143 102.961 53.7397 102.99C53.7651 103.018 53.7842 103.051 53.7958 103.087C53.8074 103.123 53.8112 103.161 53.807 103.198Z" fill="#44494B"/>
<path d="M56.2891 105.133C56.2891 105.187 56.2733 105.239 56.2435 105.283C56.2138 105.327 56.1715 105.361 56.1221 105.382C56.0726 105.402 56.0182 105.407 55.9657 105.397C55.9132 105.386 55.8649 105.361 55.8271 105.323C55.7892 105.286 55.7634 105.238 55.753 105.186C55.7426 105.134 55.7479 105.08 55.7684 105.031C55.7889 104.982 55.8236 104.94 55.8681 104.91C55.9126 104.881 55.9649 104.865 56.0185 104.865C56.0903 104.865 56.1591 104.893 56.2099 104.944C56.2606 104.994 56.2891 105.062 56.2891 105.133Z" fill="#44494B"/>
<path d="M8.71413 108.352C8.23893 108.33 7.77478 108.203 7.356 107.979C6.93721 107.755 6.57448 107.44 6.29461 107.059C6.28089 107.041 6.27092 107.021 6.26529 107C6.25967 106.978 6.25852 106.956 6.26191 106.934C6.2653 106.912 6.27316 106.891 6.28502 106.872C6.29687 106.853 6.31246 106.837 6.33085 106.824C6.34924 106.811 6.37004 106.803 6.39198 106.798C6.41392 106.794 6.43655 106.794 6.45848 106.798C6.48041 106.803 6.50119 106.812 6.51955 106.824C6.53791 106.837 6.55347 106.853 6.56528 106.872C7.18254 107.756 8.54579 108.225 9.13994 107.946C9.19944 107.921 9.25248 107.883 9.29508 107.835C8.99486 107.704 8.73181 107.501 8.52916 107.246C8.32651 106.99 8.19051 106.688 8.13318 106.368C8.05726 105.952 7.99785 105.386 8.34113 105.314C8.81645 105.209 9.43701 106.345 9.66147 107.206C9.70213 107.349 9.71666 107.497 9.70438 107.645C9.89477 107.701 10.095 107.717 10.2919 107.691C10.3807 107.684 10.467 107.659 10.5454 107.617C10.6239 107.576 10.6927 107.518 10.7474 107.449C10.5302 107.286 10.35 107.08 10.2186 106.843C10.0872 106.607 10.0076 106.346 9.98495 106.077C9.85952 105.179 9.95525 105.025 10.0543 104.947C10.0864 104.922 10.1246 104.907 10.1649 104.903C10.2051 104.899 10.2457 104.906 10.282 104.924C10.6352 105.071 11.061 106.342 11.1435 107.062C11.1534 107.137 11.1534 107.213 11.1435 107.288C11.2859 107.342 11.4367 107.371 11.5892 107.373C11.8691 107.384 12.1459 107.312 12.3847 107.167C12.3385 107.137 12.2955 107.105 12.2526 107.072C11.9225 106.781 11.7707 106.316 11.8301 105.654C11.873 105.14 11.9919 104.858 12.1998 104.77C12.2669 104.743 12.3404 104.737 12.4113 104.75C12.4822 104.764 12.5475 104.799 12.5992 104.849C12.822 105.093 12.9886 105.382 13.0872 105.696C13.1858 106.011 13.2142 106.343 13.1703 106.669C13.1416 106.805 13.0842 106.933 13.0019 107.046C13.6093 107.151 14.4609 106.98 15.197 106.8C15.2187 106.795 15.2411 106.794 15.2632 106.798C15.2852 106.801 15.3063 106.809 15.3253 106.82C15.3443 106.832 15.3608 106.847 15.3739 106.865C15.387 106.883 15.3964 106.903 15.4016 106.925C15.4068 106.946 15.4077 106.968 15.4042 106.99C15.4007 107.012 15.3929 107.033 15.3813 107.052C15.3697 107.071 15.3544 107.087 15.3363 107.1C15.3183 107.113 15.2979 107.122 15.2762 107.128C14.3817 107.347 13.4178 107.527 12.7379 107.331C12.4059 107.581 11.9995 107.715 11.5826 107.71C11.3975 107.708 11.2144 107.674 11.0412 107.609C10.9644 107.727 10.8614 107.826 10.7401 107.898C10.6188 107.97 10.4824 108.013 10.3414 108.025C10.0933 108.056 9.84126 108.035 9.60205 107.963C9.52504 108.091 9.40972 108.193 9.27197 108.254C9.09493 108.325 8.90494 108.358 8.71413 108.352ZM8.43026 105.641C8.3846 105.864 8.39365 106.094 8.45666 106.312C8.50323 106.574 8.61274 106.821 8.77593 107.032C8.93912 107.243 9.15117 107.412 9.3941 107.524C9.38949 107.446 9.3762 107.369 9.35449 107.295C9.09703 106.358 8.6019 105.713 8.43026 105.641ZM10.2688 105.356C10.271 105.582 10.2897 105.807 10.3249 106.031C10.3613 106.43 10.5391 106.803 10.8267 107.085C10.7454 106.481 10.5566 105.895 10.2688 105.356ZM12.3451 105.071C12.3451 105.071 12.2196 105.133 12.1734 105.68C12.1272 106.227 12.2229 106.604 12.4804 106.823C12.5406 106.872 12.6072 106.913 12.6784 106.944C12.7663 106.853 12.8278 106.74 12.8567 106.617C12.9155 106.101 12.7751 105.583 12.4639 105.166C12.3946 105.084 12.355 105.071 12.3451 105.071Z" fill="#44494B"/>
<path d="M57.0251 110.828L57.9196 109.289L57.0251 107.75H56.0679L56.6092 109.289L56.0679 110.828H57.0251Z" fill="#44494B"/>
<path d="M56.1307 110.091C56.0204 110.098 55.9098 110.083 55.8057 110.045C55.7017 110.008 55.6064 109.951 55.5258 109.876C55.4451 109.801 55.3809 109.71 55.3369 109.609C55.293 109.509 55.2703 109.4 55.2703 109.29C55.2703 109.181 55.293 109.072 55.3369 108.972C55.3809 108.871 55.4451 108.78 55.5258 108.705C55.6064 108.63 55.7017 108.572 55.8057 108.535C55.9098 108.498 56.0204 108.483 56.1307 108.49L54.6123 108.189L54.2063 109.407L54.8863 110.435L56.1307 110.091Z" fill="#44494B"/>
<path d="M56.2628 107.75H54.4705L53.5759 109.289L54.4705 110.828H56.2628L57.1573 109.289L56.2628 107.75ZM55.3683 110.091C55.2082 110.092 55.0515 110.045 54.9181 109.957C54.7847 109.87 54.6805 109.745 54.6188 109.598C54.5571 109.452 54.5406 109.29 54.5714 109.134C54.6022 108.978 54.679 108.835 54.792 108.723C54.9049 108.61 55.049 108.533 55.206 108.502C55.363 108.471 55.5257 108.487 55.6737 108.547C55.8217 108.608 55.9482 108.711 56.0372 108.843C56.1262 108.975 56.1737 109.13 56.1737 109.289C56.1737 109.501 56.0889 109.705 55.938 109.855C55.787 110.005 55.5822 110.09 55.3683 110.091Z" fill="#407BFF"/>
<path d="M119.418 107.648L118.754 106.502L119.418 105.359H120.127L119.728 106.502L120.127 107.648H119.418Z" fill="#407BFF"/>
<path d="M120.081 107.098C120.164 107.104 120.247 107.093 120.325 107.066C120.402 107.039 120.474 106.996 120.535 106.941C120.595 106.885 120.643 106.817 120.676 106.742C120.709 106.667 120.727 106.586 120.727 106.504C120.727 106.422 120.709 106.341 120.676 106.266C120.643 106.191 120.595 106.123 120.535 106.067C120.474 106.011 120.402 105.969 120.325 105.941C120.247 105.914 120.164 105.903 120.081 105.91L121.21 105.687L121.511 106.591L121.009 107.354L120.081 107.098Z" fill="#407BFF"/>
<path d="M119.985 105.359H121.306L121.966 106.502L121.306 107.645H119.985L119.325 106.502L119.985 105.359ZM120.646 107.098C120.764 107.099 120.881 107.064 120.98 106.999C121.079 106.934 121.157 106.841 121.203 106.733C121.249 106.624 121.261 106.504 121.238 106.388C121.216 106.272 121.159 106.166 121.075 106.082C120.991 105.998 120.884 105.941 120.767 105.918C120.651 105.895 120.53 105.906 120.42 105.951C120.31 105.996 120.216 106.073 120.15 106.171C120.083 106.269 120.048 106.384 120.048 106.502C120.048 106.581 120.063 106.658 120.093 106.731C120.123 106.803 120.167 106.869 120.223 106.925C120.279 106.98 120.345 107.024 120.418 107.054C120.492 107.083 120.57 107.099 120.649 107.098H120.646Z" fill="#44494B"/>
<path d="M94.6978 109.164H96.1898C96.3766 109.164 96.5554 109.089 96.6872 108.958C96.8189 108.827 96.8929 108.649 96.8929 108.464C96.8929 108.278 96.8189 108.101 96.6872 107.969C96.5554 107.838 96.3766 107.764 96.1898 107.763H94.6978C94.5105 107.763 94.3308 107.837 94.1984 107.968C94.0659 108.1 93.9915 108.278 93.9915 108.464C93.9915 108.65 94.0659 108.828 94.1984 108.959C94.3308 109.091 94.5105 109.164 94.6978 109.164Z" fill="#44494B"/>
<path d="M92.2979 107.842C92.4364 107.592 92.6455 107.388 92.8995 107.254C93.1535 107.121 93.4413 107.064 93.7274 107.091C94.0135 107.118 94.2853 107.228 94.5095 107.406C94.7336 107.585 94.9001 107.824 94.9886 108.095C95.0771 108.367 95.0836 108.658 95.0074 108.933C94.9312 109.207 94.7755 109.454 94.5596 109.642C94.3437 109.83 94.077 109.952 93.7925 109.991C93.5079 110.031 93.2178 109.987 92.9581 109.865C92.6011 109.683 92.3314 109.367 92.2077 108.988C92.0841 108.609 92.1165 108.197 92.2979 107.842Z" fill="#407BFF"/>
<path d="M92.7006 109.865L93.1096 110.056L94.5312 107.065L94.1222 106.873L92.7006 109.865Z" fill="#44494B"/>
</g>
<defs>
<clipPath id="clip0_1349_2">
<rect width="128" height="112" fill="white"/>
</clipPath>
</defs>
</svg>
