<svg width="13" height="10" viewBox="0 0 13 10" fill="none" xmlns="http://www.w3.org/2000/svg">
<path d="M11.8281 4.53297L7.4872 0.191932C7.36328 0.0680166 7.19813 0 7.02203 0C6.84573 0 6.68067 0.0681143 6.55676 0.191932L6.16263 0.586154C6.03882 0.709874 5.9706 0.875127 5.9706 1.05133C5.9706 1.22743 6.03882 1.39825 6.16263 1.52197L8.69508 4.05998H0.649382C0.286627 4.05998 0 4.34397 0 4.70683V5.26415C0 5.627 0.286627 5.93963 0.649382 5.93963H8.72381L6.16273 8.49181C6.03891 8.61573 5.9707 8.77648 5.9707 8.95268C5.9707 9.12868 6.03891 9.29179 6.16273 9.4156L6.55686 9.80856C6.68077 9.93247 6.84583 10 7.02212 10C7.19823 10 7.36338 9.93159 7.4873 9.80768L11.8282 5.46673C11.9524 5.34243 12.0208 5.17649 12.0203 5.0001C12.0207 4.82312 11.9524 4.65708 11.8281 4.53297Z" fill="url(#paint0_linear_577_708)"/>
<defs>
<linearGradient id="paint0_linear_577_708" x1="0" y1="0" x2="12.2755" y2="0.323853" gradientUnits="userSpaceOnUse">
<stop stop-color="#0071FF"/>
<stop offset="1" stop-color="#54F0D1"/>
</linearGradient>
</defs>
</svg>
