<svg width="40" height="40" viewBox="0 0 40 40" fill="none" xmlns="http://www.w3.org/2000/svg">
<g id="Logo">
<g id="Layer 1">
<g id="Group 1540">
<g id="Subtract" filter="url(#filter0_b_266_4996)">
<path fill-rule="evenodd" clip-rule="evenodd" d="M40 20C40 31.0457 31.0457 40 20 40C8.9543 40 0 31.0457 0 20C0 8.9543 8.9543 0 20 0C31.0457 0 40 8.9543 40 20ZM25.1817 17.109L28.186 22.4295H28.1764L28.2226 22.5103L29.6295 21.6788L24.3402 12.2991L24.3406 12.2989C23.5823 10.953 20.755 5.93592 20.7492 5.93198C20.7025 5.84793 20.6364 5.77689 20.5567 5.72507C20.4722 5.676 20.3767 5.6502 20.2796 5.65019C20.1821 5.64947 20.0862 5.67605 20.0024 5.72704C19.9225 5.77435 19.8562 5.8423 19.81 5.9241L16.615 11.5737L18.8226 12.8802C19.2623 13.1417 19.6169 13.5302 19.8418 13.9972C20.0668 14.4641 20.1521 14.9886 20.0871 15.505C20.0411 15.847 19.9313 16.1768 19.7638 16.4765C19.6869 16.6095 19.6007 16.7366 19.5059 16.8568C19.4119 16.9723 19.3082 17.0791 19.196 17.176C19.0828 17.2737 18.9618 17.3614 18.8342 17.4381C18.705 17.5152 18.5698 17.5811 18.43 17.6352L14.1573 19.253L17.1616 13.9325V13.9266L17.2059 13.8458L15.799 13.0142L10.5062 22.4L18.9958 19.188C19.4518 19.0144 19.8755 18.7625 20.2488 18.4431C20.4338 18.2809 20.6056 18.1036 20.7627 17.913C20.9168 17.7235 21.0552 17.5211 21.1765 17.308C21.732 16.3207 21.8819 15.1479 21.5932 14.0475C21.3045 12.9471 20.6007 12.0091 19.6367 11.4397L18.8245 10.9609L20.2719 8.39912L22.9356 13.1285L24.3352 12.302L22.822 21.4344C22.7374 21.9246 22.7374 22.4261 22.822 22.9163C22.8651 23.1614 22.9295 23.4021 23.0145 23.6355C23.0953 23.868 23.1971 24.0923 23.3186 24.3055C23.5932 24.794 23.9591 25.2222 24.3955 25.5658C24.8318 25.9094 25.33 26.1616 25.8615 26.308C26.3931 26.4544 26.9476 26.4921 27.4934 26.419C28.0392 26.3459 28.5656 26.1634 29.0425 25.882L29.8547 25.4011L31.302 27.9629H25.9727V29.6162L19.0112 23.6927C18.8246 23.5335 18.625 23.3911 18.4146 23.267C17.781 22.8942 17.0629 22.6984 16.3321 22.6995C15.2225 22.699 14.1581 23.1491 13.3722 23.9511C12.5863 24.7531 12.1433 25.8415 12.1402 26.9776V27.9629H9.25326L11.9189 23.2335L10.5139 22.4039C10.374 22.6519 10.1634 23.025 9.91313 23.4685C8.80708 25.4282 6.92443 28.764 6.92443 28.7688C6.87659 28.8547 6.85138 28.9518 6.8513 29.0506C6.85131 29.1501 6.87651 29.2479 6.92443 29.3344C6.97312 29.4191 7.04261 29.4894 7.126 29.5381C7.2094 29.5869 7.3038 29.6124 7.39982 29.6122H13.7646V26.9953C13.7639 26.65 13.8296 26.308 13.9581 25.9888C14.0866 25.6695 14.2752 25.3793 14.5133 25.1348C14.7515 24.8903 15.0343 24.6962 15.3457 24.5637C15.6571 24.4312 15.991 24.3629 16.3283 24.3627C16.4792 24.3631 16.6298 24.3762 16.7786 24.4021C16.9236 24.4264 17.066 24.4647 17.204 24.5164C17.4842 24.619 17.7448 24.7711 17.9738 24.9657L21.4825 27.9511H15.4833H15.3871V29.6162H25.9727V29.6241H33.1497C33.2461 29.6247 33.3409 29.5995 33.4249 29.5512C33.5086 29.5008 33.578 29.4292 33.6266 29.3432C33.6752 29.2572 33.7012 29.1598 33.7021 29.0605C33.7016 28.9614 33.6757 28.8643 33.627 28.7787L30.4436 23.1311L28.2341 24.4356C27.6437 24.7841 26.9423 24.8783 26.2841 24.6976C25.6258 24.5169 25.0646 24.0761 24.7236 23.472C24.6463 23.3394 24.5819 23.1995 24.5311 23.0542C24.4797 22.9128 24.4404 22.7671 24.4137 22.6187C24.3875 22.4698 24.3746 22.3188 24.3752 22.1675C24.3739 22.0149 24.3862 21.8625 24.4118 21.7123L25.1817 17.109ZM24.3352 12.302L24.3367 12.293L24.3402 12.2991L24.3352 12.302Z" fill="#F2F4F9"/>
</g>
</g>
</g>
</g>
<defs>
<filter id="filter0_b_266_4996" x="-1.77778" y="-1.77778" width="43.5556" height="43.5556" filterUnits="userSpaceOnUse" color-interpolation-filters="sRGB">
<feFlood flood-opacity="0" result="BackgroundImageFix"/>
<feGaussianBlur in="BackgroundImageFix" stdDeviation="0.888889"/>
<feComposite in2="SourceAlpha" operator="in" result="effect1_backgroundBlur_266_4996"/>
<feBlend mode="normal" in="SourceGraphic" in2="effect1_backgroundBlur_266_4996" result="shape"/>
</filter>
</defs>
</svg>
