<svg xmlns="http://www.w3.org/2000/svg" width="22.78" height="17.251" viewBox="0 0 22.78 17.251">
  <g id="Group_51476" data-name="Group 51476" transform="translate(-4.25 -6.861)">
    <path id="Path_49301" data-name="Path 49301" d="M26.28,15.453a10.607,10.607,0,0,1-3.109,7.516m.067-14.964A10.656,10.656,0,0,1,25.395,11.2M8.192,23.052a10.64,10.64,0,0,1-.068-15.13" transform="translate(0)" fill="none" stroke="#223f70" stroke-linecap="round" stroke-linejoin="round" stroke-width="1.5"/>
    <path id="Path_49302" data-name="Path 49302" d="M9,15.237A5.788,5.788,0,0,1,10.874,11m9.069.047a5.725,5.725,0,0,1-.04,8.419m-8.988.046A6.1,6.1,0,0,1,10,18.448" transform="translate(0.256 0.197)" fill="none" stroke="#223f70" stroke-linecap="round" stroke-linejoin="round" stroke-width="1.5"/>
    <g id="Path_49303" data-name="Path 49303" transform="translate(-79.575 -72.193)" fill="#00aeef">
      <path d="M 95.14776611328125 90.55309295654297 L 93.26800537109375 90.55309295654297 L 93.16800689697266 90.55309295654297 L 93.16800689697266 90.45309448242188 L 93.16800689697266 84.90800476074219 L 93.16800689697266 84.80799865722656 L 93.26800537109375 84.80799865722656 L 95.14776611328125 84.80799865722656 C 95.77926635742188 84.80799865722656 96.32232666015625 84.92012023925781 96.76187896728516 85.14125061035156 C 97.20600891113281 85.36473083496094 97.54736328125 85.69509887695312 97.77647399902344 86.12318420410156 C 98.00348663330078 86.54755401611328 98.11858367919922 87.07018280029297 98.11858367919922 87.67658233642578 C 98.11858367919922 88.28302001953125 98.00352478027344 88.80692291259766 97.77660369873047 89.23371124267578 C 97.54749298095703 89.66471099853516 97.20608520507812 89.99652862548828 96.76186370849609 90.21995544433594 C 96.32264709472656 90.44100189208984 95.77957153320312 90.55309295654297 95.14776611328125 90.55309295654297 Z M 94.09941864013672 89.73171997070312 L 95.09275817871094 89.73171997070312 C 95.80117797851562 89.73171997070312 96.33046722412109 89.56161499023438 96.66592407226562 89.22611236572266 C 97.00133514404297 88.890625 97.17140197753906 88.36928558349609 97.17140197753906 87.67658233642578 C 97.17140197753906 86.98409271240234 97.00141906738281 86.46413421630859 96.66616821289062 86.13113403320312 C 96.33060455322266 85.79821014404297 95.80121612548828 85.62939453125 95.09275817871094 85.62939453125 L 94.09941864013672 85.62939453125 L 94.09941864013672 89.73171997070312 Z" stroke="none"/>
      <path d="M 95.14776611328125 90.45309448242188 C 95.76642608642578 90.45309448242188 96.28952789306641 90.34571838378906 96.71693420410156 90.130615234375 C 97.14423370361328 89.91570281982422 97.46807861328125 89.60105895996094 97.68830871582031 89.18675994873047 C 97.90852355957031 88.7725830078125 98.01858520507812 88.26919555664062 98.01858520507812 87.67658233642578 C 98.01858520507812 87.08418273925781 97.90852355957031 86.58203887939453 97.68830871582031 86.17037200927734 C 97.46807861328125 85.75887298583984 97.14423370361328 85.44559478759766 96.71693420410156 85.23058319091797 C 96.28952789306641 85.01556396484375 95.76642608642578 84.90800476074219 95.14776611328125 84.90800476074219 L 93.26800537109375 84.90800476074219 L 93.26800537109375 90.45309448242188 L 95.14776611328125 90.45309448242188 M 93.99941253662109 85.52938842773438 L 95.09275817871094 85.52938842773438 C 95.83209228515625 85.52938842773438 96.38001251220703 85.70637512207031 96.73663330078125 86.0601806640625 C 97.09309387207031 86.41424560546875 97.27140808105469 86.95296478271484 97.27140808105469 87.67658233642578 C 97.27140808105469 88.40029907226562 97.09309387207031 88.94028472900391 96.73663330078125 89.29682159423828 C 96.38001251220703 89.65348052978516 95.83209228515625 89.83171844482422 95.09275817871094 89.83171844482422 L 93.99941253662109 89.83171844482422 L 93.99941253662109 85.52938842773438 M 95.14776611328125 90.65309143066406 L 93.06800842285156 90.65309143066406 L 93.06800842285156 84.70800018310547 L 95.14776611328125 84.70800018310547 C 95.79501342773438 84.70800018310547 96.35319519042969 84.82371520996094 96.80681610107422 85.05191040039062 C 97.26972198486328 85.28484344482422 97.62562561035156 85.62939453125 97.86463165283203 86.07600402832031 C 98.09950256347656 86.51505279541016 98.21858215332031 87.05355072021484 98.21858215332031 87.67658233642578 C 98.21858215332031 88.29957580566406 98.09958648681641 88.83926391601562 97.86489868164062 89.28065490722656 C 97.62588500976562 89.73029327392578 97.26988220214844 90.07638549804688 96.80679321289062 90.30928039550781 C 96.35352325439453 90.53741455078125 95.79533386230469 90.65309143066406 95.14776611328125 90.65309143066406 Z M 94.19941711425781 89.63172149658203 L 95.09275817871094 89.63172149658203 C 95.773681640625 89.63172149658203 96.27918243408203 89.47147369384766 96.59520721435547 89.15541076660156 C 96.91118621826172 88.83936309814453 97.07140350341797 88.34180450439453 97.07140350341797 87.67658233642578 C 97.07140350341797 87.01171112060547 96.91135406494141 86.51560974121094 96.59569549560547 86.20207977294922 C 96.27957153320312 85.88845062255859 95.77388763427734 85.72939300537109 95.09275817871094 85.72939300537109 L 94.19941711425781 85.72939300537109 L 94.19941711425781 89.63172149658203 Z" stroke="none" fill="#00aeef"/>
    </g>
  </g>
</svg>
