<svg width="44" height="44" viewBox="0 0 44 44" fill="none" xmlns="http://www.w3.org/2000/svg">
<rect width="44" height="44" rx="10" fill="#00A7DC" fill-opacity="0.15"/>
<g clip-path="url(#clip0_266_5199)">
<path d="M28.9418 15.5232C27.6472 14.9174 26.2629 14.4772 24.8157 14.2266C24.6379 14.5479 24.4303 14.9801 24.2871 15.3239C22.7487 15.0926 21.2244 15.0926 19.7142 15.3239C19.5711 14.9801 19.3587 14.5479 19.1794 14.2266C17.7306 14.4772 16.3447 14.9191 15.0501 15.5264C12.4388 19.4724 11.7309 23.3204 12.0849 27.1137C13.8168 28.4071 15.4953 29.1928 17.1454 29.7069C17.5528 29.1462 17.9162 28.5501 18.2293 27.9219C17.6331 27.6954 17.062 27.4158 16.5225 27.0912C16.6656 26.9852 16.8057 26.8743 16.9409 26.7603C20.2318 28.2995 23.8074 28.2995 27.0589 26.7603C27.1957 26.8743 27.3357 26.9852 27.4773 27.0912C26.9362 27.4174 26.3636 27.6969 25.7674 27.9235C26.0804 28.5501 26.4422 29.1478 26.8512 29.7085C28.503 29.1944 30.183 28.4087 31.9149 27.1137C32.3302 22.7163 31.2055 18.9036 28.9418 15.5232ZM18.6776 24.7809C17.6897 24.7809 16.8796 23.8586 16.8796 22.7355C16.8796 21.6125 17.6724 20.6886 18.6776 20.6886C19.6828 20.6886 20.4929 21.6109 20.4756 22.7355C20.4772 23.8586 19.6828 24.7809 18.6776 24.7809ZM25.3222 24.7809C24.3343 24.7809 23.5242 23.8586 23.5242 22.7355C23.5242 21.6125 24.317 20.6886 25.3222 20.6886C26.3274 20.6886 27.1375 21.6109 27.1202 22.7355C27.1202 23.8586 26.3274 24.7809 25.3222 24.7809Z" fill="#00A7DC"/>
</g>
<defs>
<clipPath id="clip0_266_5199">
<rect width="20" height="20" fill="white" transform="translate(12 12)"/>
</clipPath>
</defs>
</svg>
