<svg width="17" height="9" viewBox="0 0 17 9" fill="none" xmlns="http://www.w3.org/2000/svg">
<path fill-rule="evenodd" clip-rule="evenodd" d="M0.868336 0.0828247C1.06114 -0.0122879 1.28339 -0.0260682 1.48623 0.0445142C1.68908 0.115097 1.8559 0.264263 1.95003 0.459215C2.27 1.12448 2.67236 1.74588 3.14741 2.30844C3.7712 3.05036 4.52868 3.66567 5.37956 4.12166C5.42752 4.14095 5.47357 4.16478 5.51709 4.19284C6.44471 4.66243 7.46756 4.90753 8.50489 4.9088C9.56069 4.9088 10.572 4.65515 11.4927 4.19366C11.5362 4.16543 11.5823 4.14133 11.6302 4.12166C12.5106 3.64981 13.2907 3.0076 13.9263 2.23152C14.3736 1.68933 14.7543 1.09421 15.0598 0.459215C15.1539 0.264231 15.3209 0.115077 15.5238 0.0445672C15.7267 -0.0259429 15.9491 -0.0120341 16.1418 0.0832336C16.3346 0.178501 16.4821 0.347324 16.5518 0.552563C16.6216 0.757802 16.6078 0.982645 16.5136 1.17763C16.2506 1.72258 15.9412 2.24331 15.5889 2.73392L16.7628 3.92037C16.9146 4.07379 16.9999 4.28193 17 4.49898C17.0001 4.71604 16.9149 4.92423 16.7632 5.07777C16.6115 5.2313 16.4057 5.3176 16.1911 5.31768C15.9765 5.31775 15.7706 5.2316 15.6188 5.07818L14.5306 3.97765C14.0639 4.44347 13.5494 4.85766 12.9959 5.21319L13.6779 6.58783C13.7265 6.68399 13.7558 6.78893 13.764 6.89659C13.7723 7.00425 13.7594 7.11251 13.7262 7.21511C13.6929 7.31772 13.6399 7.41265 13.5701 7.49443C13.5004 7.57621 13.4154 7.64322 13.3199 7.6916C13.2244 7.73997 13.1205 7.76877 13.0139 7.77631C12.9074 7.78385 12.8005 7.77 12.6993 7.73554C12.5981 7.70109 12.5047 7.64672 12.4243 7.57557C12.344 7.50441 12.2784 7.41789 12.2313 7.32097L11.555 5.95615C10.8463 6.24008 10.0955 6.42827 9.31393 6.50519V8.18176C9.31393 8.39877 9.22869 8.60689 9.07697 8.76034C8.92524 8.91379 8.71946 9 8.50489 9C8.29032 9 8.08453 8.91379 7.93281 8.76034C7.78108 8.60689 7.69585 8.39877 7.69585 8.18176V6.50437C6.92717 6.42846 6.17281 6.24392 5.4548 5.95615L4.77844 7.32015C4.68132 7.51243 4.51299 7.65809 4.31014 7.72539C4.10729 7.79269 3.88636 7.77618 3.6955 7.67944C3.50464 7.58271 3.35932 7.41361 3.2912 7.20898C3.22309 7.00435 3.23771 6.78079 3.33187 6.58701L4.01389 5.21237C3.46037 4.85682 2.94588 4.44263 2.47914 3.97683L1.39098 5.07736C1.31635 5.15551 1.22707 5.21784 1.12837 5.26073C1.02966 5.30361 0.923497 5.32618 0.816073 5.32713C0.708649 5.32807 0.602114 5.30737 0.502686 5.26623C0.403257 5.22508 0.312926 5.16433 0.236963 5.0875C0.161 5.01067 0.100926 4.91932 0.0602466 4.81876C0.0195672 4.7182 -0.00090294 4.61045 3.05468e-05 4.50181C0.000964033 4.39316 0.0232824 4.28579 0.0656835 4.18597C0.108085 4.08614 0.169719 3.99585 0.246991 3.92037L1.4201 2.7331C1.06798 2.2422 0.75883 1.7212 0.496176 1.17599C0.402133 0.981001 0.388508 0.756219 0.458297 0.55107C0.528086 0.34592 0.675575 0.1772 0.868336 0.0820061V0.0828247Z" fill="url(#paint0_linear_591_2136)"/>
<defs>
<linearGradient id="paint0_linear_591_2136" x1="17" y1="8.99999" x2="-0.343318" y2="8.28099" gradientUnits="userSpaceOnUse">
<stop stop-color="#0071FF"/>
<stop offset="1" stop-color="#54F0D1"/>
</linearGradient>
</defs>
</svg>
