<svg width="22" height="16" viewBox="0 0 22 16" fill="none" xmlns="http://www.w3.org/2000/svg">
<path d="M1.78398 9.50922C1.18398 8.59854 1.18398 7.39987 1.78398 6.4892C3.14132 4.43187 6.13332 0.998535 11 0.998535C15.8667 0.998535 18.86 4.43054 20.216 6.4892C20.816 7.39987 20.816 8.59854 20.216 9.50922C18.8587 11.5665 15.8667 14.9999 11 14.9999C6.13332 14.9999 3.13998 11.5679 1.78398 9.50922Z" stroke="#00A7DC" stroke-width="2" stroke-linecap="round" stroke-linejoin="round"/>
<path d="M11 11.6663C13.025 11.6663 14.6666 10.0247 14.6666 7.99967C14.6666 5.97463 13.025 4.33301 11 4.33301C8.97494 4.33301 7.33331 5.97463 7.33331 7.99967C7.33331 10.0247 8.97494 11.6663 11 11.6663Z" stroke="#00A7DC" stroke-width="2" stroke-linecap="round" stroke-linejoin="round"/>
</svg>
