<svg width="20" height="14" viewBox="0 0 20 14" fill="none" xmlns="http://www.w3.org/2000/svg">
<path d="M19.0015 9.24337C18.924 9.32148 18.8442 9.39675 18.7696 9.4777C17.1042 11.2908 15.1683 12.7025 12.8238 13.5073C10.6257 14.2619 8.45978 14.1312 6.33066 13.2422C4.25208 12.374 2.49891 11.0489 1.00456 9.36977C0.963 9.32338 0.911992 9.2855 0.865234 9.24337C0.865234 9.2197 0.865234 9.19603 0.865234 9.17236C0.942691 9.09425 1.02298 9.01945 1.09666 8.9385C2.64155 7.24894 4.43628 5.91585 6.57673 5.07509C9.07755 4.09279 11.5382 4.23244 13.9583 5.3544C15.8541 6.2335 17.4778 7.48091 18.8621 9.04549C18.9037 9.09236 18.9547 9.13023 19.0015 9.17284V9.24385V9.24337ZM13.6522 9.21497C13.6555 7.16136 11.9912 5.48458 9.94516 5.47938C7.89633 5.47417 6.22109 7.14053 6.21401 9.19082C6.20692 11.2515 7.87649 12.9345 9.93004 12.9359C11.9765 12.9378 13.6494 11.2653 13.6522 9.21449V9.21497ZM13.9125 11.8887C14.8226 11.5323 17.0107 9.91418 17.5463 9.20597C16.964 8.45942 14.4948 6.64962 13.9262 6.54784C14.9865 8.32072 14.9865 10.0955 13.9125 11.8887ZM5.96936 6.5005C4.58033 7.22196 3.38022 8.12378 2.30763 9.19935C3.01041 10.033 5.26233 11.6847 5.94291 11.8726C4.87976 10.0945 4.87788 8.31646 5.96936 6.5005Z" fill="url(#paint0_linear_868_87)"/>
<path d="M10.4523 2.28678C10.4523 2.57436 10.2192 2.80749 9.9316 2.80749C9.64402 2.80749 9.41089 2.57436 9.41089 2.28678V0.687578C9.41089 0.399999 9.64402 0.16687 9.9316 0.16687C10.2192 0.16687 10.4523 0.399999 10.4523 0.687578V2.28678Z" fill="url(#paint1_linear_868_87)"/>
<path d="M14.1807 3.36618C14.0475 3.62107 13.7329 3.71975 13.478 3.58658C13.2231 3.45342 13.1245 3.13884 13.2576 2.88395L13.9981 1.46652C14.1313 1.21163 14.4459 1.11296 14.7008 1.24612C14.9557 1.37929 15.0543 1.69387 14.9212 1.94876L14.1807 3.36618Z" fill="url(#paint2_linear_868_87)"/>
<path d="M1.85842 4.09393C1.68268 3.85923 1.73089 3.52595 1.96524 3.34973C2.20004 3.17317 2.5328 3.22139 2.70886 3.45657C3.02771 3.88249 3.34547 4.30683 3.66605 4.73517C3.84153 4.96964 3.79735 5.29944 3.56332 5.47551C3.32832 5.65232 2.99113 5.60724 2.81491 5.37179C2.4967 4.94663 2.1792 4.52236 1.85842 4.09393Z" fill="url(#paint3_linear_868_87)"/>
<path d="M5.46716 1.85722C5.3465 1.58999 5.46584 1.2751 5.73282 1.1539C6.00033 1.03245 6.31471 1.15169 6.43558 1.41946C6.65448 1.90438 6.87266 2.38754 7.09272 2.8752C7.21317 3.14214 7.09852 3.45451 6.83189 3.57565C6.56413 3.69729 6.24474 3.58015 6.12377 3.31209C5.90533 2.82805 5.6874 2.34502 5.46716 1.85722Z" fill="url(#paint4_linear_868_87)"/>
<path d="M9.93055 7.61011C10.8114 7.60916 11.5293 8.32967 11.5264 9.21304C11.5241 10.0874 10.8085 10.8032 9.93622 10.8046C9.0568 10.806 8.33749 10.0836 8.33985 9.2012C8.34268 8.32683 9.05774 7.61153 9.93055 7.61011ZM10.4642 9.20736C10.4642 8.92 10.2253 8.67762 9.93811 8.67526C9.65189 8.67242 9.40771 8.91101 9.40252 9.19836C9.39732 9.49234 9.64434 9.74182 9.93716 9.73946C10.2238 9.73709 10.4633 9.49471 10.4638 9.20783L10.4642 9.20736Z" fill="url(#paint5_linear_868_87)"/>
<path d="M17.0798 5.3656C16.9163 5.60219 16.592 5.66145 16.3554 5.49796C16.1188 5.33447 16.0596 5.01015 16.2231 4.77356L17.1322 3.45792C17.2957 3.22133 17.62 3.16207 17.8566 3.32556C18.0932 3.48905 18.1524 3.81337 17.989 4.04996L17.0798 5.3656Z" fill="url(#paint6_linear_868_87)"/>
<defs>
<linearGradient id="paint0_linear_868_87" x1="19.0014" y1="14" x2="0.499099" y2="13.2314" gradientUnits="userSpaceOnUse">
<stop stop-color="#0071FF"/>
<stop offset="1" stop-color="#54F0D1"/>
</linearGradient>
<linearGradient id="paint1_linear_868_87" x1="10.4523" y1="2.80749" x2="9.38811" y2="2.79828" gradientUnits="userSpaceOnUse">
<stop stop-color="#0071FF"/>
<stop offset="1" stop-color="#54F0D1"/>
</linearGradient>
<linearGradient id="paint2_linear_868_87" x1="13.9395" y1="3.8277" x2="13.0006" y2="3.32675" gradientUnits="userSpaceOnUse">
<stop stop-color="#0071FF"/>
<stop offset="1" stop-color="#54F0D1"/>
</linearGradient>
<linearGradient id="paint3_linear_868_87" x1="3.98348" y1="5.79848" x2="1.4876" y2="5.75013" gradientUnits="userSpaceOnUse">
<stop stop-color="#0071FF"/>
<stop offset="1" stop-color="#54F0D1"/>
</linearGradient>
<linearGradient id="paint4_linear_868_87" x1="7.172" y1="3.98204" x2="4.746" y2="3.39359" gradientUnits="userSpaceOnUse">
<stop stop-color="#0071FF"/>
<stop offset="1" stop-color="#54F0D1"/>
</linearGradient>
<linearGradient id="paint5_linear_868_87" x1="11.5264" y1="10.8046" x2="8.27146" y2="10.7333" gradientUnits="userSpaceOnUse">
<stop stop-color="#0071FF"/>
<stop offset="1" stop-color="#54F0D1"/>
</linearGradient>
<linearGradient id="paint6_linear_868_87" x1="16.7838" y1="5.79398" x2="15.9135" y2="5.18141" gradientUnits="userSpaceOnUse">
<stop stop-color="#0071FF"/>
<stop offset="1" stop-color="#54F0D1"/>
</linearGradient>
</defs>
</svg>
