<svg width="44" height="44" viewBox="0 0 44 44" fill="none" xmlns="http://www.w3.org/2000/svg">
<rect width="44" height="44" rx="10" fill="#00A7DC" fill-opacity="0.15"/>
<path d="M23 31.9506C22.6711 31.9833 22.3375 32 22 32C21.6625 32 21.3289 31.9833 21 31.9506V24H20C19.4477 24 19 23.5523 19 23C19 22.4477 19.4477 22 20 22H21V20C21 18.3432 22.3431 17 24 17H25C25.5523 17 26 17.4477 26 18C26 18.5523 25.5523 19 25 19H24C23.4477 19 23 19.4477 23 20V22H25C25.5523 22 26 22.4477 26 23C26 23.5523 25.5523 24 25 24H23V31.9506Z" fill="#00A7DC"/>
<path fill-rule="evenodd" clip-rule="evenodd" d="M22 30C26.4183 30 30 26.4183 30 22C30 17.5817 26.4183 14 22 14C17.5817 14 14 17.5817 14 22C14 26.4183 17.5817 30 22 30ZM22 32C27.5228 32 32 27.5228 32 22C32 16.4771 27.5228 12 22 12C16.4771 12 12 16.4771 12 22C12 27.5228 16.4771 32 22 32Z" fill="#00A7DC"/>
</svg>
