<svg width="82" height="76" viewBox="0 0 82 76" fill="none" xmlns="http://www.w3.org/2000/svg">
<path d="M72.822 75.2385L8.88947 75.9236C7.36004 75.9399 5.8528 75.5567 4.5165 74.812C3.18021 74.0672 2.06105 72.9865 1.2695 71.6766C0.477944 70.3667 0.0413456 68.8729 0.00279488 67.3425C-0.0357558 65.8122 0.325074 64.2982 1.04967 62.95L32.396 4.63245C33.9361 1.76684 36.797 0.0353605 40.0482 0.000534111C43.2994 -0.0342923 46.1958 1.63586 47.7972 4.4674L80.3826 62.0998C81.1364 63.4323 81.5297 64.9386 81.5239 66.4698C81.518 68.001 81.1131 69.5043 80.3493 70.831C79.5854 72.1577 78.4889 73.262 77.1681 74.0348C75.8474 74.8076 74.348 75.2223 72.8182 75.2377L72.822 75.2385ZM40.0996 4.84141C39.3906 4.84368 38.6956 5.03891 38.0889 5.40619C37.4822 5.77347 36.9867 6.29898 36.6555 6.92645L5.30921 65.2433C4.9831 65.8501 4.82073 66.5315 4.8381 67.2203C4.85548 67.9092 5.052 68.5815 5.40829 69.1711C5.76458 69.7607 6.26831 70.2471 6.86977 70.5823C7.47123 70.9176 8.14963 71.0901 8.83803 71.0828L72.7705 70.4014C73.459 70.3941 74.1336 70.2072 74.7279 69.8592C75.3222 69.5112 75.8155 69.0142 76.1592 68.4171C76.5029 67.82 76.6851 67.1435 76.6878 66.4544C76.6905 65.7653 76.5135 65.0875 76.1745 64.4877L43.5876 6.85225C43.2432 6.23189 42.7367 5.71701 42.1222 5.36278C41.5078 5.00855 40.8086 4.82832 40.0996 4.84141Z" fill="url(#paint0_linear_1359_64)"/>
<path d="M34.2291 55.9633C34.216 55.3603 34.3293 54.761 34.5622 54.2012C34.7841 53.6712 35.1183 53.1917 35.5434 52.793C35.9857 52.3845 36.5087 52.0656 37.0814 51.8552C37.6819 51.6282 38.3606 51.5106 39.1175 51.5024C39.8164 51.4866 40.5126 51.5917 41.173 51.8127C41.7555 52.0088 42.2903 52.3172 42.7448 52.7191C43.1788 53.1088 43.5235 53.5815 43.7569 54.1069C44.0022 54.6617 44.1288 55.2584 44.1293 55.8614C44.143 56.4593 44.0296 57.0536 43.7962 57.6078C43.5717 58.1322 43.2378 58.6065 42.815 59.0014C42.3687 59.4129 41.8398 59.7322 41.2607 59.9398C40.6047 60.1751 39.91 60.2946 39.21 60.2926C38.4535 60.3007 37.7726 60.1973 37.1672 59.9823C36.5896 59.7838 36.0594 59.4756 35.608 59.0759C35.1766 58.6897 34.8322 58.2223 34.596 57.7027C34.3514 57.1531 34.2265 56.5611 34.2291 55.9633ZM42.7533 47.6726L35.3934 47.7488L34.0815 23.5451L43.5265 23.4473L42.7533 47.6726Z" fill="#49DFD7" fill-opacity="0.9"/>
<defs>
<linearGradient id="paint0_linear_1359_64" x1="40.762" y1="0" x2="40.762" y2="75.9241" gradientUnits="userSpaceOnUse">
<stop stop-color="#49DFD7"/>
<stop offset="0.952313" stop-color="#0E3CC6"/>
</linearGradient>
</defs>
</svg>
