<svg width="44" height="44" viewBox="0 0 44 44" fill="none" xmlns="http://www.w3.org/2000/svg">
<rect width="44" height="44" rx="10" fill="#00A7DC" fill-opacity="0.15"/>
<g clip-path="url(#clip0_266_5195)">
<path fill-rule="evenodd" clip-rule="evenodd" d="M21.9702 12.2041C16.4569 12.2041 12 16.6939 12 22.2484C12 26.6884 14.8557 30.4468 18.8173 31.777C19.3127 31.877 19.4941 31.5608 19.4941 31.2949C19.4941 31.0621 19.4778 30.2639 19.4778 29.4323C16.7043 30.031 16.1267 28.2349 16.1267 28.2349C15.681 27.0708 15.0206 26.7717 15.0206 26.7717C14.1129 26.1563 15.0867 26.1563 15.0867 26.1563C16.0937 26.2229 16.622 27.1874 16.622 27.1874C17.5133 28.7172 18.9494 28.2849 19.5271 28.0188C19.6096 27.3702 19.8739 26.9212 20.1545 26.6719C17.9424 26.439 15.6151 25.5743 15.6151 21.7161C15.6151 20.6186 16.011 19.7206 16.6384 19.0223C16.5394 18.7729 16.1927 17.7417 16.7376 16.3614C16.7376 16.3614 17.5794 16.0953 19.4776 17.3925C20.2902 17.1726 21.1283 17.0608 21.9702 17.0598C22.812 17.0598 23.6702 17.1763 24.4627 17.3925C26.361 16.0953 27.2029 16.3614 27.2029 16.3614C27.7478 17.7417 27.4008 18.7729 27.3018 19.0223C27.9457 19.7206 28.3253 20.6186 28.3253 21.7161C28.3253 25.5743 25.998 26.4223 23.7694 26.6719C24.1327 26.9878 24.4461 27.5863 24.4461 28.5343C24.4461 29.8812 24.4298 30.9623 24.4298 31.2947C24.4298 31.5608 24.6114 31.877 25.1065 31.7772C29.0682 30.4466 31.9239 26.6884 31.9239 22.2484C31.9402 16.6939 27.4669 12.2041 21.9702 12.2041Z" fill="#00A7DC"/>
</g>
<defs>
<clipPath id="clip0_266_5195">
<rect width="20" height="19.5918" fill="white" transform="translate(12 12.2041)"/>
</clipPath>
</defs>
</svg>
