<svg width="42" height="42" viewBox="0 0 42 42" fill="none" xmlns="http://www.w3.org/2000/svg">
<g filter="url(#filter0_d_1403_123)">
<path d="M21 36C29.2843 36 36 29.2843 36 21C36 12.7157 29.2843 6 21 6C12.7157 6 6 12.7157 6 21C6 29.2843 12.7157 36 21 36Z" fill="#35D1DD"/>
</g>
<path d="M15.1687 26.1206C14.9013 26.1206 14.8259 26.0495 14.8259 25.7777C14.8379 24.2546 14.8259 22.7306 14.8344 21.2074C14.8344 20.994 14.7787 20.9134 14.5541 20.922C14.0956 20.9383 13.6362 20.9271 13.1776 20.928C12.8013 20.928 12.8013 20.928 12.8004 21.312L12.7944 27.8743C12.8304 28.0988 12.9821 28.1143 13.175 28.1143C16.8013 28.1097 20.4278 28.1097 24.0547 28.1143C25.5795 28.1143 27.1044 28.1143 28.6293 28.1143C28.8504 28.1143 28.9722 28.0757 28.9722 27.8143C28.9647 25.6149 28.9647 23.4149 28.9722 21.2143C28.9722 20.9958 28.9044 20.9246 28.6858 20.9306C28.2169 20.9443 27.743 20.9486 27.2784 20.9306C27.0324 20.9212 26.9647 21.0009 26.9664 21.2434C26.9767 22.7194 26.9724 24.1954 26.9664 25.6714C26.9664 25.7743 27.0101 25.8866 26.9261 25.98C26.9304 26.1377 26.8104 26.1103 26.7204 26.1094C25.0684 26.1094 23.4164 26.1063 21.7644 26.1L19.9413 26.1C18.3522 26.1077 16.7605 26.1052 15.1687 26.1206Z" fill="#FEFEFE"/>
<path d="M19.5184 21.1997C18.981 21.1997 18.4436 21.1997 17.9062 21.1997C17.8316 21.1997 17.7348 21.1654 17.6945 21.2537C17.6542 21.342 17.7339 21.3943 17.7845 21.4534C17.8093 21.4817 17.8161 21.5262 17.841 21.5545C18.8695 22.6962 19.821 23.904 20.823 25.0689C20.9516 25.0851 21.0193 24.9882 21.0802 24.9111C22.0419 23.7682 23.0019 22.6234 23.9602 21.4765C24.0159 21.4097 24.0982 21.3436 24.0528 21.2502C24.0073 21.1568 23.913 21.1997 23.8385 21.1997C23.3105 21.1997 22.7816 21.1834 22.2544 21.2056C21.9639 21.2185 21.8705 21.1414 21.8731 20.8354C21.8885 19.0559 21.8807 17.2766 21.8799 15.4972C21.8799 15.0274 21.8687 14.5542 21.8842 14.0896C21.8927 13.8411 21.7985 13.77 21.5619 13.7802C21.1419 13.7974 20.7211 13.7803 20.3011 13.7845C19.8811 13.7888 19.8871 13.7845 19.8871 14.2131C19.8871 16.4131 19.8871 18.6131 19.8871 20.8131C19.8871 20.9331 19.935 21.066 19.8339 21.1731C19.7302 21.1808 19.6273 21.1988 19.5184 21.1997Z" fill="#FEFEFE"/>
<defs>
<filter id="filter0_d_1403_123" x="0" y="0" width="42" height="42" filterUnits="userSpaceOnUse" color-interpolation-filters="sRGB">
<feFlood flood-opacity="0" result="BackgroundImageFix"/>
<feColorMatrix in="SourceAlpha" type="matrix" values="0 0 0 0 0 0 0 0 0 0 0 0 0 0 0 0 0 0 127 0" result="hardAlpha"/>
<feOffset/>
<feGaussianBlur stdDeviation="3"/>
<feComposite in2="hardAlpha" operator="out"/>
<feColorMatrix type="matrix" values="0 0 0 0 0.207843 0 0 0 0 0.819608 0 0 0 0 0.866667 0 0 0 0.6 0"/>
<feBlend mode="normal" in2="BackgroundImageFix" result="effect1_dropShadow_1403_123"/>
<feBlend mode="normal" in="SourceGraphic" in2="effect1_dropShadow_1403_123" result="shape"/>
</filter>
</defs>
</svg>
