<svg width="18" height="20" viewBox="0 0 18 20" fill="none" xmlns="http://www.w3.org/2000/svg">
<path d="M8.72229 15.1523C8.72258 14.2052 8.97811 13.2757 9.46201 12.4615C9.94591 11.6474 10.6403 10.9787 11.4721 10.5259C12.3039 10.073 13.2424 9.85269 14.1888 9.88812C15.1352 9.92354 16.0546 10.2134 16.8503 10.7272C16.8559 10.3368 16.8589 9.92027 16.8589 9.47079C16.8589 7.15979 16.7803 5.71743 16.625 4.22342H16.6471C16.5612 3.39091 16.2432 2.59925 15.7295 1.93858C15.2157 1.27791 14.5267 0.774798 13.741 0.486526C13.6995 0.470808 13.6579 0.455838 13.616 0.441616C13.3055 0.337242 12.9844 0.267336 12.6587 0.233158L12.6276 0.22979C11.3847 0.10217 11.1852 0 8.56436 0C5.94348 0 5.51945 0.10217 4.27769 0.231661L4.24662 0.23503C3.90463 0.270945 3.56794 0.346296 3.24326 0.45958V0.442739C2.43369 0.717992 1.72002 1.21959 1.18685 1.88809C0.65367 2.55658 0.323346 3.36393 0.235029 4.21444C0.0793411 5.71144 0 7.1553 0 9.47079C0 11.7863 0.0793411 13.2301 0.235029 14.7271C0.34134 15.7487 0.795755 16.7026 1.52203 17.4288C2.2483 18.155 3.20224 18.6093 4.22379 18.7155L4.25486 18.7189C5.49774 18.8484 5.69685 18.9506 8.31772 18.9506C9.18599 18.9506 9.81473 18.9393 10.3084 18.9195C9.80566 18.4294 9.4063 17.8435 9.13388 17.1965C8.86146 16.5494 8.7215 15.8544 8.72229 15.1523ZM4.34355 4.98315H12.5138C12.7503 4.98315 12.977 5.07707 13.1442 5.24425C13.3114 5.41144 13.4053 5.63818 13.4053 5.87462C13.4053 6.11105 13.3114 6.33779 13.1442 6.50498C12.977 6.67216 12.7503 6.76608 12.5138 6.76608H4.34543C4.10899 6.76608 3.88225 6.67216 3.71507 6.50498C3.54788 6.33779 3.45396 6.11105 3.45396 5.87462C3.45396 5.63818 3.54788 5.41144 3.71507 5.24425C3.88225 5.07707 4.10899 4.98315 4.34543 4.98315H4.34355ZM4.34355 10.5808C4.11024 10.576 3.88809 10.48 3.72477 10.3133C3.56146 10.1466 3.46998 9.92253 3.46998 9.68917C3.46998 9.4558 3.56146 9.23173 3.72477 9.06503C3.88809 8.89834 4.11024 8.80229 4.34355 8.79751H9.00335C9.12198 8.79508 9.23991 8.81635 9.35021 8.86007C9.46052 8.90379 9.561 8.96908 9.64575 9.05211C9.73051 9.13515 9.79785 9.23427 9.84381 9.34366C9.88978 9.45305 9.91346 9.57051 9.91346 9.68917C9.91346 9.80782 9.88978 9.92529 9.84381 10.0347C9.79785 10.1441 9.73051 10.2432 9.64575 10.3262C9.561 10.4093 9.46052 10.4745 9.35021 10.5183C9.23991 10.562 9.12198 10.5833 9.00335 10.5808H4.34355Z" fill="url(#paint0_linear_577_318)"/>
<path d="M13.9904 11.1431C13.1975 11.1431 12.4223 11.3783 11.763 11.8188C11.1036 12.2594 10.5897 12.8855 10.2863 13.6182C9.98282 14.3508 9.90342 15.1569 10.0581 15.9346C10.2128 16.7124 10.5947 17.4268 11.1554 17.9875C11.7161 18.5482 12.4305 18.9301 13.2082 19.0848C13.986 19.2395 14.7921 19.1601 15.5247 18.8566C16.2574 18.5532 16.8835 18.0393 17.3241 17.3799C17.7646 16.7206 17.9998 15.9454 17.9998 15.1525C17.9998 14.0891 17.5774 13.0693 16.8255 12.3174C16.0736 11.5655 15.0538 11.1431 13.9904 11.1431ZM15.5795 15.7393H13.9107C13.7842 15.7393 13.6628 15.689 13.5733 15.5995C13.4838 15.51 13.4335 15.3887 13.4335 15.2621V12.6985C13.4335 12.5719 13.4838 12.4506 13.5733 12.3611C13.6628 12.2716 13.7842 12.2213 13.9107 12.2213C14.0373 12.2213 14.1586 12.2716 14.2481 12.3611C14.3376 12.4506 14.3879 12.5719 14.3879 12.6985V14.7849H15.5795C15.7061 14.7849 15.8274 14.8352 15.9169 14.9247C16.0064 15.0142 16.0567 15.1356 16.0567 15.2621C16.0567 15.3887 16.0064 15.51 15.9169 15.5995C15.8274 15.689 15.7061 15.7393 15.5795 15.7393Z" fill="url(#paint1_linear_577_318)"/>
<defs>
<linearGradient id="paint0_linear_577_318" x1="0" y1="0" x2="17.2223" y2="0.336272" gradientUnits="userSpaceOnUse">
<stop stop-color="#0071FF"/>
<stop offset="1" stop-color="#54F0D1"/>
</linearGradient>
<linearGradient id="paint1_linear_577_318" x1="9.98108" y1="11.1431" x2="18.1718" y2="11.3229" gradientUnits="userSpaceOnUse">
<stop stop-color="#0071FF"/>
<stop offset="1" stop-color="#54F0D1"/>
</linearGradient>
</defs>
</svg>
