<svg width="44" height="44" viewBox="0 0 44 44" fill="none" xmlns="http://www.w3.org/2000/svg">
<rect width="44" height="44" rx="10" fill="#00A7DC" fill-opacity="0.15"/>
<path fill-rule="evenodd" clip-rule="evenodd" d="M13 18C13 15.2386 15.2386 13 18 13H26C28.7614 13 31 15.2386 31 18V26C31 28.7614 28.7614 31 26 31H18C15.2386 31 13 28.7614 13 26V18ZM18 15C16.3432 15 15 16.3432 15 18V26C15 27.6569 16.3432 29 18 29H26C27.6569 29 29 27.6569 29 26V18C29 16.3432 27.6569 15 26 15H18Z" fill="#00A7DC"/>
<path fill-rule="evenodd" clip-rule="evenodd" d="M26.5 18.5C27.0523 18.5 27.5 18.0523 27.5 17.5C27.5 16.9477 27.0523 16.5 26.5 16.5C25.9477 16.5 25.5 16.9477 25.5 17.5C25.5 18.0523 25.9477 18.5 26.5 18.5ZM20 22C20 20.8954 20.8954 20 22 20C23.1046 20 24 20.8954 24 22C24 23.1046 23.1046 24 22 24C20.8954 24 20 23.1046 20 22ZM22 18C19.7909 18 18 19.7909 18 22C18 24.2091 19.7909 26 22 26C24.2091 26 26 24.2091 26 22C26 19.7909 24.2091 18 22 18Z" fill="#00A7DC"/>
</svg>
