<svg width="44" height="44" viewBox="0 0 44 44" fill="none" xmlns="http://www.w3.org/2000/svg">
<rect width="44" height="44" rx="10" fill="#00A7DC" fill-opacity="0.15"/>
<path fill-rule="evenodd" clip-rule="evenodd" d="M18.7587 13H25.2413C26.0463 13 26.7106 13 27.2518 13.0442C27.8139 13.0901 28.3306 13.1887 28.816 13.436C29.5686 13.8195 30.1805 14.4314 30.564 15.184C30.8113 15.6694 30.9099 16.1861 30.9558 16.7482C31 17.2894 31 17.9537 31 18.7587V25.2413C31 26.0463 31 26.7106 30.9558 27.2518C30.9099 27.8139 30.8113 28.3306 30.564 28.816C30.1805 29.5686 29.5686 30.1805 28.816 30.564C28.3306 30.8113 27.8139 30.9099 27.2518 30.9558C26.7106 31 26.0463 31 25.2413 31H18.7587C17.9537 31 17.2894 31 16.7482 30.9558C16.1861 30.9099 15.6694 30.8113 15.184 30.564C14.4314 30.1805 13.8195 29.5686 13.436 28.816C13.1887 28.3306 13.0901 27.8139 13.0442 27.2518C13 26.7106 13 26.0463 13 25.2413V18.7587C13 17.9537 13 17.2894 13.0442 16.7482C13.0901 16.1861 13.1887 15.6694 13.436 15.184C13.8195 14.4314 14.4314 13.8195 15.184 13.436C15.6694 13.1887 16.1861 13.0901 16.7482 13.0442C17.2894 13 17.9537 13 18.7587 13ZM16.911 15.0376C16.4726 15.0734 16.2484 15.1383 16.092 15.218C15.7157 15.4097 15.4097 15.7157 15.218 16.092C15.1383 16.2484 15.0734 16.4726 15.0376 16.911C15.0008 17.3611 15 17.9434 15 18.8V25.2C15 26.0566 15.0008 26.6389 15.0376 27.089C15.0734 27.5274 15.1383 27.7516 15.218 27.908C15.4097 28.2843 15.7157 28.5903 16.092 28.782C16.2484 28.8617 16.4726 28.9266 16.911 28.9624C17.3611 28.9992 17.9434 29 18.8 29H25.2C26.0566 29 26.6389 28.9992 27.089 28.9624C27.5274 28.9266 27.7516 28.8617 27.908 28.782C28.2843 28.5903 28.5903 28.2843 28.782 27.908C28.8617 27.7516 28.9266 27.5274 28.9624 27.089C28.9992 26.6389 29 26.0566 29 25.2V18.8C29 17.9434 28.9992 17.3611 28.9624 16.911C28.9266 16.4726 28.8617 16.2484 28.782 16.092C28.5903 15.7157 28.2843 15.4097 27.908 15.218C27.7516 15.1383 27.5274 15.0734 27.089 15.0376C26.6389 15.0008 26.0566 15 25.2 15H18.8C17.9434 15 17.3611 15.0008 16.911 15.0376Z" fill="#00A7DC"/>
<path fill-rule="evenodd" clip-rule="evenodd" d="M18 19C18.5523 19 19 18.5523 19 18C19 17.4477 18.5523 17 18 17C17.4477 17 17 17.4477 17 18C17 18.5523 17.4477 19 18 19ZM18 21C17.4477 21 17 21.4477 17 22V26C17 26.5523 17.4477 27 18 27C18.5523 27 19 26.5523 19 26V22C19 21.4477 18.5523 21 18 21ZM24 23C23.4477 23 23 23.4477 23 24V26C23 26.5523 22.5523 27 22 27C21.4477 27 21 26.5523 21 26V24V22C21 21.4477 21.4477 21 22 21C22.2759 21 22.5257 21.1117 22.7066 21.2924C23.0982 21.105 23.5369 21 24 21C25.6569 21 27 22.3431 27 24V26C27 26.5523 26.5523 27 26 27C25.4477 27 25 26.5523 25 26V24C25 23.4477 24.5523 23 24 23Z" fill="#00A7DC"/>
</svg>
