<svg width="15" height="15" viewBox="0 0 15 15" fill="none" xmlns="http://www.w3.org/2000/svg">
<g opacity="0.6">
<path d="M1.42193 14.8198C1.05419 14.8411 0.692512 14.7189 0.413167 14.4788C-0.137722 13.9246 -0.137722 13.0296 0.413167 12.4754L12.4758 0.412691C13.0488 -0.12346 13.9479 -0.0936559 14.4841 0.479318C14.9689 0.997456 14.9971 1.79385 14.5502 2.34502L2.41647 14.4788C2.14076 14.7154 1.78485 14.8375 1.42193 14.8198Z" fill="white"/>
<path d="M13.4704 14.8198C13.0976 14.8182 12.7404 14.6702 12.4758 14.4078L0.413053 2.345C-0.0973183 1.74901 -0.0279307 0.852068 0.568063 0.341651C1.1 -0.113884 1.88451 -0.113884 2.4164 0.341651L14.5502 12.4044C15.123 12.9407 15.1526 13.8398 14.6163 14.4126C14.595 14.4354 14.5729 14.4575 14.5502 14.4788C14.4032 14.6066 14.2315 14.7028 14.0457 14.7615C13.8599 14.8202 13.6641 14.84 13.4704 14.8198Z" fill="white"/>
</g>
</svg>
