<svg width="16" height="19" viewBox="0 0 16 19" fill="none" xmlns="http://www.w3.org/2000/svg">
<path d="M7.80605 9.15241C9.06339 9.15241 10.1522 8.70142 11.0418 7.81165C11.9314 6.92206 12.3824 5.83357 12.3824 4.57608C12.3824 3.31896 11.9314 2.23035 11.0417 1.34043C10.1519 0.450954 9.06324 0 7.80605 0C6.54852 0 5.45999 0.450954 4.5704 1.34058C3.68081 2.2302 3.22967 3.31884 3.22967 4.57608C3.22967 5.83357 3.68078 6.92221 4.57055 7.81183C5.46032 8.70131 6.54896 9.15241 7.80605 9.15241ZM15.8134 14.6101C15.7877 14.2399 15.7358 13.836 15.6594 13.4096C15.5823 12.9799 15.4831 12.5737 15.3642 12.2025C15.2414 11.8188 15.0744 11.4399 14.868 11.0767C14.6537 10.6998 14.4021 10.3716 14.1197 10.1016C13.8244 9.81908 13.4629 9.59193 13.0448 9.4262C12.6282 9.26144 12.1665 9.17794 11.6727 9.17794C11.4787 9.17794 11.2911 9.2575 10.9289 9.49337C10.6714 9.66105 10.4131 9.82755 10.1541 9.99286C9.90518 10.1515 9.568 10.3001 9.15152 10.4346C8.74521 10.5661 8.33267 10.6327 7.92546 10.6327C7.5183 10.6327 7.10587 10.5661 6.69911 10.4346C6.28311 10.3002 5.94594 10.1516 5.6973 9.99301C5.40896 9.80876 5.14808 9.64062 4.92179 9.49319C4.55997 9.25736 4.37224 9.17776 4.1783 9.17776C3.68426 9.17776 3.22273 9.2614 2.80626 9.42639C2.38848 9.59179 2.02681 9.81893 1.73123 10.1017C1.44902 10.3719 1.19723 10.6999 0.983255 11.0767C0.777001 11.4398 0.610008 11.8186 0.487065 12.2026C0.368315 12.5739 0.269047 12.9799 0.191933 13.4096C0.115525 13.8354 0.0636461 14.2394 0.0379664 14.6105C0.0124211 14.984 -0.000240771 15.3582 3.46654e-06 15.7325C3.46654e-06 16.7243 0.315285 17.5272 0.937016 18.1194C1.55107 18.7037 2.36354 19.0002 3.35158 19.0002H12.5002C13.4883 19.0002 14.3005 18.7039 14.9147 18.1194C15.5365 17.5277 15.8518 16.7246 15.8518 15.7324C15.8517 15.3495 15.8388 14.9719 15.8134 14.6101Z" fill="url(#paint0_linear_577_324)"/>
<defs>
<linearGradient id="paint0_linear_577_324" x1="0" y1="0" x2="16.1943" y2="0.296535" gradientUnits="userSpaceOnUse">
<stop stop-color="#0071FF"/>
<stop offset="1" stop-color="#54F0D1"/>
</linearGradient>
</defs>
</svg>
