<svg xmlns="http://www.w3.org/2000/svg" width="86.824" height="89.718" viewBox="0 0 86.824 89.718">
  <g id="Group_146517" data-name="Group 146517" transform="translate(-3538.588 -2880.141)">
    <g id="Group_146515" data-name="Group 146515" transform="translate(3522.588 2872.141)">
      <path id="Path_49677" data-name="Path 49677" d="M133.024,464H121.447a1.447,1.447,0,0,0,0,2.894h11.577a1.447,1.447,0,1,0,0-2.894Z" transform="translate(-85.188 -373.517)" fill="#738bab"/>
      <path id="Path_49678" data-name="Path 49678" d="M97.759,35.494H68.094V13.065A5.07,5.07,0,0,0,63.03,8H21.065A5.07,5.07,0,0,0,16,13.065V92.654a5.07,5.07,0,0,0,5.065,5.065H63.03a5.07,5.07,0,0,0,5.065-5.065V71.671H97.759a5.07,5.07,0,0,0,5.065-5.065V40.559a5.07,5.07,0,0,0-5.065-5.065Zm-48.884-24.6-.724,2.894H35.942l-.724-2.894ZM65.2,92.654a2.172,2.172,0,0,1-2.171,2.171H21.065a2.172,2.172,0,0,1-2.171-2.171V13.065a2.172,2.172,0,0,1,2.171-2.171h11.17l1.174,4.692a1.447,1.447,0,0,0,1.4,1.1H49.283a1.447,1.447,0,0,0,1.4-1.1l1.174-4.692H63.03A2.172,2.172,0,0,1,65.2,13.065ZM68.094,57.2h4.341v5.788H68.094ZM99.93,66.606a2.172,2.172,0,0,1-2.171,2.171H68.094V65.883h5.788a1.447,1.447,0,0,0,1.447-1.447V55.753a1.447,1.447,0,0,0-1.447-1.447H68.094V49.965H99.93Zm0-19.535H68.094V44.177H99.93Zm0-5.788H68.094V38.388H97.759a2.172,2.172,0,0,1,2.171,2.171Z" fill="#738bab"/>
      <path id="Path_49679" data-name="Path 49679" d="M134.906,178.812H121.883a1.447,1.447,0,1,0,0,2.894h13.024a1.447,1.447,0,0,0,0-2.894Zm0,4.341H121.883a1.447,1.447,0,1,0,0,2.894h13.024a1.447,1.447,0,0,0,0-2.894Zm0,4.341h-5.788a1.447,1.447,0,0,0,0,2.894h5.788a1.447,1.447,0,0,0,0-2.894ZM81.365,160A17.365,17.365,0,1,0,98.73,177.365,17.365,17.365,0,0,0,81.365,160Zm0,31.836a14.471,14.471,0,1,1,14.471-14.471A14.471,14.471,0,0,1,81.365,191.836Z" transform="translate(-39.318 -124.506)" fill="#738bab"/>
      <path id="Path_49680" data-name="Path 49680" d="M128.341,224.424l-9.242,9.242-4.784-3.588a1.447,1.447,0,0,0-1.736,2.315l5.788,4.341a1.447,1.447,0,0,0,1.891-.134l10.129-10.129a1.447,1.447,0,1,0-2.047-2.047Z" transform="translate(-78.635 -176.929)" fill="#738bab"/>
    </g>
    <g id="Group_146516" data-name="Group 146516" transform="translate(3545.032 2905.122)">
      <path id="Path_49681" data-name="Path 49681" d="M19.843,2c-23.624.766-23.624,34.99,0,35.756C43.468,36.99,43.468,2.766,19.843,2Z" fill="#f44336"/>
      <path id="Path_49682" data-name="Path 49682" d="M19.419,17.632l5.363-5.363a1.265,1.265,0,0,0-1.788-1.788l-5.363,5.363L12.268,10.48a1.265,1.265,0,0,0-1.788,1.788l5.363,5.363L10.48,22.995a1.265,1.265,0,0,0,1.788,1.788l5.363-5.363,5.363,5.363a1.265,1.265,0,0,0,1.788-1.788Z" transform="translate(2.212 2.246)" fill="#eee"/>
    </g>
  </g>
</svg>
