<svg width="300" height="198" viewBox="0 0 300 198" fill="none" xmlns="http://www.w3.org/2000/svg">
<mask id="mask0_266_4864" style="mask-type:luminance" maskUnits="userSpaceOnUse" x="0" y="0" width="300" height="198">
<path d="M300 0H0V197.136H300V0Z" fill="white"/>
</mask>
<g mask="url(#mask0_266_4864)">
<path d="M221.27 104.108H79.8294C75.7004 104.108 72.3721 100.756 72.3721 96.6536V8.10379C72.3721 3.97658 75.7254 0.649536 79.8294 0.649536H221.27C225.399 0.649536 228.728 4.0016 228.728 8.10379V96.6536C228.728 100.756 225.374 104.108 221.27 104.108Z" fill="#0D2458"/>
<path d="M228.728 17.085H72.3472V8.07998C72.3472 3.95277 75.7005 0.625977 79.8047 0.625977H221.247C225.374 0.625977 228.703 3.97779 228.703 8.07998V17.085H228.728Z" fill="#020713"/>
<path d="M228.728 68.4131V96.6288C228.728 100.756 225.374 104.083 221.27 104.083H79.8294C75.7004 104.083 72.3721 100.731 72.3721 96.6288V79.6943" stroke="#0D2458" stroke-width="1.26369" stroke-miterlimit="10" stroke-linecap="round" stroke-linejoin="round"/>
<path d="M130.581 0.625977H221.247C225.377 0.625977 228.703 3.97779 228.703 8.07998V61.8603" stroke="#0D2458" stroke-width="1.26369" stroke-miterlimit="10" stroke-linecap="round" stroke-linejoin="round"/>
<path d="M206.355 104.109V17.0856H94.7451V117.367V157.664H161.587H183.96H195.147C201.326 157.664 206.333 152.662 206.333 146.483L206.355 104.109Z" fill="#020713"/>
<path d="M72.3472 24.2641V8.07998C72.3472 3.95277 75.7005 0.625977 79.8047 0.625977H101.026" stroke="#0D2458" stroke-width="1.26369" stroke-miterlimit="10" stroke-linecap="round" stroke-linejoin="round"/>
<path d="M72.3472 68.4138V37.9718" stroke="#0D2458" stroke-width="1.26369" stroke-miterlimit="10" stroke-linecap="round" stroke-linejoin="round"/>
<path d="M112.562 0.625977H124.649" stroke="#0D2458" stroke-width="1.26369" stroke-miterlimit="10" stroke-linecap="round" stroke-linejoin="round"/>
<path d="M148.248 17.0856H72.3472" stroke="#0D2458" stroke-width="1.26369" stroke-miterlimit="10" stroke-linecap="round" stroke-linejoin="round"/>
<path d="M228.73 17.0856H162.838" stroke="#0D2458" stroke-width="1.26369" stroke-miterlimit="10" stroke-linecap="round" stroke-linejoin="round"/>
<path d="M81.9069 12.0323C83.6622 12.0323 85.0851 10.6099 85.0851 8.85537C85.0851 7.10087 83.6622 5.67871 81.9069 5.67871C80.1517 5.67871 78.7288 7.10087 78.7288 8.85537C78.7288 10.6099 80.1517 12.0323 81.9069 12.0323Z" fill="#00A7DC"/>
<path d="M93.1933 12.0323C94.9486 12.0323 96.3715 10.6099 96.3715 8.85537C96.3715 7.10087 94.9486 5.67871 93.1933 5.67871C91.4381 5.67871 90.0151 7.10087 90.0151 8.85537C90.0151 10.6099 91.4381 12.0323 93.1933 12.0323Z" fill="#00A7DC"/>
<path d="M104.479 12.0323C106.235 12.0323 107.658 10.6099 107.658 8.85537C107.658 7.10087 106.235 5.67871 104.479 5.67871C102.724 5.67871 101.301 7.10087 101.301 8.85537C101.301 10.6099 102.724 12.0323 104.479 12.0323Z" fill="#00A7DC"/>
<path d="M145.12 85.6979H180.556" stroke="#00A7DC" stroke-width="1.26369" stroke-miterlimit="10" stroke-linecap="round" stroke-linejoin="round"/>
<path d="M145.12 95.1538H160.46" stroke="#00A7DC" stroke-width="1.26369" stroke-miterlimit="10" stroke-linecap="round" stroke-linejoin="round"/>
<path d="M145.12 90.4248H180.556" stroke="#00A7DC" stroke-width="1.26369" stroke-miterlimit="10" stroke-linecap="round" stroke-linejoin="round"/>
<path d="M195.02 157.663H161.586V128.547C161.586 122.368 166.591 117.365 172.772 117.365C175.875 117.365 178.653 118.616 180.68 120.642C182.707 122.668 183.958 125.47 183.958 128.547V146.457C183.958 152.61 188.889 157.588 195.02 157.663Z" fill="#00A7DC" stroke="#00A7DC" stroke-width="1.26369" stroke-miterlimit="10" stroke-linecap="round" stroke-linejoin="round"/>
<path d="M204.129 153.162C204.03 153.312 203.904 153.437 203.805 153.587C203.578 153.862 203.328 154.137 203.077 154.388C202.878 154.588 202.703 154.763 202.478 154.938C202.403 154.988 202.352 155.063 202.279 155.113C202.152 155.213 202.003 155.338 201.852 155.438C201.703 155.538 201.551 155.638 201.427 155.738C201.202 155.888 200.977 156.038 200.752 156.164C200.626 156.239 200.502 156.314 200.35 156.389C199.85 156.664 199.324 156.889 198.773 157.064C198.349 157.214 197.899 157.339 197.449 157.414C197.373 157.439 197.297 157.439 197.247 157.464C197.123 157.489 196.997 157.514 196.873 157.539C196.322 157.614 195.771 157.664 195.22 157.664H195.071C188.965 157.589 184.034 152.612 184.034 146.483V128.573C184.034 125.471 182.783 122.695 180.756 120.668C178.729 118.643 175.926 117.392 172.847 117.392C166.667 117.392 161.662 122.395 161.662 128.573V157.689H94.7451V17.0856" stroke="#0D2458" stroke-width="1.26369" stroke-miterlimit="10" stroke-linecap="round" stroke-linejoin="round"/>
<path d="M206.355 17.0856V136.778" stroke="#0D2458" stroke-width="1.26369" stroke-miterlimit="10" stroke-linecap="round" stroke-linejoin="round"/>
<path d="M183.958 146.482V128.547" stroke="#0D2458" stroke-width="1.26369" stroke-miterlimit="10" stroke-linecap="round" stroke-linejoin="round"/>
<path d="M168.569 117.365C167.818 117.99 167.118 118.691 166.542 119.491C163.739 121.517 161.912 124.819 161.912 128.547V185.328C161.912 191.507 156.907 196.509 150.726 196.509C147.623 196.509 144.845 195.258 142.818 193.233C140.791 191.206 139.54 188.406 139.54 185.328V177.973H50.3005V128.547C50.3005 122.368 55.3058 117.365 61.4867 117.365H168.569Z" fill="#020713"/>
<path d="M101.051 126.247H148.248" stroke="#00A7DC" stroke-width="1.26369" stroke-miterlimit="10" stroke-linecap="round" stroke-linejoin="round"/>
<path d="M145.12 39.3224H180.556" stroke="#00A7DC" stroke-width="1.26369" stroke-miterlimit="10" stroke-linecap="round" stroke-linejoin="round"/>
<path d="M145.12 48.7764H160.46" stroke="#00A7DC" stroke-width="1.26369" stroke-miterlimit="10" stroke-linecap="round" stroke-linejoin="round"/>
<path d="M145.12 44.0494H180.556" stroke="#00A7DC" stroke-width="1.26369" stroke-miterlimit="10" stroke-linecap="round" stroke-linejoin="round"/>
<path d="M119.344 137.553H148.248H119.344Z" fill="#00A7DC"/>
<path d="M119.344 137.553H148.248" stroke="#00A7DC" stroke-width="1.26369" stroke-miterlimit="10" stroke-linecap="round" stroke-linejoin="round"/>
<path d="M73.6482 137.553H112.337" stroke="#00A7DC" stroke-width="1.26369" stroke-miterlimit="10" stroke-linecap="round" stroke-linejoin="round"/>
<path d="M95.9209 148.884H106.081H132.583" fill="#00A7DC"/>
<path d="M95.9209 148.884H106.081H132.583" stroke="#00A7DC" stroke-width="1.26369" stroke-miterlimit="10" stroke-linecap="round" stroke-linejoin="round"/>
<path d="M63.1135 148.884H85.561" stroke="#00A7DC" stroke-width="1.26369" stroke-miterlimit="10" stroke-linecap="round" stroke-linejoin="round"/>
<path d="M129.029 160.19H148.248" stroke="#00A7DC" stroke-width="1.26369" stroke-miterlimit="10" stroke-linecap="round" stroke-linejoin="round"/>
<path d="M63.1135 160.19H122.923" stroke="#00A7DC" stroke-width="1.26369" stroke-miterlimit="10" stroke-linecap="round" stroke-linejoin="round"/>
<path d="M63.1135 171.497H111.387" stroke="#00A7DC" stroke-width="1.26369" stroke-miterlimit="10" stroke-linecap="round" stroke-linejoin="round"/>
<path d="M161.587 182.876V128.547C161.587 126.095 162.363 123.844 163.714 121.993C164.29 121.192 164.965 120.492 165.716 119.866C167.643 118.291 170.095 117.365 172.774 117.365H142.993" stroke="#0D2458" stroke-width="1.26369" stroke-miterlimit="10" stroke-linecap="round" stroke-linejoin="round"/>
<path d="M49.9749 134.099V128.547C49.9749 122.368 54.9801 117.365 61.161 117.365H133.784" stroke="#0D2458" stroke-width="1.26369" stroke-miterlimit="10" stroke-linecap="round" stroke-linejoin="round"/>
<path d="M158.759 192.783C156.707 195.086 153.729 196.537 150.4 196.537C147.297 196.537 144.52 195.286 142.492 193.259C140.465 191.234 139.214 188.431 139.214 185.356V178.001H49.9749V148.884" stroke="#0D2458" stroke-width="1.26369" stroke-miterlimit="10" stroke-linecap="round" stroke-linejoin="round"/>
<path d="M150.4 196.511H38.7138C32.5326 196.511 27.5276 191.507 27.5276 185.33V177.975H139.214V185.33C139.214 188.431 140.466 191.206 142.493 193.233C144.52 195.26 147.297 196.511 150.4 196.511Z" fill="#020713"/>
<path d="M150.4 196.511H38.7138C32.5326 196.511 27.5276 191.507 27.5276 185.33V177.975H139.214V185.33C139.214 188.431 140.466 191.206 142.493 193.233C144.52 195.26 147.297 196.511 150.4 196.511Z" fill="#00A7DC" stroke="#00A7DC" stroke-width="1.26369" stroke-miterlimit="10" stroke-linecap="round" stroke-linejoin="round"/>
<path d="M181.582 111.063H181.557" stroke="#0D2458" stroke-width="1.26369" stroke-miterlimit="10" stroke-linecap="round" stroke-linejoin="round"/>
<path d="M256.582 109.261C254.429 107.635 251.027 108.085 248.699 110.437C246.346 112.788 245.896 116.19 247.524 118.316C228.68 132.724 201.602 131.299 184.385 114.089C183.409 113.113 182.482 112.088 181.607 111.062C200.452 126.996 228.73 126.07 246.523 108.285C264.316 90.5006 265.241 62.2346 249.301 43.374C250.35 44.2495 251.353 45.175 252.329 46.1506C269.57 63.3603 270.996 90.4255 256.582 109.261Z" fill="#0D2458" stroke="#0D2458" stroke-width="1.26369" stroke-miterlimit="10" stroke-linecap="round" stroke-linejoin="round"/>
<path d="M249.349 43.3503C248.474 42.2997 247.547 41.2991 246.546 40.3235C227.778 21.5631 197.323 21.5631 178.554 40.3235C159.785 59.084 159.785 89.5261 178.554 108.287C179.53 109.262 180.556 110.188 181.582 111.063C200.477 126.997 228.728 126.047 246.521 108.262C264.339 90.5016 265.266 62.2359 249.349 43.3503Z" fill="#00A7DC"/>
<path d="M164.515 76.7429C165.09 88.2245 169.77 99.5057 178.529 108.286C179.505 109.261 180.531 110.187 181.557 111.062C200.451 126.996 228.728 126.071 246.521 108.286C264.313 90.5007 265.241 62.2349 249.323 43.3741C248.449 42.3237 247.521 41.3231 246.546 40.3476C232.832 26.6398 212.889 22.9377 195.821 29.2663" stroke="#0D2458" stroke-width="1.26369" stroke-miterlimit="10" stroke-linecap="round" stroke-linejoin="round"/>
<path d="M186.837 99.9555C172.648 85.7726 172.648 62.8098 186.837 48.6267C201.025 34.4438 223.999 34.4438 238.188 48.6267C239.163 49.6022 240.091 50.6279 240.94 51.7035C226.676 40.3472 205.855 41.2477 192.667 54.4551C179.479 67.6374 178.554 88.4491 189.915 102.707C188.864 101.857 187.837 100.956 186.837 99.9555Z" fill="#0D2458" stroke="#0D2458" stroke-width="1.26369" stroke-miterlimit="10" stroke-linecap="round" stroke-linejoin="round"/>
<path d="M238.213 99.9563C225.025 113.139 204.205 114.064 189.94 102.708C178.58 88.4499 179.479 67.6382 192.692 54.4559C205.88 41.2733 226.701 40.3478 240.965 51.7043C252.329 65.9623 251.401 86.774 238.213 99.9563Z" fill="#020713"/>
<path d="M230.229 106.01C217.567 113.089 201.551 111.989 189.915 102.733C178.554 88.4755 179.454 67.6638 192.667 54.4815C205.855 41.2991 226.675 40.3736 240.94 51.7299C248.449 61.1353 250.6 73.3921 247.397 84.4233" stroke="#0D2458" stroke-width="1.26369" stroke-miterlimit="10" stroke-linecap="round" stroke-linejoin="round"/>
<path d="M241.117 96.6801C240.215 97.8057 239.265 98.9064 238.213 99.9571C237.313 100.858 236.386 101.683 235.436 102.458" stroke="#0D2458" stroke-width="1.26369" stroke-miterlimit="10" stroke-linecap="round" stroke-linejoin="round"/>
<path d="M298.147 145.332C295.921 143.631 291.215 145.257 287.338 149.109C283.484 152.961 281.856 157.664 283.559 159.915L247.898 118.792C247.746 118.642 247.623 118.492 247.496 118.342C245.871 116.19 246.321 112.789 248.674 110.462C251.027 108.111 254.429 107.636 256.557 109.287C256.731 109.412 256.883 109.537 257.007 109.687L298.147 145.332Z" fill="#00A7DC"/>
<path d="M278.828 128.548L298.173 145.307C295.946 143.606 291.24 145.232 287.363 149.084C283.509 152.936 281.881 157.639 283.582 159.89L247.898 118.792C247.746 118.642 247.623 118.492 247.496 118.342C245.871 116.19 246.321 112.789 248.674 110.462C251.027 108.111 254.429 107.636 256.557 109.287C256.731 109.412 256.883 109.537 257.007 109.687L270.144 121.068" stroke="#0D2458" stroke-width="1.26369" stroke-miterlimit="10" stroke-linecap="round" stroke-linejoin="round"/>
<path d="M298.448 145.582L298.147 145.332" stroke="#0D2458" stroke-width="1.26369" stroke-miterlimit="10" stroke-linecap="round" stroke-linejoin="round"/>
<path d="M283.835 160.19L283.585 159.89" stroke="#0D2458" stroke-width="1.26369" stroke-miterlimit="10" stroke-linecap="round" stroke-linejoin="round"/>
<path d="M294.92 156.663C290.891 160.691 285.91 162.267 283.835 160.19C283.734 160.091 283.658 159.99 283.585 159.89C281.881 157.664 283.509 152.961 287.363 149.084C291.217 145.232 295.921 143.606 298.173 145.307C298.274 145.382 298.372 145.482 298.473 145.557C300.551 147.658 298.974 152.636 294.92 156.663Z" fill="#0D2458" stroke="#0D2458" stroke-width="1.26369" stroke-miterlimit="10" stroke-linecap="round" stroke-linejoin="round"/>
<path d="M210.786 68.4131C210.786 72.0399 207.831 74.9916 204.205 74.9916C200.575 74.9916 197.623 72.0399 197.623 68.4131" stroke="#00A7DC" stroke-width="1.26369" stroke-miterlimit="10" stroke-linecap="round" stroke-linejoin="round"/>
<path d="M235.986 68.4131C235.986 72.0399 233.032 74.9916 229.403 74.9916C225.776 74.9916 222.821 72.0399 222.821 68.4131" stroke="#00A7DC" stroke-width="1.26369" stroke-miterlimit="10" stroke-linecap="round" stroke-linejoin="round"/>
<path d="M216.816 90.5267C218.808 90.5267 220.42 88.914 220.42 86.9247C220.42 84.9354 218.808 83.3226 216.816 83.3226C214.827 83.3226 213.212 84.9354 213.212 86.9247C213.212 88.914 214.827 90.5267 216.816 90.5267Z" fill="#00A7DC" stroke="#00A7DC" stroke-width="1.26369" stroke-miterlimit="10" stroke-linecap="round" stroke-linejoin="round"/>
<path d="M100.776 57.6815C97.4729 57.1561 95.3709 54.3047 95.3709 51.303C95.3709 50.0271 95.7463 48.7265 96.597 47.5758C99.9753 42.8981 96.0965 37.32 91.3918 37.32C90.1405 37.32 88.8644 37.6953 87.6382 38.5958C83.7591 41.3974 78.3038 39.121 77.5279 34.4185C76.9524 30.8165 74.0494 29.0155 71.1715 29.0155C68.2938 29.0155 65.4159 30.8165 64.8152 34.4185C64.2897 37.7203 61.4368 39.8216 58.4588 39.8216C57.1827 39.8216 55.8814 39.4463 54.7051 38.5958C50.0254 35.219 44.445 39.096 44.445 43.7987C44.445 45.0495 44.8203 46.325 45.7211 47.5508C46.547 48.7015 46.9473 50.0021 46.9473 51.2779C46.9473 54.2547 44.8453 57.1061 41.542 57.6565C37.9385 58.2318 36.1365 61.1335 36.1365 64.0101C36.1365 66.8868 37.9385 69.7632 41.542 70.3637C44.8453 70.8889 46.9473 73.7405 46.9473 76.7423C46.9473 78.0179 46.572 79.3187 45.7211 80.4694C42.3427 85.1468 46.2217 90.725 50.9265 90.725C52.1527 90.725 53.4538 90.35 54.6801 89.4494C58.5591 86.6479 64.0145 88.924 64.7901 93.6267C65.9664 100.831 76.3269 100.831 77.5029 93.6267C78.0286 90.3249 80.8815 88.2237 83.8592 88.2237C85.1355 88.2237 86.4369 88.599 87.6131 89.4494C92.2928 92.8263 97.8733 88.949 97.8733 84.2463C97.8733 82.9958 97.498 81.72 96.597 80.4942C95.7713 79.3437 95.3709 78.0429 95.3709 76.7673C95.3709 73.7906 97.4729 70.9389 100.776 70.3887C104.38 69.8132 106.182 66.9118 106.182 64.0351C106.182 61.1585 104.38 58.2568 100.776 57.6815ZM71.1465 75.1662C64.9906 75.1662 60.0104 70.1885 60.0104 64.0351C60.0104 57.8817 64.9906 52.9038 71.1465 52.9038C77.3027 52.9038 82.2826 57.8817 82.2826 64.0351C82.2826 70.1885 77.3027 75.1662 71.1465 75.1662Z" fill="#00A7DC"/>
<path d="M95.2953 51.328C95.2953 50.0522 95.6707 48.7516 96.5216 47.6008C99.9 42.9232 96.0212 37.345 91.3165 37.345C90.0652 37.345 88.7889 37.7203 87.5626 38.6208C83.6838 41.4224 78.2284 39.146 77.4525 34.4436C76.827 30.8165 73.9491 29.0155 71.0712 29.0155C68.1932 29.0155 65.3153 30.8165 64.7148 34.4185C64.1894 37.7203 61.3365 39.8216 58.3584 39.8216C57.0821 39.8216 55.7808 39.4463 54.6048 38.5958C51.6768 36.4945 48.3985 37.2201 46.3716 39.196" stroke="#0D2458" stroke-width="1.26369" stroke-miterlimit="10" stroke-linecap="round" stroke-linejoin="round"/>
<path d="M60.6855 88.6754C62.7128 89.4508 64.3394 91.2267 64.7147 93.6533C65.8909 100.857 76.2512 100.857 77.4274 93.6533C77.9529 90.3513 80.8058 88.2503 83.7838 88.2503C85.0601 88.2503 86.3612 88.6253 87.5374 89.4758C92.2171 92.8526 97.7978 88.9756 97.7978 84.2729C97.7978 83.0221 97.4223 81.7465 96.5215 80.5208C95.6956 79.37 95.2952 78.0695 95.2952 76.7936C95.2952 73.8171 97.3973 70.9655 100.701 70.415" stroke="#0D2458" stroke-width="1.26369" stroke-miterlimit="10" stroke-linecap="round" stroke-linejoin="round"/>
<path d="M45.6205 47.5758C46.4464 48.7265 46.8468 50.0271 46.8468 51.3029C46.8468 54.2797 44.7445 57.1313 41.4412 57.6815C37.8377 58.2568 36.0359 61.1585 36.0359 64.0351C36.0359 66.9118 37.8377 69.7884 41.4412 70.3887C44.7445 70.9139 46.8468 73.7655 46.8468 76.7673C46.8468 78.0429 46.4714 79.3437 45.6205 80.4944C42.6675 84.5966 45.2702 89.3744 49.1239 90.4998" stroke="#0D2458" stroke-width="1.26369" stroke-miterlimit="10" stroke-linecap="round" stroke-linejoin="round"/>
<path d="M80.3048 70.2648C78.3028 73.2166 74.9245 75.1675 71.0707 75.1675C64.9145 75.1675 59.9346 70.1898 59.9346 64.0364C59.9346 57.8829 64.9145 52.905 71.0707 52.905C75.6251 52.905 79.5291 55.6316 81.2558 59.5338" stroke="#0D2458" stroke-width="1.26369" stroke-miterlimit="10" stroke-linecap="round" stroke-linejoin="round"/>
<path d="M67.7678 109.386C67.6427 109.386 67.5176 109.386 67.3675 109.386C63.9389 109.586 61.1112 106.86 61.1112 103.483C61.1112 103.358 61.1112 103.258 61.1112 103.133C61.3364 99.2553 58.2333 96.854 55.1302 96.854C53.1032 96.854 51.076 97.8546 49.925 100.131C48.3485 103.283 44.3443 104.358 41.3913 102.407C37.0872 99.5805 32.1823 103.082 32.1823 107.335C32.1823 108.41 32.4826 109.511 33.2082 110.587C33.859 111.587 34.1843 112.713 34.1843 113.813C34.1843 115.965 33.008 118.066 30.931 119.116C25.3003 121.943 27.4276 130.323 33.5335 130.323C33.6586 130.323 33.7839 130.323 33.9341 130.323C37.3374 130.123 40.1903 132.849 40.1903 136.226C40.1903 136.351 40.1903 136.451 40.1903 136.576C39.9649 140.453 43.068 142.855 46.1711 142.855C48.1983 142.855 50.2253 141.854 51.3765 139.578C52.4274 137.502 54.5297 136.326 56.6817 136.326C57.7829 136.326 58.9089 136.651 59.91 137.302C64.2144 140.128 69.1192 136.626 69.1192 132.374C69.1192 131.298 68.8187 130.198 68.0931 129.122C67.4426 128.121 67.117 126.996 67.117 125.895C67.117 123.744 68.2933 121.643 70.3703 120.592C76.001 117.766 73.899 109.386 67.7678 109.386ZM50.6507 127.121C46.6468 127.121 43.3935 123.869 43.3935 119.867C43.3935 115.865 46.6468 112.613 50.6507 112.613C54.6548 112.613 57.908 115.865 57.908 119.867C57.908 123.869 54.6548 127.121 50.6507 127.121Z" fill="#00A7DC"/>
<path d="M66.8416 136.777C68.193 135.676 69.094 134 69.094 132.174C69.094 131.099 68.7935 129.998 68.0679 128.923C67.4173 127.922 67.0918 126.796 67.0918 125.696C67.0918 123.545 68.268 121.443 70.345 120.393C75.9758 117.566 73.8487 109.187 67.7426 109.187C67.6175 109.187 67.4924 109.187 67.3423 109.187C63.9136 109.387 61.086 106.66 61.086 103.283C61.086 103.158 61.086 103.058 61.086 102.933C61.3112 99.0558 58.2081 96.6545 55.1049 96.6545C53.078 96.6545 51.0508 97.6551 49.8998 99.9313C48.6735 102.383 45.9707 103.583 43.4434 103.083" stroke="#0D2458" stroke-width="1.26369" stroke-miterlimit="10" stroke-linecap="round" stroke-linejoin="round"/>
<path d="M40.1654 136.052C40.1654 136.177 40.1654 136.277 40.1654 136.402C39.9402 140.279 43.0433 142.681 46.1462 142.681C48.1734 142.681 50.2003 141.68 51.3516 139.404C52.4024 137.328 54.5047 136.152 56.6568 136.152C57.3326 136.152 58.0082 136.277 58.6587 136.502" stroke="#0D2458" stroke-width="1.26369" stroke-miterlimit="10" stroke-linecap="round" stroke-linejoin="round"/>
<path d="M34.6846 102.383C33.1831 103.483 32.1822 105.259 32.1822 107.16C32.1822 108.236 32.4825 109.336 33.2081 110.412C33.8589 111.413 34.1842 112.538 34.1842 113.639C34.1842 115.79 33.0079 117.891 30.9309 118.942" stroke="#0D2458" stroke-width="1.26369" stroke-miterlimit="10" stroke-linecap="round" stroke-linejoin="round"/>
<path d="M46.3462 113.814C47.5472 112.938 49.0237 112.413 50.6253 112.413C54.6294 112.413 57.8827 115.665 57.8827 119.667C57.8827 123.669 54.6294 126.921 50.6253 126.921C46.6214 126.921 43.3682 123.669 43.3682 119.667" stroke="#0D2458" stroke-width="1.26369" stroke-miterlimit="10" stroke-linecap="round" stroke-linejoin="round"/>
<path d="M12.8129 76.2419L18.3936 82.6706L1.57666 86.9479L17.3925 92.8264L9.1593 101.881L23.7989 97.729L24.1242 102.382L29.7799 99.4049" stroke="#0D2458" stroke-width="1.26369" stroke-miterlimit="10" stroke-linecap="round" stroke-linejoin="round"/>
<path d="M31.2566 70.3141L25.3756 63.5855L23.1985 72.2402L0.625977 62.0845L9.38461 72.2653" stroke="#0D2458" stroke-width="1.26369" stroke-miterlimit="10" stroke-linecap="round" stroke-linejoin="round"/>
<path d="M257.909 36.2693L269.396 24.788" stroke="#00A7DC" stroke-width="1.26369" stroke-miterlimit="10" stroke-linecap="round" stroke-linejoin="round"/>
<path d="M262.238 44.0234L269.919 41.8223" stroke="#00A7DC" stroke-width="1.26369" stroke-miterlimit="10" stroke-linecap="round" stroke-linejoin="round"/>
<path d="M250.15 31.942L252.354 24.2628" stroke="#00A7DC" stroke-width="1.26369" stroke-miterlimit="10" stroke-linecap="round" stroke-linejoin="round"/>
<path d="M223.974 143.656H173.073V176.699H223.974V143.656Z" fill="#020713"/>
<path d="M213.19 143.581H173.073V176.624H185.735" stroke="#0D2458" stroke-width="1.26369" stroke-miterlimit="10" stroke-linecap="round" stroke-linejoin="round"/>
<path d="M223.999 159.89V143.581" stroke="#0D2458" stroke-width="1.26369" stroke-miterlimit="10" stroke-linecap="round" stroke-linejoin="round"/>
<path d="M121.571 59.5327C130.126 59.5327 137.062 52.6003 137.062 44.0489C137.062 35.4975 130.126 28.5652 121.571 28.5652C113.016 28.5652 106.081 35.4975 106.081 44.0489C106.081 52.6003 113.016 59.5327 121.571 59.5327Z" fill="#00A7DC" fill-opacity="0.15"/>
<path d="M125.6 44.0489L130.28 39.3715C130.655 38.9962 130.655 38.3459 130.28 37.9706L127.852 35.5443C127.477 35.169 126.826 35.169 126.451 35.5443L121.771 40.222L117.092 35.5443C116.716 35.169 116.065 35.169 115.69 35.5443L113.263 37.9706C112.887 38.3459 112.887 38.9962 113.263 39.3715L117.942 44.0489L112.562 49.427L115.69 52.5538C116.065 52.9291 116.716 52.9291 117.092 52.5538L121.771 47.8761L126.451 52.5538C126.826 52.9291 127.477 52.9291 127.852 52.5538L130.28 50.1275C130.655 49.7522 130.655 49.1019 130.28 48.7266L125.6 44.0489Z" fill="#00A7DC"/>
<path d="M121.571 105.91C130.126 105.91 137.062 98.9778 137.062 90.4264C137.062 81.875 130.126 74.9426 121.571 74.9426C113.016 74.9426 106.081 81.875 106.081 90.4264C106.081 98.9778 113.016 105.91 121.571 105.91Z" fill="#00A7DC" fill-opacity="0.15"/>
<path d="M125.6 90.4262L130.28 85.7488C130.655 85.3735 130.655 84.7232 130.28 84.3479L127.852 81.9216C127.477 81.5463 126.826 81.5463 126.451 81.9216L121.771 86.5993L117.092 81.9216C116.716 81.5463 116.065 81.5463 115.69 81.9216L113.263 84.3479C112.887 84.7232 112.887 85.3735 113.263 85.7488L117.942 90.4262L112.562 95.8043L115.69 98.9311C116.065 99.3064 116.716 99.3064 117.092 98.9311L121.771 94.2535L126.451 98.9311C126.826 99.3064 127.477 99.3064 127.852 98.9311L130.28 96.5049C130.655 96.1295 130.655 95.4792 130.28 95.1039L125.6 90.4262Z" fill="#00A7DC"/>
</g>
</svg>
