<svg width="293" height="60" viewBox="0 0 293 60" fill="none" xmlns="http://www.w3.org/2000/svg">
<g filter="url(#filter0_b_2034_21445)">
<path fill-rule="evenodd" clip-rule="evenodd" d="M60 30C60 46.5685 46.5685 60 30 60C13.4315 60 0 46.5685 0 30C0 13.4315 13.4315 0 30 0C46.5685 0 60 13.4315 60 30ZM37.7724 25.6635L42.279 33.6443H42.2646L42.3339 33.7655L44.4442 32.5181L36.5103 18.4486L36.5108 18.4483C35.3734 16.4295 31.1324 8.90388 31.1237 8.89797C31.0537 8.7719 30.9546 8.66533 30.8351 8.5876C30.7083 8.514 30.5651 8.4753 30.4193 8.47528C30.2731 8.47421 30.1293 8.51407 30.0036 8.59056C29.8838 8.66152 29.7842 8.76345 29.7149 8.88614L24.9225 17.3606L28.2339 19.3203C28.8935 19.7125 29.4253 20.2953 29.7627 20.9957C30.1001 21.6961 30.2281 22.4829 30.1306 23.2575C30.0616 23.7705 29.8969 24.2652 29.6456 24.7147C29.5303 24.9142 29.401 25.1049 29.2588 25.2852C29.1178 25.4584 28.9623 25.6187 28.794 25.764C28.6242 25.9105 28.4427 26.042 28.2512 26.1571C28.0575 26.2728 27.8547 26.3717 27.6449 26.4527L21.2359 28.8795L25.7424 20.8987V20.8898L25.8088 20.7686L23.6985 19.5213L15.7593 33.6L28.4937 28.7819C29.1777 28.5216 29.8133 28.1438 30.3731 27.6646C30.6507 27.4214 30.9084 27.1555 31.144 26.8695C31.3751 26.5852 31.5827 26.2817 31.7647 25.9621C32.598 24.4811 32.8229 22.7219 32.3898 21.0713C31.9567 19.4206 30.9011 18.0136 29.4551 17.1596L28.2368 16.4413L30.4078 12.5987L34.4033 19.6927L36.5028 18.453L34.233 32.1516C34.106 32.8868 34.106 33.6392 34.233 34.3744C34.2977 34.7421 34.3943 35.1032 34.5217 35.4533C34.643 35.802 34.7957 36.1385 34.9779 36.4583C35.3898 37.1909 35.9387 37.8333 36.5931 38.3487C37.2476 38.8641 37.9949 39.2424 38.7922 39.462C39.5896 39.6816 40.4214 39.7382 41.2401 39.6286C42.0588 39.5189 42.8484 39.2452 43.5637 38.8229L44.782 38.1017L46.953 41.9443H38.959V44.4243L28.5168 35.539C28.2369 35.3003 27.9375 35.0867 27.6218 34.9005C26.6715 34.3412 25.5943 34.0477 24.4981 34.0493C22.8338 34.0485 21.2371 34.7236 20.0583 35.9267C18.8795 37.1297 18.2149 38.7623 18.2103 40.4664V41.9443H13.8799L17.8783 34.8503L15.7708 33.6059C15.561 33.9778 15.2453 34.537 14.8701 35.202C13.211 38.1415 10.3866 43.146 10.3866 43.1533C10.3148 43.282 10.277 43.4277 10.2769 43.5759C10.2769 43.7251 10.3147 43.8718 10.3866 44.0016C10.4596 44.1287 10.5639 44.2341 10.689 44.3072C10.8141 44.3803 10.9557 44.4186 11.0997 44.4184H20.6469V40.493C20.6458 39.9751 20.7444 39.462 20.9371 38.9831C21.1298 38.5043 21.4128 38.069 21.77 37.7022C22.1271 37.3354 22.5514 37.0443 23.0186 36.8456C23.4857 36.6469 23.9865 36.5444 24.4924 36.544C24.7188 36.5446 24.9447 36.5644 25.1679 36.6031C25.3854 36.6397 25.599 36.6971 25.8059 36.7745C26.2263 36.9285 26.6171 37.1566 26.9607 37.4485L32.2237 41.9266H23.225H23.0806V44.4243H38.959V44.4361H49.7245C49.8691 44.437 50.0114 44.3993 50.1374 44.3267C50.2628 44.2512 50.367 44.1437 50.4399 44.0148C50.5127 43.8858 50.5517 43.7397 50.5531 43.5907C50.5523 43.4422 50.5135 43.2964 50.4405 43.168L45.6654 34.6966L42.3512 36.6534C41.4656 37.1761 40.4135 37.3175 39.4261 37.0464C38.4387 36.7754 37.5968 36.1142 37.0853 35.2079C36.9695 35.0092 36.8728 34.7993 36.7966 34.5813C36.7195 34.3692 36.6606 34.1506 36.6205 33.9281C36.5812 33.7047 36.5618 33.4781 36.5628 33.2512C36.5609 33.0223 36.5792 32.7938 36.6177 32.5684L37.7724 25.6635ZM36.5028 18.453L36.5051 18.4394L36.5103 18.4486L36.5028 18.453Z" fill="#F2F4F9"/>
</g>
<path fill-rule="evenodd" clip-rule="evenodd" d="M96.1234 9.81462H76.7558L73.3374 28.9842H79.6897C81.0759 27.0526 82.4652 26.2117 84.9909 26.2117C88.7565 26.2117 90.9836 29.0847 90.9836 32.7011C90.9836 36.1682 88.656 39.3885 84.9909 39.3885C81.8711 39.3885 79.6409 37.3077 79.2936 34.1879H72.2467C72.396 41.4694 78.3888 45.1833 85.128 45.1833C92.0622 45.3326 98.0062 39.8333 98.0062 32.692C98.0062 26.2026 94.143 20.9014 87.3063 20.9014C84.5339 20.9014 82.453 21.6448 80.5184 23.5764L80.4209 23.4758L81.8223 15.6033H96.1416V9.81462H96.1234ZM107.414 9.11084H100.407V14.8995H107.414V9.11084ZM100.407 44.4825H107.414V18.8693H100.407V44.4825ZM111.613 44.4825H118.647V32.9387C118.647 28.3688 120.381 24.7128 125.581 24.7128C126.429 24.7111 127.276 24.7938 128.107 24.9596V18.4245C127.615 18.2666 127.101 18.1834 126.584 18.1777C124.835 18.19 123.128 18.7119 121.671 19.6794C120.215 20.6469 119.072 22.0181 118.382 23.6251H118.282V18.8693H111.6V44.4825H111.613ZM135.3 28.9263C135.45 26.946 136.589 23.4758 141.147 23.4758C144.565 23.4758 146.101 25.3587 146.744 28.9263H135.3ZM153.778 33.3836C154.333 25.5079 150.067 18.1777 141.348 18.1777C133.57 18.1777 128.272 24.0212 128.272 31.7018C128.272 39.6231 133.274 45.1741 141.348 45.1741C147.137 45.1741 151.356 42.6484 153.337 36.5551H147.127C146.683 38.1394 144.404 39.876 141.579 39.876C137.619 39.876 135.486 37.8926 135.288 33.3836H153.778Z" fill="#F2F4F9"/>
<rect x="167.16" width="125.667" height="60" rx="13.3333" fill="#00A7DC" fill-opacity="0.15"/>
<path d="M188.563 42L181.84 17.7576H185.687L190.41 36.5312H190.635L195.547 17.7576H199.359L204.271 36.5431H204.496L209.207 17.7576H213.066L206.331 42H202.649L197.548 23.8419H197.358L192.256 42H188.563ZM219.618 42.4025C218.466 42.4025 217.424 42.1894 216.493 41.7633C215.562 41.3292 214.824 40.7019 214.279 39.8812C213.743 39.0604 213.474 38.0543 213.474 36.8627C213.474 35.8368 213.672 34.9924 214.066 34.3295C214.461 33.6667 214.993 33.1419 215.664 32.7552C216.335 32.3685 217.085 32.0765 217.913 31.8793C218.742 31.682 219.586 31.532 220.446 31.4294C221.535 31.3032 222.419 31.2006 223.098 31.1217C223.777 31.0349 224.27 30.8968 224.578 30.7074C224.885 30.518 225.039 30.2102 225.039 29.7841V29.7012C225.039 28.6675 224.747 27.8665 224.163 27.2983C223.587 26.7301 222.727 26.446 221.583 26.446C220.391 26.446 219.452 26.7104 218.766 27.2391C218.087 27.7599 217.617 28.34 217.357 28.9792L214.031 28.2216C214.425 27.1168 215.001 26.2251 215.759 25.5464C216.524 24.8598 217.404 24.3627 218.399 24.0549C219.393 23.7393 220.439 23.5814 221.535 23.5814C222.261 23.5814 223.031 23.6682 223.844 23.8419C224.664 24.0076 225.43 24.3153 226.14 24.7651C226.858 25.215 227.446 25.8581 227.904 26.6946C228.362 27.5232 228.59 28.6004 228.59 29.9261V42H225.134V39.5142H224.992C224.763 39.9719 224.42 40.4217 223.962 40.8636C223.504 41.3056 222.916 41.6725 222.198 41.9645C221.48 42.2565 220.62 42.4025 219.618 42.4025ZM220.387 39.5616C221.366 39.5616 222.202 39.3682 222.897 38.9815C223.599 38.5949 224.132 38.0898 224.495 37.4664C224.866 36.8351 225.051 36.1604 225.051 35.4422V33.0985C224.925 33.2247 224.68 33.3431 224.317 33.4536C223.962 33.5562 223.556 33.6469 223.098 33.7259C222.64 33.7969 222.194 33.864 221.76 33.9271C221.326 33.9823 220.963 34.0297 220.671 34.0691C219.985 34.1559 219.357 34.3019 218.789 34.5071C218.229 34.7123 217.779 35.0082 217.44 35.3949C217.108 35.7737 216.943 36.2787 216.943 36.91C216.943 37.786 217.266 38.4489 217.913 38.8987C218.56 39.3406 219.385 39.5616 220.387 39.5616ZM236.844 17.7576V42H233.305V17.7576H236.844ZM245.145 17.7576V42H241.605V17.7576H245.145ZM257.742 42.367C255.951 42.367 254.408 41.9842 253.114 41.2187C251.828 40.4454 250.833 39.3603 250.131 37.9635C249.437 36.5589 249.089 34.9135 249.089 33.0275C249.089 31.1651 249.437 29.5237 250.131 28.1032C250.833 26.6828 251.812 25.574 253.067 24.777C254.329 23.98 255.805 23.5814 257.494 23.5814C258.52 23.5814 259.514 23.7511 260.477 24.0904C261.439 24.4298 262.304 24.9624 263.069 25.6884C263.834 26.4145 264.438 27.3575 264.88 28.5175C265.322 29.6697 265.543 31.0704 265.543 32.7197V33.9744H251.09V31.3229H262.075C262.075 30.3917 261.885 29.5671 261.506 28.849C261.128 28.1229 260.595 27.5508 259.908 27.1326C259.23 26.7143 258.433 26.5052 257.517 26.5052C256.523 26.5052 255.655 26.7498 254.913 27.2391C254.179 27.7205 253.611 28.3518 253.209 29.133C252.814 29.9064 252.617 30.7468 252.617 31.6544V33.7259C252.617 34.9411 252.83 35.9749 253.256 36.8272C253.69 37.6795 254.294 38.3305 255.067 38.7803C255.84 39.2222 256.744 39.4432 257.778 39.4432C258.449 39.4432 259.06 39.3485 259.613 39.1591C260.165 38.9618 260.642 38.6698 261.045 38.2831C261.447 37.8965 261.755 37.419 261.968 36.8509L265.318 37.4545C265.05 38.441 264.568 39.3051 263.874 40.0469C263.187 40.7808 262.323 41.3529 261.282 41.7633C260.248 42.1657 259.068 42.367 257.742 42.367ZM277.957 23.8182V26.6591H268.026V23.8182H277.957ZM270.689 19.4621H274.228V36.6615C274.228 37.348 274.331 37.8649 274.536 38.2121C274.741 38.5515 275.006 38.7842 275.329 38.9105C275.661 39.0289 276.02 39.0881 276.406 39.0881C276.691 39.0881 276.939 39.0683 277.152 39.0289C277.365 38.9894 277.531 38.9579 277.649 38.9342L278.289 41.858C278.083 41.9369 277.791 42.0158 277.413 42.0947C277.034 42.1815 276.56 42.2289 275.992 42.2367C275.061 42.2525 274.193 42.0868 273.388 41.7396C272.583 41.3924 271.932 40.8557 271.435 40.1297C270.938 39.4037 270.689 38.4923 270.689 37.3954V19.4621Z" fill="#00A7DC"/>
<defs>
<filter id="filter0_b_2034_21445" x="-2.66667" y="-2.66667" width="65.3333" height="65.3333" filterUnits="userSpaceOnUse" color-interpolation-filters="sRGB">
<feFlood flood-opacity="0" result="BackgroundImageFix"/>
<feGaussianBlur in="BackgroundImageFix" stdDeviation="1.33333"/>
<feComposite in2="SourceAlpha" operator="in" result="effect1_backgroundBlur_2034_21445"/>
<feBlend mode="normal" in="SourceGraphic" in2="effect1_backgroundBlur_2034_21445" result="shape"/>
</filter>
</defs>
</svg>
