<svg width="14" height="17" viewBox="0 0 14 17" fill="none" xmlns="http://www.w3.org/2000/svg">
<path d="M13.9966 6.80182C13.9515 4.44869 13.6236 2.71314 13.6281 2.71154C13.4917 2.44549 13.2526 2.22298 12.96 2.10933C11.039 1.36433 9.15013 0.653273 7.30861 0.0465823C7.12036 -0.0155274 6.92187 -0.0155274 6.73394 0.0465823C4.89274 0.651672 3.00415 1.36145 1.08355 2.10549C0.825187 2.2057 0.608443 2.39107 0.467256 2.61645C0.478141 2.61773 0.0725068 3.88394 0.00335371 6.68048C-0.0376259 9.47734 0.310701 10.3152 0.299175 10.3161C0.487746 10.9308 0.840555 11.5561 1.34608 12.1919C1.91115 12.902 2.67471 13.6355 3.59707 14.3565C5.12389 15.5548 6.55273 16.271 6.6126 16.2963C6.74226 16.3597 6.87961 16.392 7.02111 16.3917C7.16294 16.3917 7.30029 16.3594 7.42963 16.2956C7.48982 16.2704 8.92026 15.5519 10.4464 14.3539C11.3691 13.6323 12.1327 12.8988 12.6981 12.189C13.2398 11.5081 13.606 10.8399 13.7831 10.1836C13.776 10.1826 14.0322 9.15558 13.9966 6.80214V6.80182ZM7.78116 8.63726V10.1282C7.78116 10.5483 7.44084 10.8886 7.02079 10.8889C6.60075 10.8889 6.26011 10.5486 6.26011 10.1285V8.65839C5.71201 8.38594 5.33487 7.82054 5.33487 7.16711C5.33487 6.24763 6.08018 5.50199 6.99966 5.50199C7.91914 5.50199 8.66446 6.24731 8.66478 7.16679C8.66478 7.8039 8.30685 8.35744 7.78116 8.63726Z" fill="url(#paint0_linear_690_442)"/>
<defs>
<linearGradient id="paint0_linear_690_442" x1="0" y1="0" x2="14.3022" y2="0.268103" gradientUnits="userSpaceOnUse">
<stop stop-color="#0071FF"/>
<stop offset="1" stop-color="#54F0D1"/>
</linearGradient>
</defs>
</svg>
