<svg width="44" height="44" viewBox="0 0 44 44" fill="none" xmlns="http://www.w3.org/2000/svg">
<rect width="44" height="44" rx="10" fill="#00A7DC" fill-opacity="0.15"/>
<g clip-path="url(#clip0_266_5161)">
<path d="M22 10C15.382 10 10 15.382 10 22C10 28.618 15.382 34 22 34C28.618 34 34 28.618 34 22C34 15.382 28.618 10 22 10ZM23.5 23.702V27C23.5 27.828 22.828 28.5 22 28.5C21.172 28.5 20.5 27.828 20.5 27V23.702C19.036 23.106 18 21.674 18 20C18 17.794 19.794 16 22 16C24.206 16 26 17.794 26 20C26 21.674 24.964 23.108 23.5 23.702Z" fill="#00A7DC"/>
</g>
<defs>
<clipPath id="clip0_266_5161">
<rect width="24" height="24" fill="white" transform="translate(10 10)"/>
</clipPath>
</defs>
</svg>
