<svg width="42" height="43" viewBox="0 0 42 43" fill="none" xmlns="http://www.w3.org/2000/svg">
<path d="M5.73047 20.1792V6.1792H19.3971V20.1792H5.73047ZM9.14714 16.6792H15.9805V9.6792H9.14714V16.6792ZM5.73047 37.6792V23.6792H19.3971V37.6792H5.73047ZM9.14714 34.1792H15.9805V27.1792H9.14714V34.1792ZM22.8138 20.1792V6.1792H36.4805V20.1792H22.8138ZM26.2305 16.6792H33.0638V9.6792H26.2305V16.6792ZM33.0638 37.6792V34.1792H36.4805V37.6792H33.0638ZM22.8138 27.1792V23.6792H26.2305V27.1792H22.8138ZM26.2305 30.6792V27.1792H29.6471V30.6792H26.2305ZM22.8138 34.1792V30.6792H26.2305V34.1792H22.8138ZM26.2305 37.6792V34.1792H29.6471V37.6792H26.2305ZM29.6471 34.1792V30.6792H33.0638V34.1792H29.6471ZM29.6471 27.1792V23.6792H33.0638V27.1792H29.6471ZM33.0638 30.6792V27.1792H36.4805V30.6792H33.0638Z" fill="white"/>
</svg>
