<svg width="30" height="30" viewBox="0 0 30 30" fill="none" xmlns="http://www.w3.org/2000/svg">
<path d="M0 13.3333V0H13.0159V13.3333H0ZM3.25397 10H9.7619V3.33333H3.25397V10ZM0 30V16.6667H13.0159V30H0ZM3.25397 26.6667H9.7619V20H3.25397V26.6667ZM16.2698 13.3333V0H29.2857V13.3333H16.2698ZM19.5238 10H26.0317V3.33333H19.5238V10ZM26.0317 30V26.6667H29.2857V30H26.0317ZM16.2698 20V16.6667H19.5238V20H16.2698ZM19.5238 23.3333V20H22.7778V23.3333H19.5238ZM16.2698 26.6667V23.3333H19.5238V26.6667H16.2698ZM19.5238 30V26.6667H22.7778V30H19.5238ZM22.7778 26.6667V23.3333H26.0317V26.6667H22.7778ZM22.7778 20V16.6667H26.0317V20H22.7778ZM26.0317 23.3333V20H29.2857V23.3333H26.0317Z" fill="white"/>
</svg>
