<svg id="Group_143826" data-name="Group 143826" xmlns="http://www.w3.org/2000/svg" width="512" height="512" viewBox="0 0 512 512">
  <path id="Path_109881" data-name="Path 109881" d="M30,30h90V0H0V120H30ZM392,0V30h90v90h30V0Zm90,482H392v30H512V392H482ZM30,392H0V512H120V482H30Zm0,0" fill="#fff"/>
  <path id="Path_109882" data-name="Path 109882" d="M61,60V210H211V120h30V90H211V60ZM181,180H91V90h90ZM451,450V300H391V270H361v30H271v30h30v30H271v30h30v60ZM331,330h90v90H331ZM151,270h60V240H61v30h60v30H91v30h30v60H91v30h30v30H271V420H241V390H211v30H151V390h30V360H151Zm0,0" fill="#fff"/>
  <path id="Path_109883" data-name="Path 109883" d="M121,120h30v30H121Zm240,0h30v30H361Zm0,0" fill="#fff"/>
  <path id="Path_109884" data-name="Path 109884" d="M391,210h60V60H301V210h60v30h30Zm-60-30V90h90v90Zm120,90V240H391v30Zm-90,90h30v30H361ZM241,330h30v30H241Zm-60,30h30V300H181Zm30-90h30v30H211ZM91,330H61v60H91ZM61,420H91v30H61ZM241,60h30V90H241Zm0,120h30V120H241Zm30,60V210H241v60H361V240Zm0,0" fill="#fff"/>
</svg>
