<svg width="43" height="43" viewBox="0 0 43 43" fill="none" xmlns="http://www.w3.org/2000/svg">
<g filter="url(#filter0_d_841_3)">
<path d="M21.0317 36.5C29.316 36.5 36.0317 29.7843 36.0317 21.5C36.0317 13.2157 29.316 6.5 21.0317 6.5C12.7475 6.5 6.03174 13.2157 6.03174 21.5C6.03174 29.7843 12.7475 36.5 21.0317 36.5Z" fill="#35D1DD"/>
</g>
<path d="M15.2005 26.6206C14.933 26.6206 14.8576 26.5495 14.8576 26.2777C14.8696 24.7546 14.8576 23.2306 14.8662 21.7074C14.8662 21.494 14.8104 21.4134 14.5859 21.422C14.1273 21.4383 13.6679 21.4271 13.2093 21.428C12.833 21.428 12.833 21.428 12.8321 21.812L12.8262 28.3743C12.8622 28.5988 13.0139 28.6143 13.2067 28.6143C16.833 28.6097 20.4596 28.6097 24.0864 28.6143C25.6113 28.6143 27.1362 28.6143 28.661 28.6143C28.8822 28.6143 29.0039 28.5757 29.0039 28.3143C28.9965 26.1149 28.9965 23.9149 29.0039 21.7143C29.0039 21.4958 28.9361 21.4246 28.7175 21.4306C28.2487 21.4443 27.7747 21.4486 27.3101 21.4306C27.0641 21.4212 26.9964 21.5009 26.9981 21.7434C27.0084 23.2194 27.0041 24.6954 26.9981 26.1714C26.9981 26.2743 27.0418 26.3866 26.9578 26.48C26.9621 26.6377 26.8421 26.6103 26.7521 26.6094C25.1001 26.6094 23.4481 26.6063 21.7961 26.6L19.973 26.6C18.3839 26.6077 16.7922 26.6052 15.2005 26.6206Z" fill="#FEFEFE"/>
<path d="M19.5502 21.6997C19.0127 21.6997 18.4753 21.6997 17.9379 21.6997C17.8633 21.6997 17.7665 21.6654 17.7262 21.7537C17.6859 21.842 17.7656 21.8943 17.8162 21.9534C17.8411 21.9817 17.8479 22.0262 17.8727 22.0545C18.9013 23.1962 19.8527 24.404 20.8547 25.5689C20.9833 25.5851 21.051 25.4882 21.1119 25.4111C22.0736 24.2682 23.0336 23.1234 23.9919 21.9765C24.0476 21.9097 24.1299 21.8436 24.0845 21.7502C24.0391 21.6568 23.9448 21.6997 23.8702 21.6997C23.3422 21.6997 22.8133 21.6834 22.2862 21.7056C21.9956 21.7185 21.9022 21.6414 21.9048 21.3354C21.9202 19.5559 21.9125 17.7766 21.9116 15.9972C21.9116 15.5274 21.9005 15.0542 21.9159 14.5896C21.9245 14.3411 21.8302 14.27 21.5936 14.2802C21.1736 14.2974 20.7528 14.2803 20.3328 14.2845C19.9128 14.2888 19.9188 14.2845 19.9188 14.7131C19.9188 16.9131 19.9188 19.1131 19.9188 21.3131C19.9188 21.4331 19.9668 21.566 19.8656 21.6731C19.7619 21.6808 19.659 21.6988 19.5502 21.6997Z" fill="#FEFEFE"/>
<defs>
<filter id="filter0_d_841_3" x="0.0317383" y="0.5" width="42" height="42" filterUnits="userSpaceOnUse" color-interpolation-filters="sRGB">
<feFlood flood-opacity="0" result="BackgroundImageFix"/>
<feColorMatrix in="SourceAlpha" type="matrix" values="0 0 0 0 0 0 0 0 0 0 0 0 0 0 0 0 0 0 127 0" result="hardAlpha"/>
<feOffset/>
<feGaussianBlur stdDeviation="3"/>
<feComposite in2="hardAlpha" operator="out"/>
<feColorMatrix type="matrix" values="0 0 0 0 0.207843 0 0 0 0 0.819608 0 0 0 0 0.866667 0 0 0 1 0"/>
<feBlend mode="normal" in2="BackgroundImageFix" result="effect1_dropShadow_841_3"/>
<feBlend mode="normal" in="SourceGraphic" in2="effect1_dropShadow_841_3" result="shape"/>
</filter>
</defs>
</svg>
