<svg width="42" height="42" viewBox="0 0 42 42" fill="none" xmlns="http://www.w3.org/2000/svg">
<g filter="url(#filter0_d_1403_106)">
<path d="M21 36C29.2843 36 36 29.2843 36 21C36 12.7157 29.2843 6 21 6C12.7157 6 6 12.7157 6 21C6 29.2843 12.7157 36 21 36Z" fill="#E87C79"/>
</g>
<path d="M15.6359 27.9624C18.7788 24.8196 21.9191 21.6745 25.0568 18.5271C25.1845 18.3994 25.2522 18.4079 25.3714 18.5271C25.9302 19.0996 26.4977 19.6628 27.0625 20.2285C27.1259 20.2919 27.1757 20.4042 27.2854 20.3614C27.3303 20.3373 27.3672 20.3006 27.3916 20.2558C27.416 20.211 27.4267 20.1601 27.4225 20.1093C27.4225 20.0779 27.4248 20.0467 27.4294 20.0159C27.5717 18.3599 27.7011 16.7031 27.8631 15.0496C27.8621 14.6152 27.9014 14.1817 27.9805 13.7545C27.9548 13.7391 27.9274 13.709 27.9034 13.7108C27.0868 13.7753 26.2702 13.8419 25.4537 13.9105C24.1302 14.0248 22.8074 14.1391 21.4851 14.2534C21.3908 14.262 21.2819 14.2293 21.1962 14.333C21.2588 14.3999 21.3128 14.4616 21.3677 14.5199C21.9462 15.0993 22.5197 15.6839 23.1077 16.253C23.2791 16.415 23.2654 16.5025 23.1017 16.6645C21.9308 17.8199 20.7711 18.9874 19.6079 20.1514C17.6908 22.0691 15.7722 23.9857 13.8522 25.9011C13.6688 26.0837 13.6654 26.189 13.8522 26.3673C14.3485 26.8388 14.8225 27.3325 15.3094 27.8133C15.3951 27.8991 15.4568 28.0276 15.6137 27.9847C15.6204 27.9766 15.6279 27.9692 15.6359 27.9624Z" fill="#FEFEFE"/>
<defs>
<filter id="filter0_d_1403_106" x="0" y="0" width="42" height="42" filterUnits="userSpaceOnUse" color-interpolation-filters="sRGB">
<feFlood flood-opacity="0" result="BackgroundImageFix"/>
<feColorMatrix in="SourceAlpha" type="matrix" values="0 0 0 0 0 0 0 0 0 0 0 0 0 0 0 0 0 0 127 0" result="hardAlpha"/>
<feOffset/>
<feGaussianBlur stdDeviation="3"/>
<feComposite in2="hardAlpha" operator="out"/>
<feColorMatrix type="matrix" values="0 0 0 0 0.909804 0 0 0 0 0.486275 0 0 0 0 0.47451 0 0 0 1 0"/>
<feBlend mode="normal" in2="BackgroundImageFix" result="effect1_dropShadow_1403_106"/>
<feBlend mode="normal" in="SourceGraphic" in2="effect1_dropShadow_1403_106" result="shape"/>
</filter>
</defs>
</svg>
