<svg width="42" height="42" viewBox="0 0 42 42" fill="none" xmlns="http://www.w3.org/2000/svg">
<g filter="url(#filter0_d_1403_113)">
<path d="M21 36C29.2843 36 36 29.2843 36 21C36 12.7157 29.2843 6 21 6C12.7157 6 6 12.7157 6 21C6 29.2843 12.7157 36 21 36Z" fill="#E87C79"/>
</g>
<g clip-path="url(#clip0_1403_113)">
<path d="M19.8602 13.285L16.6032 16.314H24.6302C24.8252 16.314 25.0121 16.3914 25.15 16.5292C25.2878 16.6671 25.3652 16.854 25.3652 17.049C25.3652 17.2439 25.2878 17.4308 25.15 17.5687C25.0121 17.7065 24.8252 17.784 24.6302 17.784H16.6032L19.8602 20.813C20.0025 20.9456 20.0863 21.1293 20.0932 21.3236C20.1 21.518 20.0293 21.7072 19.8967 21.8495C19.7641 21.9918 19.5804 22.0755 19.386 22.0824C19.1917 22.0892 19.0025 22.0186 18.8602 21.886L14.2362 17.578C14.1622 17.5096 14.103 17.4266 14.0626 17.3343C14.0222 17.242 14.0013 17.1423 14.0013 17.0415C14.0013 16.9407 14.0222 16.8409 14.0626 16.7486C14.103 16.6563 14.1622 16.5733 14.2362 16.505L18.8602 12.197C18.9306 12.1312 19.0133 12.0801 19.1035 12.0463C19.1937 12.0126 19.2897 11.997 19.3859 12.0005C19.4821 12.0039 19.5768 12.0263 19.6643 12.0664C19.7519 12.1064 19.8307 12.1634 19.8962 12.234C20.0292 12.3789 20.1 12.5702 20.0933 12.7668C20.0866 12.9634 20.0029 13.1495 19.8602 13.285Z" fill="white"/>
<path d="M21.5011 27.799L24.7581 24.77H16.7311C16.5362 24.77 16.3492 24.6926 16.2114 24.5547C16.0735 24.4169 15.9961 24.23 15.9961 24.035C15.9961 23.8401 16.0735 23.6531 16.2114 23.5153C16.3492 23.3775 16.5362 23.3 16.7311 23.3H24.7581L21.5011 20.271C21.3588 20.1384 21.275 19.9547 21.2682 19.7603C21.2613 19.566 21.332 19.3768 21.4646 19.2345C21.5972 19.0922 21.7809 19.0085 21.9753 19.0016C22.1697 18.9948 22.3588 19.0654 22.5011 19.198L27.1251 23.506C27.1992 23.5744 27.2583 23.6573 27.2987 23.7497C27.3392 23.842 27.36 23.9417 27.36 24.0425C27.36 24.1433 27.3392 24.243 27.2987 24.3354C27.2583 24.4277 27.1992 24.5107 27.1251 24.579L22.5011 28.887C22.4307 28.9527 22.348 29.0039 22.2578 29.0377C22.1676 29.0714 22.0717 29.087 21.9754 29.0835C21.8792 29.0801 21.7846 29.0577 21.697 29.0176C21.6094 28.9775 21.5306 28.9206 21.4651 28.85C21.3321 28.7051 21.2613 28.5138 21.268 28.3172C21.2748 28.1206 21.3585 27.9345 21.5011 27.799Z" fill="white"/>
</g>
<defs>
<filter id="filter0_d_1403_113" x="0" y="0" width="42" height="42" filterUnits="userSpaceOnUse" color-interpolation-filters="sRGB">
<feFlood flood-opacity="0" result="BackgroundImageFix"/>
<feColorMatrix in="SourceAlpha" type="matrix" values="0 0 0 0 0 0 0 0 0 0 0 0 0 0 0 0 0 0 127 0" result="hardAlpha"/>
<feOffset/>
<feGaussianBlur stdDeviation="3"/>
<feComposite in2="hardAlpha" operator="out"/>
<feColorMatrix type="matrix" values="0 0 0 0 0.909804 0 0 0 0 0.486275 0 0 0 0 0.47451 0 0 0 1 0"/>
<feBlend mode="normal" in2="BackgroundImageFix" result="effect1_dropShadow_1403_113"/>
<feBlend mode="normal" in="SourceGraphic" in2="effect1_dropShadow_1403_113" result="shape"/>
</filter>
<clipPath id="clip0_1403_113">
<rect width="13.364" height="17.085" fill="white" transform="translate(14 12)"/>
</clipPath>
</defs>
</svg>
