<svg width="15" height="15" viewBox="0 0 15 15" fill="none" xmlns="http://www.w3.org/2000/svg">
<path d="M2.63595 14.9624C5.7788 11.8196 8.91909 8.67449 12.0568 5.52707C12.1845 5.39935 12.2522 5.40792 12.3714 5.52707C12.9302 6.09964 13.4977 6.66277 14.0625 7.22848C14.1259 7.29191 14.1757 7.40422 14.2854 7.36136C14.3303 7.3373 14.3672 7.30056 14.3916 7.25579C14.416 7.21102 14.4267 7.16011 14.4225 7.10931C14.4225 7.07788 14.4248 7.04673 14.4294 7.01587C14.5717 5.35987 14.7011 3.70306 14.8631 2.04963C14.8621 1.61522 14.9014 1.18166 14.9805 0.7545C14.9548 0.739071 14.9274 0.709049 14.9034 0.710764C14.0868 0.775335 13.2702 0.841934 12.4537 0.910506C11.1302 1.02479 9.80738 1.1391 8.48509 1.25338C8.39081 1.26196 8.28195 1.22929 8.19623 1.33301C8.2588 1.39987 8.31281 1.46159 8.36767 1.51988C8.94624 2.09931 9.51967 2.68386 10.1077 3.253C10.2791 3.415 10.2654 3.50252 10.1017 3.66452C8.9308 4.81995 7.77109 5.98737 6.60795 7.15137C4.69081 9.06908 2.77224 10.9857 0.852239 12.9011C0.66881 13.0837 0.665382 13.189 0.852239 13.3673C1.34852 13.8388 1.82251 14.3325 2.30937 14.8133C2.39508 14.8991 2.4568 15.0276 2.61366 14.9847C2.62039 14.9766 2.62785 14.9692 2.63595 14.9624V14.9624Z" fill="#FEFEFE"/>
</svg>
