<svg width="43" height="42" viewBox="0 0 43 42" fill="none" xmlns="http://www.w3.org/2000/svg">
<g filter="url(#filter0_d_841_2)">
<path d="M21.0317 36C29.316 36 36.0317 29.2843 36.0317 21C36.0317 12.7157 29.316 6 21.0317 6C12.7475 6 6.03174 12.7157 6.03174 21C6.03174 29.2843 12.7475 36 21.0317 36Z" fill="#E87C79"/>
</g>
<path d="M15.6677 27.9624C18.8105 24.8196 21.9508 21.6745 25.0885 18.5271C25.2163 18.3994 25.284 18.4079 25.4031 18.5271C25.962 19.0996 26.5294 19.6628 27.0943 20.2285C27.1577 20.2919 27.2074 20.4042 27.3171 20.3614C27.3621 20.3373 27.399 20.3006 27.4233 20.2558C27.4477 20.211 27.4585 20.1601 27.4543 20.1093C27.4543 20.0779 27.4565 20.0467 27.4611 20.0159C27.6034 18.3599 27.7328 16.7031 27.8948 15.0496C27.8939 14.6152 27.9332 14.1817 28.0123 13.7545C27.9865 13.7391 27.9591 13.709 27.9351 13.7108C27.1186 13.7753 26.302 13.8419 25.4854 13.9105C24.162 14.0248 22.8391 14.1391 21.5168 14.2534C21.4225 14.262 21.3137 14.2293 21.228 14.333C21.2905 14.3999 21.3446 14.4616 21.3994 14.5199C21.978 15.0993 22.5514 15.6839 23.1394 16.253C23.3108 16.415 23.2971 16.5025 23.1334 16.6645C21.9625 17.8199 20.8028 18.9874 19.6397 20.1514C17.7225 22.0691 15.804 23.9857 13.884 25.9011C13.7005 26.0837 13.6971 26.189 13.884 26.3673C14.3803 26.8388 14.8542 27.3325 15.3411 27.8133C15.4268 27.8991 15.4885 28.0276 15.6454 27.9847C15.6521 27.9766 15.6596 27.9692 15.6677 27.9624V27.9624Z" fill="#FEFEFE"/>
<defs>
<filter id="filter0_d_841_2" x="0.0317383" y="0" width="42" height="42" filterUnits="userSpaceOnUse" color-interpolation-filters="sRGB">
<feFlood flood-opacity="0" result="BackgroundImageFix"/>
<feColorMatrix in="SourceAlpha" type="matrix" values="0 0 0 0 0 0 0 0 0 0 0 0 0 0 0 0 0 0 127 0" result="hardAlpha"/>
<feOffset/>
<feGaussianBlur stdDeviation="3"/>
<feComposite in2="hardAlpha" operator="out"/>
<feColorMatrix type="matrix" values="0 0 0 0 0.909804 0 0 0 0 0.486275 0 0 0 0 0.47451 0 0 0 1 0"/>
<feBlend mode="normal" in2="BackgroundImageFix" result="effect1_dropShadow_841_2"/>
<feBlend mode="normal" in="SourceGraphic" in2="effect1_dropShadow_841_2" result="shape"/>
</filter>
</defs>
</svg>
