<svg xmlns="http://www.w3.org/2000/svg" width="20.362" height="21.5" viewBox="0 0 20.362 21.5">
  <g id="Group_51472" data-name="Group 51472" transform="translate(-4.819 -4.25)">
    <circle id="Ellipse_28" data-name="Ellipse 28" cx="3" cy="3" r="3" transform="translate(12 12)" fill="none" stroke="#00aeef" stroke-width="1.5"/>
    <path id="Path_48229" data-name="Path 48229" d="M16.765,5.152A4.988,4.988,0,0,0,15,5a4.988,4.988,0,0,0-1.765.152,2,2,0,0,0-1.082,1.082,2.467,2.467,0,0,0-.143.863A1.58,1.58,0,0,1,9.652,8.459a2.465,2.465,0,0,0-.819-.308,2,2,0,0,0-1.479.4A4.988,4.988,0,0,0,6.34,10a4.988,4.988,0,0,0-.751,1.6,2,2,0,0,0,.4,1.479,2.464,2.464,0,0,0,.676.556,1.581,1.581,0,0,1,0,2.722,2.466,2.466,0,0,0-.676.556,2,2,0,0,0-.4,1.479A4.988,4.988,0,0,0,6.34,20a4.987,4.987,0,0,0,1.015,1.453,2,2,0,0,0,1.479.4,2.466,2.466,0,0,0,.819-.308A1.581,1.581,0,0,1,12.009,22.9a2.467,2.467,0,0,0,.143.863,2,2,0,0,0,1.082,1.082A4.989,4.989,0,0,0,15,25a4.989,4.989,0,0,0,1.765-.152,2,2,0,0,0,1.082-1.082,2.464,2.464,0,0,0,.143-.863,1.58,1.58,0,0,1,2.357-1.361,2.465,2.465,0,0,0,.819.308,2,2,0,0,0,1.479-.4A4.987,4.987,0,0,0,23.66,20a4.986,4.986,0,0,0,.751-1.6,2,2,0,0,0-.4-1.479,2.465,2.465,0,0,0-.676-.556,1.581,1.581,0,0,1,0-2.722,2.464,2.464,0,0,0,.676-.556,2,2,0,0,0,.4-1.479A4.986,4.986,0,0,0,23.66,10a4.987,4.987,0,0,0-1.014-1.453,2,2,0,0,0-1.479-.4,2.466,2.466,0,0,0-.819.308A1.581,1.581,0,0,1,17.991,7.1a2.464,2.464,0,0,0-.143-.863A2,2,0,0,0,16.765,5.152Z" fill="none" stroke="#223f70" stroke-width="1.5"/>
  </g>
</svg>
