<svg width="19" height="19" viewBox="0 0 19 19" fill="none" xmlns="http://www.w3.org/2000/svg">
<path d="M4.5863 10.4729L4.58635 10.4731C4.59949 10.4598 4.59862 10.4606 4.5863 10.4729Z" fill="url(#paint0_linear_577_328)"/>
<path d="M18.5789 7.84587L17.6341 7.61869C17.4287 6.72188 17.0748 5.86963 16.5802 5.07721L17.0591 4.27335C17.1224 4.16697 17.1484 4.0425 17.1331 3.91965C17.1177 3.79679 17.0618 3.68257 16.9743 3.59504L15.4051 2.02589C15.3175 1.93843 15.2033 1.88263 15.0805 1.86728C14.9577 1.85192 14.8332 1.87789 14.7268 1.94109L13.923 2.41991C13.1305 1.92532 12.2783 1.57149 11.3815 1.36605L11.1543 0.421261C11.1242 0.300935 11.0547 0.19413 10.9569 0.117808C10.8591 0.0414852 10.7386 2.08555e-05 10.6146 0H8.38834C8.2643 1.4401e-05 8.14381 0.0414763 8.04603 0.1178C7.94824 0.194124 7.87877 0.300932 7.84863 0.421261L7.62145 1.36605C6.72464 1.57149 5.87239 1.92532 5.07997 2.41991L4.27611 1.94109C4.16972 1.87777 4.04526 1.85172 3.9224 1.86708C3.79955 1.88244 3.68533 1.93832 3.5978 2.02589L2.02857 3.595C1.94102 3.68254 1.88514 3.79676 1.86979 3.91961C1.85443 4.04246 1.88047 4.16692 1.94378 4.27332L2.4226 5.07717C1.92801 5.8696 1.57417 6.72184 1.36874 7.61865L0.423946 7.84583C0.303621 7.87597 0.196816 7.94545 0.120493 8.04324C0.0441707 8.14102 0.0027064 8.2615 0.00268555 8.38554V10.6118C0.00268555 10.8672 0.176615 11.0901 0.424466 11.1515L1.36926 11.3787C1.50623 11.9729 1.71237 12.5439 1.9771 13.0914C2.38586 12.681 4.4388 10.6193 4.58634 10.4719C4.57907 10.4344 4.49955 9.72154 4.49743 9.58268C4.45008 6.74655 6.73447 4.49011 9.50358 4.49011C12.2916 4.49011 14.5149 6.73824 14.5044 9.51603C14.4924 12.085 12.575 14.272 9.89712 14.472C9.78126 14.4809 9.25751 14.5581 8.52746 14.4142L5.91533 17.0264C6.46083 17.2895 7.0296 17.4943 7.62141 17.6308L7.84859 18.5761C7.87873 18.6964 7.94821 18.8032 8.046 18.8796C8.14378 18.9559 8.26426 18.9973 8.3883 18.9974H10.6145C10.7386 18.9974 10.8591 18.9559 10.9569 18.8796C11.0546 18.8032 11.1241 18.6964 11.1543 18.5761L11.3814 17.6313C12.2782 17.4259 13.1305 17.072 13.9229 16.5775L14.7268 17.0563C14.9447 17.1867 15.2246 17.1509 15.4051 16.9715L16.9742 15.4023C17.0618 15.3148 17.1177 15.2006 17.133 15.0777C17.1484 14.9549 17.1223 14.8304 17.059 14.724L16.5802 13.9202C17.0754 13.1277 17.4286 12.2755 17.6341 11.3781L18.5783 11.1515C18.8262 11.0901 19.0001 10.8672 19.0001 10.6118V8.38554C19.0001 8.26151 18.9586 8.14104 18.8823 8.04326C18.806 7.94548 18.6992 7.87601 18.5789 7.84587Z" fill="url(#paint1_linear_577_328)"/>
<path d="M13.2671 8.48127C13.2431 8.38712 13.1946 8.30101 13.1266 8.23169C13.0585 8.16238 12.9732 8.11233 12.8795 8.08665C12.7859 8.06104 12.6871 8.06068 12.5932 8.08563C12.4994 8.11057 12.4138 8.15993 12.3452 8.22867L11.0752 9.4988C10.641 9.93293 9.93528 9.93293 9.5011 9.4988C9.06737 9.06507 9.06737 8.35851 9.5011 7.92475L10.7717 6.65414C10.8404 6.58546 10.8896 6.49982 10.9145 6.40594C10.9393 6.31205 10.9389 6.21327 10.9132 6.11961C10.8875 6.02595 10.8375 5.94076 10.7682 5.8727C10.6989 5.80464 10.6129 5.75612 10.5188 5.73209C8.1703 5.13527 6.05687 6.66501 5.66927 8.77751C5.54481 9.47323 5.60025 10.1662 5.82795 10.8043C5.51126 11.121 0.619783 16.0124 0.488306 16.144C-0.164478 16.7968 -0.164478 17.8588 0.498622 18.5219C1.15552 19.1446 2.16158 19.1708 2.85586 18.5116L8.19554 13.1719C9.05064 13.4771 10.0043 13.4709 10.9376 13.1416C12.6191 12.5482 13.7961 10.5568 13.2671 8.48127Z" fill="url(#paint2_linear_577_328)"/>
<defs>
<linearGradient id="paint0_linear_577_328" x1="4.5863" y1="10.4634" x2="4.59608" y2="10.4636" gradientUnits="userSpaceOnUse">
<stop stop-color="#0071FF"/>
<stop offset="1" stop-color="#54F0D1"/>
</linearGradient>
<linearGradient id="paint1_linear_577_328" x1="0.00268555" y1="0" x2="19.4077" y2="0.425899" gradientUnits="userSpaceOnUse">
<stop stop-color="#0071FF"/>
<stop offset="1" stop-color="#54F0D1"/>
</linearGradient>
<linearGradient id="paint2_linear_577_328" x1="0" y1="5.60184" x2="13.6824" y2="5.90212" gradientUnits="userSpaceOnUse">
<stop stop-color="#0071FF"/>
<stop offset="1" stop-color="#54F0D1"/>
</linearGradient>
</defs>
</svg>
