<svg width="21" height="21" viewBox="0 0 21 21" fill="none" xmlns="http://www.w3.org/2000/svg">
<g filter="url(#filter0_b_2034_21915)">
<path fill-rule="evenodd" clip-rule="evenodd" d="M20.5 10.5C20.5 16.0228 16.0228 20.5 10.5 20.5C4.97715 20.5 0.5 16.0228 0.5 10.5C0.5 4.97715 4.97715 0.5 10.5 0.5C16.0228 0.5 20.5 4.97715 20.5 10.5ZM13.0905 9.05413L14.5927 11.7144H14.5878L14.6109 11.7548L15.3144 11.339L12.6697 6.64917L12.6699 6.64906C12.2908 5.97611 10.8771 3.46758 10.8742 3.46561C10.8509 3.42359 10.8179 3.38806 10.778 3.36215C10.7358 3.33762 10.688 3.32472 10.6394 3.32471C10.5907 3.32436 10.5428 3.33764 10.5009 3.36314C10.4609 3.3868 10.4277 3.42077 10.4046 3.46167L8.80716 6.28647L9.91095 6.93971C10.1308 7.07045 10.3081 7.26473 10.4206 7.4982C10.533 7.73166 10.5757 7.99392 10.5432 8.25211C10.5202 8.42313 10.4653 8.58803 10.3815 8.73785C10.3431 8.80435 10.3 8.86791 10.2526 8.92801C10.2056 8.98577 10.1538 9.03918 10.0976 9.08763C10.0411 9.13647 9.98054 9.1803 9.91672 9.21867C9.85217 9.25723 9.78457 9.29019 9.71463 9.3172L7.57828 10.1261L9.08046 7.46585V7.4629L9.1026 7.4225L8.39914 7.00671L5.75275 11.6996L9.99756 10.0936C10.2255 10.0068 10.4374 9.88087 10.624 9.72116C10.7165 9.64008 10.8025 9.55144 10.881 9.45612C10.958 9.36135 11.0272 9.26017 11.0879 9.15364C11.3657 8.65999 11.4406 8.07359 11.2962 7.52337C11.1519 6.97315 10.8 6.50415 10.318 6.21947L9.91191 5.98005L10.6356 4.69918L11.9674 7.06386L12.6673 6.65064L11.9107 11.2168C11.8683 11.4619 11.8683 11.7127 11.9107 11.9578C11.9322 12.0803 11.9644 12.2007 12.0069 12.3174C12.0473 12.4336 12.0982 12.5458 12.1589 12.6524C12.2962 12.8966 12.4792 13.1107 12.6974 13.2825C12.9155 13.4543 13.1646 13.5804 13.4304 13.6536C13.6962 13.7268 13.9734 13.7457 14.2463 13.7091C14.5193 13.6726 14.7824 13.5813 15.0209 13.4406L15.427 13.2002L16.1507 14.4811H13.486V15.3077L10.0053 12.346C9.91196 12.2664 9.81215 12.1952 9.70694 12.1331C9.39017 11.9467 9.03108 11.8488 8.6657 11.8494C8.11091 11.8491 7.57867 12.0742 7.18574 12.4752C6.79282 12.8762 6.57129 13.4204 6.56976 13.9884V14.4811H5.12627L6.45909 12.1164L5.7566 11.7016C5.68674 11.8254 5.5817 12.0115 5.45682 12.2328C4.90388 13.2125 3.96186 14.8816 3.96186 14.884C3.93794 14.927 3.92533 14.9755 3.92529 15.0249C3.9253 15.0747 3.9379 15.1236 3.96186 15.1668C3.9862 15.2092 4.02095 15.2443 4.06265 15.2687C4.10434 15.293 4.15154 15.3058 4.19956 15.3057H7.38196V13.9973C7.38158 13.8246 7.41445 13.6536 7.47869 13.494C7.54292 13.3344 7.63726 13.1893 7.75632 13.067C7.87537 12.9448 8.0168 12.8477 8.17251 12.7815C8.32822 12.7152 8.49516 12.6811 8.66378 12.681C8.73924 12.6812 8.81456 12.6877 8.88896 12.7007C8.96144 12.7128 9.03265 12.732 9.10163 12.7578C9.24176 12.8091 9.37203 12.8852 9.48656 12.9824L11.2409 14.4751H8.24132H8.1932V15.3077H13.486V15.3117H17.0745C17.1227 15.312 17.1701 15.2994 17.2121 15.2752C17.2539 15.25 17.2887 15.2142 17.3129 15.1712C17.3372 15.1282 17.3502 15.0795 17.3507 15.0299C17.3504 14.9803 17.3375 14.9318 17.3131 14.889L15.7215 12.0651L14.6167 12.7174C14.3215 12.8916 13.9708 12.9388 13.6417 12.8484C13.3126 12.7581 13.0319 12.5377 12.8614 12.2356C12.8228 12.1693 12.7906 12.0994 12.7652 12.0267C12.7395 11.956 12.7198 11.8832 12.7065 11.809C12.6934 11.7345 12.6869 11.659 12.6873 11.5833C12.6866 11.5071 12.6927 11.4309 12.7055 11.3557L13.0905 9.05413ZM12.6673 6.65064L12.668 6.6461L12.6697 6.64917L12.6673 6.65064Z" fill="#00A7DC"/>
</g>
<defs>
<filter id="filter0_b_2034_21915" x="-0.388889" y="-0.388889" width="21.7778" height="21.7778" filterUnits="userSpaceOnUse" color-interpolation-filters="sRGB">
<feFlood flood-opacity="0" result="BackgroundImageFix"/>
<feGaussianBlur in="BackgroundImageFix" stdDeviation="0.444444"/>
<feComposite in2="SourceAlpha" operator="in" result="effect1_backgroundBlur_2034_21915"/>
<feBlend mode="normal" in="SourceGraphic" in2="effect1_backgroundBlur_2034_21915" result="shape"/>
</filter>
</defs>
</svg>
