<svg width="14" height="18" viewBox="0 0 14 18" fill="none" xmlns="http://www.w3.org/2000/svg">
<g clip-path="url(#clip0_1403_101)">
<path d="M5.86023 1.28496L2.60323 4.31396L10.6302 4.31396C10.8252 4.31396 11.0121 4.3914 11.15 4.52924C11.2878 4.66708 11.3652 4.85402 11.3652 5.04896C11.3652 5.24389 11.2878 5.43084 11.15 5.56868C11.0121 5.70652 10.8252 5.78396 10.6302 5.78396L2.60323 5.78396L5.86023 8.81296C6.00252 8.94557 6.08631 9.12927 6.09315 9.32365C6.1 9.51803 6.02934 9.70718 5.89673 9.84947C5.76412 9.99175 5.58043 10.0755 5.38605 10.0824C5.19167 10.0892 5.00252 10.0186 4.86023 9.88596L0.236237 5.57796C0.162154 5.5096 0.103029 5.42664 0.0625916 5.33431C0.0221539 5.24197 0.00128174 5.14226 0.00128174 5.04146C0.00128174 4.94066 0.0221539 4.84095 0.0625916 4.74861C0.103029 4.65628 0.162154 4.57332 0.236237 4.50496L4.86023 0.196961C4.93062 0.131241 5.01329 0.0800516 5.1035 0.0463343C5.19371 0.012617 5.28967 -0.00297074 5.38591 0.00046639C5.48215 0.00390352 5.57677 0.0263026 5.66434 0.0663691C5.75191 0.106436 5.8307 0.163382 5.89622 0.233956C6.02925 0.378864 6.10003 0.570232 6.09329 0.766824C6.08656 0.963415 6.00286 1.14949 5.86023 1.28496V1.28496Z" fill="white"/>
<path d="M7.5011 15.799L10.7581 12.77H2.73109C2.53616 12.77 2.3492 12.6926 2.21136 12.5547C2.07353 12.4169 1.99609 12.23 1.99609 12.035C1.99609 11.8401 2.07353 11.6531 2.21136 11.5153C2.3492 11.3775 2.53616 11.3 2.73109 11.3H10.7581L7.5011 8.27103C7.35881 8.13842 7.27502 7.95472 7.26817 7.76034C7.26133 7.56596 7.33199 7.37681 7.4646 7.23452C7.59721 7.09223 7.7809 7.00845 7.97528 7.00161C8.16966 6.99476 8.35881 7.06541 8.5011 7.19802L13.1251 11.506C13.1992 11.5744 13.2583 11.6573 13.2987 11.7497C13.3392 11.842 13.36 11.9417 13.36 12.0425C13.36 12.1433 13.3392 12.243 13.2987 12.3354C13.2583 12.4277 13.1992 12.5107 13.1251 12.579L8.5011 16.887C8.43071 16.9527 8.34803 17.0039 8.25783 17.0377C8.16762 17.0714 8.07166 17.087 7.97542 17.0835C7.87918 17.0801 7.78456 17.0577 7.69699 17.0176C7.60942 16.9775 7.53063 16.9206 7.4651 16.85C7.33208 16.7051 7.2613 16.5138 7.26804 16.3172C7.27477 16.1206 7.35847 15.9345 7.5011 15.799V15.799Z" fill="white"/>
</g>
<defs>
<clipPath id="clip0_1403_101">
<rect width="13.364" height="17.085" fill="white"/>
</clipPath>
</defs>
</svg>
