<svg width="43" height="42" viewBox="0 0 43 42" fill="none" xmlns="http://www.w3.org/2000/svg">
<g filter="url(#filter0_d_837_2)">
<path d="M21.0317 36C29.316 36 36.0317 29.2843 36.0317 21C36.0317 12.7157 29.316 6 21.0317 6C12.7475 6 6.03174 12.7157 6.03174 21C6.03174 29.2843 12.7475 36 21.0317 36Z" fill="#FAB629"/>
</g>
<g clip-path="url(#clip0_837_2)">
<path d="M19.892 13.285L16.635 16.314H24.662C24.8569 16.314 25.0439 16.3914 25.1817 16.5292C25.3195 16.6671 25.397 16.854 25.397 17.049C25.397 17.2439 25.3195 17.4308 25.1817 17.5687C25.0439 17.7065 24.8569 17.784 24.662 17.784H16.635L19.892 20.813C20.0343 20.9456 20.118 21.1293 20.1249 21.3236C20.1317 21.518 20.0611 21.7072 19.9285 21.8495C19.7959 21.9918 19.6122 22.0755 19.4178 22.0824C19.2234 22.0892 19.0343 22.0186 18.892 21.886L14.268 17.578C14.1939 17.5096 14.1348 17.4266 14.0943 17.3343C14.0539 17.242 14.033 17.1423 14.033 17.0415C14.033 16.9407 14.0539 16.8409 14.0943 16.7486C14.1348 16.6563 14.1939 16.5733 14.268 16.505L18.892 12.197C18.9624 12.1312 19.045 12.0801 19.1352 12.0463C19.2254 12.0126 19.3214 11.997 19.4176 12.0005C19.5139 12.0039 19.6085 12.0263 19.6961 12.0664C19.7836 12.1064 19.8624 12.1634 19.928 12.234C20.061 12.3789 20.1318 12.5702 20.125 12.7668C20.1183 12.9634 20.0346 13.1495 19.892 13.285V13.285Z" fill="white"/>
<path d="M21.5328 27.799L24.7898 24.77H16.7628C16.5679 24.77 16.3809 24.6926 16.2431 24.5547C16.1053 24.4169 16.0278 24.23 16.0278 24.035C16.0278 23.8401 16.1053 23.6531 16.2431 23.5153C16.3809 23.3775 16.5679 23.3 16.7628 23.3H24.7898L21.5328 20.271C21.3905 20.1384 21.3068 19.9547 21.2999 19.7603C21.2931 19.566 21.3637 19.3768 21.4963 19.2345C21.6289 19.0922 21.8126 19.0085 22.007 19.0016C22.2014 18.9948 22.3905 19.0654 22.5328 19.198L27.1568 23.506C27.2309 23.5744 27.29 23.6573 27.3305 23.7497C27.3709 23.842 27.3918 23.9417 27.3918 24.0425C27.3918 24.1433 27.3709 24.243 27.3305 24.3354C27.29 24.4277 27.2309 24.5107 27.1568 24.579L22.5328 28.887C22.4624 28.9527 22.3798 29.0039 22.2896 29.0377C22.1994 29.0714 22.1034 29.087 22.0072 29.0835C21.9109 29.0801 21.8163 29.0577 21.7287 29.0176C21.6412 28.9775 21.5624 28.9206 21.4968 28.85C21.3638 28.7051 21.293 28.5138 21.2998 28.3172C21.3065 28.1206 21.3902 27.9345 21.5328 27.799V27.799Z" fill="white"/>
</g>
<defs>
<filter id="filter0_d_837_2" x="0.0317383" y="0" width="42" height="42" filterUnits="userSpaceOnUse" color-interpolation-filters="sRGB">
<feFlood flood-opacity="0" result="BackgroundImageFix"/>
<feColorMatrix in="SourceAlpha" type="matrix" values="0 0 0 0 0 0 0 0 0 0 0 0 0 0 0 0 0 0 127 0" result="hardAlpha"/>
<feOffset/>
<feGaussianBlur stdDeviation="3"/>
<feComposite in2="hardAlpha" operator="out"/>
<feColorMatrix type="matrix" values="0 0 0 0 0.980392 0 0 0 0 0.713726 0 0 0 0 0.160784 0 0 0 1 0"/>
<feBlend mode="normal" in2="BackgroundImageFix" result="effect1_dropShadow_837_2"/>
<feBlend mode="normal" in="SourceGraphic" in2="effect1_dropShadow_837_2" result="shape"/>
</filter>
<clipPath id="clip0_837_2">
<rect width="13.364" height="17.085" fill="white" transform="translate(14.0317 12)"/>
</clipPath>
</defs>
</svg>
