<svg width="24" height="14" viewBox="0 0 24 14" fill="none" xmlns="http://www.w3.org/2000/svg">
<path d="M3.60528 9.61605L3.60528 2.80005C3.60528 1.73676 4.47668 0.871126 5.54707 0.871126L17.088 0.871126L15.1462 2.80005L5.53334 2.80687L5.54021 9.61605L7.31732 7.85071L8.68961 9.21391L4.57274 13.3035L0.45588 9.21391L1.82817 7.85071L3.60528 9.61605ZM22.4125 6.48751L23.7848 5.12431L19.6679 1.03471L15.551 5.12431L16.9233 6.48751L18.7004 4.72216L18.7073 11.5313L9.09443 11.5382L7.15264 13.4671L18.6936 13.4671C19.764 13.4671 20.6354 12.6015 20.6354 11.5382L20.6354 4.72216L22.4125 6.48751Z" fill="#9FA5B3"/>
</svg>
