<svg width="18" height="19" viewBox="0 0 18 19" fill="none" xmlns="http://www.w3.org/2000/svg">
<g clip-path="url(#clip0_10_1235)">
<g clip-path="url(#clip1_10_1235)">
<path d="M17.0037 6.85977C17.0016 7.56877 16.4263 8.14244 15.7173 8.14244C15.1935 8.14244 14.6751 8.14244 14.1578 8.14244C13.4007 8.13039 12.6698 8.41356 12.1258 8.92973C11.5818 9.44591 11.2693 10.1528 11.257 10.8948C11.2447 11.6368 11.5337 12.3532 12.0603 12.8865C12.5869 13.4197 13.3081 13.726 14.0652 13.7381C14.9759 13.7514 15.8866 13.7381 16.7973 13.7381C16.8969 13.7381 16.9791 13.8163 16.9827 13.9158C17.0005 14.4133 16.9935 14.9114 16.9617 15.4082C16.9121 15.7205 16.751 16.0054 16.5069 16.2119C16.2629 16.4185 15.952 16.5333 15.6296 16.5359H15.5059C11.4479 16.5359 7.38941 16.5359 3.33051 16.5359C2.80515 16.5455 2.2926 16.3765 1.87992 16.0577C1.46725 15.7389 1.17987 15.2898 1.06665 14.7869C1.02787 14.6168 1.00886 14.4429 1.00986 14.2686C1.00986 11.1138 1.00986 7.95872 1.00986 4.8032C1.0057 4.5048 1.06255 4.20863 1.17714 3.93214C1.29174 3.65566 1.46174 3.40444 1.67704 3.19342C1.89233 2.9824 2.14857 2.81584 2.43065 2.70352C2.71274 2.5912 3.01491 2.53541 3.31935 2.53948C6.81312 2.53948 10.3061 2.53948 13.7982 2.53948C13.9209 2.52235 14.0459 2.53125 14.1647 2.56558C14.2836 2.5999 14.3935 2.6589 14.4871 2.73849C14.5807 2.81807 14.6557 2.91638 14.7071 3.02687C14.7586 3.13735 14.7852 3.25738 14.7852 3.37882C14.7852 3.50026 14.7586 3.62029 14.7071 3.73077C14.6557 3.84126 14.5807 3.93964 14.4871 4.01923C14.3935 4.09881 14.2836 4.15781 14.1647 4.19214C14.0459 4.22646 13.9209 4.23529 13.7982 4.21816H3.42562C3.34811 4.21454 3.27044 4.21703 3.19332 4.22548C3.05592 4.24904 2.93208 4.32109 2.84517 4.42803C2.75827 4.53497 2.71433 4.6694 2.72163 4.80593C2.72893 4.94246 2.78694 5.07167 2.88477 5.16912C2.9826 5.26658 3.11351 5.32557 3.25268 5.33493C3.31693 5.33493 3.38366 5.33493 3.44915 5.33493H15.4467C15.6556 5.31723 15.8659 5.34449 16.0629 5.41485C16.26 5.4852 16.4389 5.59691 16.5872 5.74218C16.7355 5.88745 16.8497 6.06276 16.9216 6.25581C16.9935 6.44886 17.0216 6.655 17.0037 6.85977Z" fill="url(#paint0_linear_10_1235)"/>
<path d="M16.9851 12.6225C16.0237 12.6225 15.0735 12.6225 14.122 12.6225C14.0328 12.6211 13.9439 12.6122 13.8563 12.5959C13.4364 12.5276 13.0576 12.3082 12.794 11.9806C12.5305 11.653 12.4011 11.2409 12.4312 10.8248C12.4614 10.4087 12.6489 10.0185 12.957 9.73071C13.2651 9.44292 13.6717 9.27821 14.0972 9.26876C15.0549 9.25786 16.0139 9.26876 16.9851 9.26876V12.6225Z" fill="#4EE7D5"/>
</g>
</g>
<defs>
<linearGradient id="paint0_linear_10_1235" x1="1.00964" y1="2.53101" x2="17.3498" y2="2.9407" gradientUnits="userSpaceOnUse">
<stop stop-color="#0071FF"/>
<stop offset="1" stop-color="#54F0D1"/>
</linearGradient>
<clipPath id="clip0_10_1235">
<rect width="17" height="18" fill="white" transform="translate(0.975098 0.679932)"/>
</clipPath>
<clipPath id="clip1_10_1235">
<rect width="16" height="14" fill="white" transform="translate(1 2.54321)"/>
</clipPath>
</defs>
</svg>
