<svg width="20" height="17" viewBox="0 0 20 17" fill="none" xmlns="http://www.w3.org/2000/svg">
<g clip-path="url(#clip0_1220_3)">
<path d="M19.9243 5.24164C19.9219 6.10254 19.2233 6.79915 18.3624 6.79915C17.7521 6.79915 17.1478 6.79915 16.5448 6.79915C15.6458 6.78453 14.7779 7.12837 14.1319 7.75516C13.4859 8.38194 13.1147 9.24026 13.1001 10.1413C13.0855 11.0423 13.4287 11.9123 14.054 12.5598C14.6794 13.2072 15.5358 13.5792 16.4348 13.5939C17.5163 13.61 18.5978 13.5939 19.6793 13.5939C19.7975 13.5939 19.895 13.6868 19.8992 13.805C19.9205 14.4106 19.9123 15.017 19.8744 15.6219C19.8156 16.0011 19.6242 16.347 19.3344 16.5979C19.0447 16.8487 18.6754 16.9881 18.2925 16.9912H18.1458C13.3268 16.9912 8.50737 16.9912 3.68743 16.9912C3.06356 17.0028 2.4549 16.7976 1.96485 16.4105C1.4748 16.0234 1.13354 15.4781 0.99909 14.8674C0.953045 14.6608 0.930461 14.4497 0.931649 14.238C0.931649 10.4073 0.931649 6.57607 0.931649 2.74436C0.926713 2.38202 0.99422 2.02239 1.1303 1.68666C1.26638 1.35093 1.46827 1.04587 1.72393 0.789633C1.97959 0.533395 2.28387 0.331145 2.61885 0.194758C2.95382 0.0583713 3.31264 -0.00937775 3.67417 -0.00443108C7.67639 -0.00443108 11.6778 -0.00443108 15.6782 -0.00443108C15.9709 -0.00443108 16.2723 -0.0556627 16.553 0.0272561C16.6942 0.0689363 16.8247 0.140576 16.9358 0.237217C17.047 0.333858 17.1361 0.453231 17.1972 0.587392C17.2583 0.721552 17.2899 0.867297 17.2899 1.01476C17.2899 1.16223 17.2583 1.30798 17.1972 1.44214C17.1361 1.5763 17.047 1.69576 16.9358 1.7924C16.8247 1.88904 16.6942 1.96068 16.553 2.00236C16.2723 2.08528 15.9709 2.03396 15.6782 2.03396H3.80037C3.70832 2.02957 3.61609 2.03258 3.52451 2.04285C3.36135 2.07146 3.21429 2.15895 3.11109 2.2888C3.00789 2.41866 2.95571 2.5819 2.96438 2.74768C2.97305 2.91347 3.04193 3.07036 3.15811 3.1887C3.27428 3.30704 3.42974 3.37868 3.595 3.39005C3.6713 3.39005 3.75054 3.39005 3.82831 3.39005H18.0754C18.3234 3.36855 18.5732 3.40165 18.8072 3.48708C19.0411 3.57251 19.2536 3.70816 19.4297 3.88456C19.6059 4.06096 19.7414 4.27383 19.8269 4.50825C19.9123 4.74267 19.9456 4.99298 19.9243 5.24164Z" fill="url(#paint0_linear_1220_3)"/>
<path d="M19.9022 12.2393C18.7606 12.2393 17.6321 12.2393 16.5022 12.2393C16.3963 12.2375 16.2907 12.2267 16.1867 12.207C15.6881 12.1241 15.2383 11.8576 14.9253 11.4598C14.6123 11.0621 14.4587 10.5617 14.4945 10.0564C14.5303 9.55107 14.7529 9.0773 15.1188 8.72784C15.4847 8.37838 15.9675 8.17837 16.4728 8.16689C17.6101 8.15366 18.7488 8.16689 19.9022 8.16689V12.2393Z" fill="#4EE7D5"/>
</g>
<defs>
<linearGradient id="paint0_linear_1220_3" x1="0.931396" y1="-0.0147247" x2="20.3359" y2="0.461066" gradientUnits="userSpaceOnUse">
<stop stop-color="#0071FF"/>
<stop offset="1" stop-color="#54F0D1"/>
</linearGradient>
<clipPath id="clip0_1220_3">
<rect width="19" height="17" fill="white" transform="translate(0.919922)"/>
</clipPath>
</defs>
</svg>
