<svg width="16" height="14" viewBox="0 0 16 14" fill="none" xmlns="http://www.w3.org/2000/svg">
<path d="M16.0038 4.31668C16.0017 5.02567 15.4264 5.59934 14.7174 5.59934C14.1937 5.59934 13.6752 5.59934 13.1579 5.59934C12.4008 5.5873 11.67 5.87046 11.126 6.38664C10.5819 6.90281 10.2694 7.60967 10.2571 8.3517C10.2448 9.09373 10.5338 9.81016 11.0604 10.3434C11.587 10.8766 12.3082 11.1829 13.0653 11.195C13.976 11.2083 14.8867 11.195 15.7974 11.195V11.195C15.897 11.195 15.9792 11.2732 15.9828 11.3727C16.0006 11.8702 15.9936 12.3683 15.9618 12.8652C15.9123 13.1774 15.7511 13.4623 15.5071 13.6689C15.263 13.8754 14.9521 13.9902 14.6297 13.9928H14.5061C10.448 13.9928 6.38954 13.9928 2.33063 13.9928C1.80527 14.0024 1.29272 13.8334 0.880045 13.5146C0.467372 13.1958 0.17999 12.7467 0.0667708 12.2438C0.0279958 12.0737 0.00897771 11.8998 0.00997813 11.7255C0.00997813 8.57075 0.00997813 5.41563 0.00997813 2.26011C0.00582188 1.96171 0.06267 1.66554 0.177264 1.38905C0.291858 1.11257 0.461865 0.861347 0.67716 0.650327C0.892455 0.439307 1.14869 0.272749 1.43078 0.16043C1.71286 0.0481117 2.01503 -0.00768156 2.31947 -0.00360784C5.81324 -0.00360784 9.30624 -0.00360784 12.7984 -0.00360784C12.921 -0.0207396 13.046 -0.0118374 13.1648 0.0224875C13.2837 0.0568123 13.3936 0.11581 13.4872 0.195397C13.5808 0.274983 13.6558 0.373291 13.7073 0.483776C13.7587 0.594261 13.7853 0.714286 13.7853 0.83573C13.7853 0.957174 13.7587 1.0772 13.7073 1.18768C13.6558 1.29817 13.5808 1.39655 13.4872 1.47614C13.3936 1.55572 13.2837 1.61472 13.1648 1.64905C13.046 1.68337 12.921 1.6922 12.7984 1.67507H2.42574C2.34823 1.67145 2.27056 1.67393 2.19344 1.68239C2.05604 1.70595 1.9322 1.778 1.84529 1.88494C1.75839 1.99188 1.71445 2.12631 1.72175 2.26284C1.72905 2.39937 1.78706 2.52858 1.88489 2.62603C1.98272 2.72349 2.11364 2.78248 2.2528 2.79184C2.31706 2.79184 2.38378 2.79184 2.44927 2.79184H14.4468C14.6557 2.77414 14.866 2.8014 15.0631 2.87176C15.2601 2.94211 15.439 3.05382 15.5873 3.19909C15.7356 3.34436 15.8498 3.51967 15.9217 3.71272C15.9937 3.90577 16.0217 4.11191 16.0038 4.31668V4.31668Z" fill="url(#paint0_linear_22_335)"/>
<defs>
<linearGradient id="paint0_linear_22_335" x1="0.00976562" y1="-0.012085" x2="16.3499" y2="0.397607" gradientUnits="userSpaceOnUse">
<stop stop-color="#0071FF"/>
<stop offset="1" stop-color="#54F0D1"/>
</linearGradient>
</defs>
</svg>
