<svg width="50" height="50" viewBox="0 0 50 50" fill="none" xmlns="http://www.w3.org/2000/svg">
<rect width="50" height="50" rx="10" fill="#00A7DC" fill-opacity="0.15"/>
<path d="M12.9165 23.7498C12.9165 21.9082 14.4082 20.4165 16.2498 20.4165H33.7498C35.5915 20.4165 37.0832 21.9082 37.0832 23.7498" stroke="#00A7DC" stroke-width="2.5" stroke-linecap="round" stroke-linejoin="round"/>
<path d="M37.0832 25.4165H30.4165C29.4965 25.4165 28.7498 26.1632 28.7498 27.0832V27.9165C28.7498 28.8365 28.0032 29.5832 27.0832 29.5832H22.9165C21.9965 29.5832 21.2498 28.8365 21.2498 27.9165V27.0832C21.2498 26.1632 20.5032 25.4165 19.5832 25.4165H12.9165" stroke="#00A7DC" stroke-width="2.5" stroke-linecap="round" stroke-linejoin="round"/>
<path d="M33.7498 15.4165H16.2498C14.4089 15.4165 12.9165 16.9089 12.9165 18.7498V31.2498C12.9165 33.0908 14.4089 34.5832 16.2498 34.5832H33.7498C35.5908 34.5832 37.0832 33.0908 37.0832 31.2498V18.7498C37.0832 16.9089 35.5908 15.4165 33.7498 15.4165Z" stroke="#00A7DC" stroke-width="2.5" stroke-linecap="round" stroke-linejoin="round"/>
</svg>
