<svg width="196" height="40" viewBox="0 0 196 40" fill="none" xmlns="http://www.w3.org/2000/svg">
<g filter="url(#filter0_b_2034_21608)">
<path fill-rule="evenodd" clip-rule="evenodd" d="M40.3912 20C40.3912 31.0457 31.4369 40 20.3912 40C9.34551 40 0.391205 31.0457 0.391205 20C0.391205 8.9543 9.34551 0 20.3912 0C31.4369 0 40.3912 8.9543 40.3912 20ZM25.5729 17.109L28.5772 22.4295H28.5676L28.6138 22.5103L30.0207 21.6788L24.7314 12.2991L24.7318 12.2989C23.9735 10.953 21.1462 5.93592 21.1404 5.93198C21.0937 5.84793 21.0276 5.77689 20.9479 5.72507C20.8634 5.676 20.7679 5.6502 20.6708 5.65019C20.5733 5.64947 20.4774 5.67605 20.3936 5.72704C20.3137 5.77435 20.2474 5.8423 20.2012 5.9241L17.0062 11.5737L19.2138 12.8802C19.6535 13.1417 20.0081 13.5302 20.233 13.9972C20.458 14.4641 20.5433 14.9886 20.4783 15.505C20.4323 15.847 20.3225 16.1768 20.155 16.4765C20.0781 16.6095 19.9919 16.7366 19.8971 16.8568C19.8031 16.9723 19.6994 17.0791 19.5872 17.176C19.474 17.2737 19.353 17.3614 19.2254 17.4381C19.0962 17.5152 18.9611 17.5811 18.8212 17.6352L14.5485 19.253L17.5528 13.9325V13.9266L17.5971 13.8458L16.1902 13.0142L10.8974 22.4L19.387 19.188C19.843 19.0144 20.2667 18.7625 20.64 18.4431C20.825 18.2809 20.9969 18.1036 21.1539 17.913C21.308 17.7235 21.4464 17.5211 21.5677 17.308C22.1232 16.3207 22.2731 15.1479 21.9844 14.0475C21.6957 12.9471 20.992 12.0091 20.0279 11.4397L19.2157 10.9609L20.6631 8.39912L23.3268 13.1285L24.7264 12.302L23.2132 21.4344C23.1286 21.9246 23.1286 22.4261 23.2132 22.9163C23.2563 23.1614 23.3208 23.4021 23.4057 23.6355C23.4865 23.868 23.5884 24.0923 23.7098 24.3055C23.9844 24.794 24.3503 25.2222 24.7867 25.5658C25.223 25.9094 25.7212 26.1616 26.2527 26.308C26.7843 26.4544 27.3388 26.4921 27.8846 26.419C28.4304 26.3459 28.9568 26.1634 29.4337 25.882L30.2459 25.4011L31.6932 27.9629H26.3639V29.6162L19.4024 23.6927C19.2158 23.5335 19.0162 23.3911 18.8058 23.267C18.1722 22.8942 17.4541 22.6984 16.7233 22.6995C15.6137 22.699 14.5493 23.1491 13.7634 23.9511C12.9775 24.7531 12.5345 25.8415 12.5314 26.9776V27.9629H9.64446L12.3101 23.2335L10.9051 22.4039C10.7652 22.6519 10.5546 23.025 10.3043 23.4685C9.19829 25.4282 7.31564 28.764 7.31564 28.7688C7.26779 28.8547 7.24259 28.9518 7.2425 29.0506C7.24252 29.1501 7.26771 29.2479 7.31564 29.3344C7.36432 29.4191 7.43381 29.4894 7.51721 29.5381C7.6006 29.5869 7.695 29.6124 7.79103 29.6122H14.1558V26.9953C14.1551 26.65 14.2208 26.308 14.3493 25.9888C14.4778 25.6695 14.6664 25.3793 14.9046 25.1348C15.1427 24.8903 15.4255 24.6962 15.7369 24.5637C16.0484 24.4312 16.3822 24.3629 16.7195 24.3627C16.8704 24.3631 17.021 24.3762 17.1698 24.4021C17.3148 24.4264 17.4572 24.4647 17.5952 24.5164C17.8754 24.619 18.136 24.7711 18.365 24.9657L21.8737 27.9511H15.8746H15.7783V29.6162H26.3639V29.6241H33.5409C33.6373 29.6247 33.7321 29.5995 33.8161 29.5512C33.8998 29.5008 33.9692 29.4292 34.0178 29.3432C34.0664 29.2572 34.0924 29.1598 34.0933 29.0605C34.0928 28.9614 34.0669 28.8643 34.0182 28.7787L30.8348 23.1311L28.6253 24.4356C28.0349 24.7841 27.3335 24.8783 26.6753 24.6976C26.017 24.5169 25.4558 24.0761 25.1148 23.472C25.0375 23.3394 24.9731 23.1995 24.9223 23.0542C24.8709 22.9128 24.8316 22.7671 24.8049 22.6187C24.7787 22.4698 24.7658 22.3188 24.7664 22.1675C24.7651 22.0149 24.7774 21.8625 24.803 21.7123L25.5729 17.109ZM24.7264 12.302L24.7279 12.293L24.7314 12.2991L24.7264 12.302Z" fill="#F2F4F9"/>
</g>
<path fill-rule="evenodd" clip-rule="evenodd" d="M64.4735 6.54316H51.5617L49.2828 19.3229H53.5177C54.4418 18.0352 55.368 17.4746 57.0518 17.4746C59.5622 17.4746 61.047 19.3899 61.047 21.8008C61.047 24.1122 59.4952 26.2591 57.0518 26.2591C54.972 26.2591 53.4852 24.8719 53.2536 22.792H48.5557C48.6552 27.6463 52.6504 30.1223 57.1432 30.1223C61.766 30.2218 65.7287 26.5556 65.7287 21.7947C65.7287 17.4685 63.1532 13.9344 58.5954 13.9344C56.7471 13.9344 55.3599 14.4299 54.0701 15.7177L54.0051 15.6506L54.9395 10.4023H64.4856V6.54316H64.4735ZM72.0007 6.07397H67.3292V9.93307H72.0007V6.07397ZM67.3292 29.6551H72.0007V12.5796H67.3292V29.6551ZM74.7996 29.6551H79.4894V21.9592C79.4894 18.9126 80.6451 16.4753 84.1122 16.4753C84.6775 16.4742 85.2416 16.5293 85.796 16.6398V12.2831C85.4676 12.1778 85.1253 12.1224 84.7805 12.1185C83.6147 12.1268 82.4766 12.4747 81.5055 13.1197C80.5344 13.7647 79.7724 14.6788 79.3127 15.7502H79.2457V12.5796H74.7915V29.6551H74.7996ZM90.5914 19.2843C90.691 17.9641 91.4506 15.6506 94.4891 15.6506C96.768 15.6506 97.7917 16.9059 98.2203 19.2843H90.5914ZM102.91 22.2558C103.28 17.0054 100.436 12.1185 94.6232 12.1185C89.4378 12.1185 85.9057 16.0142 85.9057 21.1346C85.9057 26.4155 89.2408 30.1162 94.6232 30.1162C98.4823 30.1162 101.295 28.4324 102.616 24.3702H98.4762C98.1796 25.4263 96.6604 26.5841 94.7776 26.5841C92.1371 26.5841 90.7153 25.2618 90.5833 22.2558H102.91Z" fill="#F2F4F9"/>
<rect x="111.831" width="83.7778" height="40" rx="8.88889" fill="#00A7DC" fill-opacity="0.15"/>
<path d="M126.1 28.5L121.618 12.3384H124.182L127.331 24.8542H127.481L130.756 12.3384H133.297L136.572 24.8621H136.722L139.863 12.3384H142.435L137.945 28.5H135.491L132.09 16.3946H131.963L128.562 28.5H126.1ZM146.803 28.7683C146.035 28.7683 145.341 28.6263 144.72 28.3422C144.099 28.0528 143.607 27.6346 143.244 27.0874C142.886 26.5403 142.707 25.8695 142.707 25.0751C142.707 24.3912 142.839 23.8283 143.102 23.3864C143.365 22.9444 143.72 22.5946 144.167 22.3368C144.615 22.079 145.114 21.8844 145.667 21.7528C146.219 21.6213 146.782 21.5214 147.356 21.453C148.082 21.3688 148.671 21.3004 149.123 21.2478C149.576 21.1899 149.904 21.0979 150.11 20.9716C150.315 20.8453 150.417 20.6402 150.417 20.3561V20.3008C150.417 19.6116 150.223 19.0776 149.833 18.6989C149.449 18.3201 148.876 18.1307 148.113 18.1307C147.319 18.1307 146.693 18.3069 146.235 18.6594C145.782 19.0066 145.469 19.3933 145.296 19.8194L143.078 19.3144C143.341 18.5779 143.725 17.9834 144.231 17.5309C144.741 17.0732 145.327 16.7418 145.99 16.5366C146.653 16.3262 147.35 16.221 148.082 16.221C148.566 16.221 149.078 16.2788 149.62 16.3946C150.167 16.505 150.678 16.7102 151.151 17.0101C151.63 17.31 152.022 17.7387 152.327 18.2964C152.632 18.8488 152.785 19.5669 152.785 20.4508V28.5H150.481V26.8428H150.386C150.233 27.1479 150.004 27.4478 149.699 27.7424C149.394 28.037 149.002 28.2817 148.523 28.4763C148.045 28.671 147.471 28.7683 146.803 28.7683ZM147.316 26.8744C147.968 26.8744 148.526 26.7455 148.989 26.4877C149.457 26.2299 149.812 25.8932 150.054 25.4776C150.302 25.0567 150.425 24.6069 150.425 24.1282V22.5657C150.341 22.6498 150.178 22.7287 149.936 22.8024C149.699 22.8708 149.428 22.9313 149.123 22.9839C148.818 23.0312 148.521 23.076 148.231 23.1181C147.942 23.1549 147.7 23.1864 147.505 23.2128C147.048 23.2706 146.63 23.3679 146.251 23.5047C145.877 23.6415 145.577 23.8388 145.351 24.0966C145.13 24.3491 145.02 24.6858 145.02 25.1067C145.02 25.6907 145.235 26.1326 145.667 26.4324C146.098 26.7271 146.648 26.8744 147.316 26.8744ZM158.287 12.3384V28.5H155.928V12.3384H158.287ZM163.821 12.3384V28.5H161.461V12.3384H163.821ZM172.219 28.7446C171.025 28.7446 169.997 28.4895 169.134 27.9792C168.276 27.4636 167.613 26.7402 167.145 25.809C166.682 24.8726 166.451 23.7757 166.451 22.5183C166.451 21.2767 166.682 20.1824 167.145 19.2355C167.613 18.2885 168.266 17.5493 169.102 17.018C169.944 16.4866 170.928 16.221 172.054 16.221C172.738 16.221 173.4 16.3341 174.042 16.5603C174.684 16.7865 175.26 17.1416 175.771 17.6256C176.281 18.1096 176.683 18.7383 176.978 19.5117C177.273 20.2798 177.42 21.2136 177.42 22.3131V23.1496H167.784V21.3819H175.108C175.108 20.7612 174.981 20.2114 174.729 19.7326C174.476 19.2486 174.121 18.8672 173.664 18.5884C173.211 18.3096 172.68 18.1701 172.069 18.1701C171.407 18.1701 170.828 18.3332 170.333 18.6594C169.844 18.9803 169.465 19.4012 169.197 19.922C168.934 20.4376 168.802 20.9979 168.802 21.6029V22.9839C168.802 23.7941 168.944 24.4833 169.229 25.0515C169.518 25.6196 169.92 26.0537 170.436 26.3535C170.952 26.6481 171.554 26.7955 172.243 26.7955C172.69 26.7955 173.098 26.7323 173.466 26.6061C173.835 26.4745 174.153 26.2799 174.421 26.0221C174.689 25.7643 174.895 25.446 175.037 25.0672L177.27 25.4697C177.091 26.1273 176.77 26.7034 176.307 27.1979C175.849 27.6872 175.273 28.0686 174.579 28.3422C173.89 28.6105 173.103 28.7446 172.219 28.7446ZM185.696 16.3788V18.2727H179.075V16.3788H185.696ZM180.851 13.4747H183.21V24.941C183.21 25.3987 183.279 25.7433 183.415 25.9747C183.552 26.201 183.728 26.3562 183.944 26.4403C184.165 26.5193 184.404 26.5587 184.662 26.5587C184.852 26.5587 185.017 26.5456 185.159 26.5193C185.301 26.493 185.412 26.4719 185.491 26.4561L185.917 28.4053C185.78 28.4579 185.585 28.5105 185.333 28.5631C185.08 28.621 184.765 28.6526 184.386 28.6578C183.765 28.6684 183.186 28.5579 182.65 28.3264C182.113 28.0949 181.679 27.7372 181.348 27.2532C181.016 26.7691 180.851 26.1615 180.851 25.4302V13.4747Z" fill="#00A7DC"/>
<defs>
<filter id="filter0_b_2034_21608" x="-1.38657" y="-1.77778" width="43.5556" height="43.5556" filterUnits="userSpaceOnUse" color-interpolation-filters="sRGB">
<feFlood flood-opacity="0" result="BackgroundImageFix"/>
<feGaussianBlur in="BackgroundImageFix" stdDeviation="0.888889"/>
<feComposite in2="SourceAlpha" operator="in" result="effect1_backgroundBlur_2034_21608"/>
<feBlend mode="normal" in="SourceGraphic" in2="effect1_backgroundBlur_2034_21608" result="shape"/>
</filter>
</defs>
</svg>
