<svg width="42" height="42" viewBox="0 0 42 42" fill="none" xmlns="http://www.w3.org/2000/svg">
<g filter="url(#filter0_d_1407_164)">
<path d="M21 36C29.2843 36 36 29.2843 36 21C36 12.7157 29.2843 6 21 6C12.7157 6 6 12.7157 6 21C6 29.2843 12.7157 36 21 36Z" fill="#FAB629"/>
</g>
<path d="M24.2327 20.2329C24.2327 19.9199 23.9791 19.6663 23.6661 19.6663H17.8299C17.517 19.6663 17.2633 19.9199 17.2633 20.2329C17.2633 20.5458 17.517 20.7995 17.8299 20.7995H23.6661C23.9791 20.7995 24.2327 20.5458 24.2327 20.2329ZM17.8299 21.9327C17.517 21.9327 17.2633 22.1864 17.2633 22.4994C17.2633 22.8123 17.517 23.066 17.8299 23.066H21.3745C21.6874 23.066 21.9411 22.8123 21.9411 22.4994C21.9411 22.1864 21.6874 21.9327 21.3745 21.9327H17.8299Z" fill="white"/>
<path d="M19.1615 27.3723H17.2665C16.6416 27.3723 16.1332 26.8639 16.1332 26.239V16.2665C16.1332 15.6416 16.6416 15.1332 17.2665 15.1332H24.2328C24.8577 15.1332 25.366 15.6416 25.366 16.2665V19.7512C25.366 20.0642 25.6197 20.3178 25.9326 20.3178C26.2456 20.3178 26.4993 20.0642 26.4993 19.7512V16.2665C26.4993 15.0167 25.4825 14 24.2328 14H17.2665C16.0167 14 15 15.0167 15 16.2665V26.239C15 27.4888 16.0167 28.5055 17.2665 28.5055H19.1615C19.4745 28.5055 19.7281 28.2518 19.7281 27.9389C19.7281 27.6259 19.4745 27.3723 19.1615 27.3723Z" fill="white"/>
<path d="M27.5029 22.2038C26.8401 21.541 25.7617 21.541 25.0993 22.2034L21.9885 25.3073C21.9224 25.3732 21.8737 25.4544 21.8466 25.5437L21.1691 27.7741C21.1396 27.8712 21.1367 27.9744 21.1607 28.073C21.1848 28.1715 21.2348 28.2619 21.3057 28.3345C21.3765 28.4071 21.4656 28.4594 21.5635 28.4858C21.6615 28.5123 21.7647 28.5119 21.8625 28.4848L24.1495 27.8513C24.2437 27.8253 24.3295 27.7753 24.3986 27.7063L27.5029 24.6078C28.1657 23.945 28.1657 22.8666 27.5029 22.2038ZM23.7034 26.799L22.5529 27.1177L22.8896 26.0092L24.9886 23.9148L25.7901 24.7163L23.7034 26.799ZM26.702 23.8062L26.5922 23.9157L25.7908 23.1144L25.9003 23.0052C26.1212 22.7843 26.4806 22.7843 26.7016 23.0052C26.9225 23.2261 26.9225 23.5856 26.702 23.8062ZM23.6661 17.3997H17.8299C17.517 17.3997 17.2633 17.6533 17.2633 17.9663C17.2633 18.2792 17.517 18.5329 17.8299 18.5329H23.6661C23.9791 18.5329 24.2327 18.2792 24.2327 17.9663C24.2327 17.6533 23.9791 17.3997 23.6661 17.3997Z" fill="white"/>
<defs>
<filter id="filter0_d_1407_164" x="0" y="0" width="42" height="42" filterUnits="userSpaceOnUse" color-interpolation-filters="sRGB">
<feFlood flood-opacity="0" result="BackgroundImageFix"/>
<feColorMatrix in="SourceAlpha" type="matrix" values="0 0 0 0 0 0 0 0 0 0 0 0 0 0 0 0 0 0 127 0" result="hardAlpha"/>
<feOffset/>
<feGaussianBlur stdDeviation="3"/>
<feComposite in2="hardAlpha" operator="out"/>
<feColorMatrix type="matrix" values="0 0 0 0 0.980392 0 0 0 0 0.713726 0 0 0 0 0.160784 0 0 0 1 0"/>
<feBlend mode="normal" in2="BackgroundImageFix" result="effect1_dropShadow_1407_164"/>
<feBlend mode="normal" in="SourceGraphic" in2="effect1_dropShadow_1407_164" result="shape"/>
</filter>
</defs>
</svg>
